<svg width="15" height="14" viewBox="0 0 15 14" fill="none" xmlns="http://www.w3.org/2000/svg">
<path d="M4.20121 13.8085C3.59689 14.184 2.80662 13.9898 2.43957 13.3785C2.26557 13.0882 2.21149 12.7416 2.28881 12.4121L3.071 9.07643C3.08031 9.0376 3.07894 8.99698 3.06703 8.95887C3.05512 8.92075 3.03311 8.88658 3.00333 8.85997L0.442991 6.62898C-0.0888204 6.16591 -0.150204 5.35608 0.30443 4.81619C0.412608 4.68739 0.545232 4.58129 0.694643 4.50403C0.844054 4.42676 1.00729 4.37987 1.17493 4.36605L4.53505 4.09233C4.60828 4.08623 4.67379 4.03795 4.70377 3.96454L5.99839 0.798257C6.26815 0.138653 7.0184 -0.176342 7.67298 0.100602C7.98516 0.233274 8.23216 0.484083 8.36004 0.798257L9.65466 3.96436C9.68463 4.03795 9.75015 4.08641 9.82338 4.09233L13.1839 4.36622C13.8885 4.42366 14.4103 5.04701 14.3545 5.75471C14.3282 6.09244 14.1707 6.40644 13.9156 6.62934L11.3553 8.86033C11.2957 8.9122 11.2688 8.9962 11.2876 9.07661L12.0698 12.4123C12.2317 13.1024 11.8113 13.7978 11.1252 13.9641C10.9616 14.0038 10.7917 14.0105 10.6256 13.9839C10.4594 13.9572 10.3001 13.8976 10.1572 13.8087L7.28026 12.021C7.24999 12.002 7.21496 11.992 7.17921 11.992C7.14347 11.992 7.10844 12.002 7.07817 12.021L4.20121 13.8085Z" fill="black"/>
</svg>
