<svg width="15" height="14" viewBox="0 0 15 14" fill="none" xmlns="http://www.w3.org/2000/svg">
<path d="M4.20121 13.8085C3.59689 14.184 2.80662 13.9898 2.43957 13.3785C2.26557 13.0882 2.21149 12.7416 2.28881 12.4121L3.071 9.07643C3.08031 9.0376 3.07894 8.99698 3.06703 8.95887C3.05512 8.92075 3.03311 8.88658 3.00333 8.85997L0.442991 6.62898C-0.0888203 6.16591 -0.150204 5.35608 0.30443 4.81619C0.412608 4.68739 0.545232 4.58129 0.694643 4.50403C0.844054 4.42676 1.00729 4.37987 1.17493 4.36605L4.53505 4.09233C4.60828 4.08623 4.67379 4.03795 4.70377 3.96454L5.99839 0.798257C6.26815 0.138653 7.0184 -0.176342 7.67298 0.100602C7.98516 0.233274 8.23216 0.484083 8.36004 0.798257L9.65466 3.96436C9.68463 4.03795 9.75015 4.08641 9.82338 4.09233L13.1839 4.36622C13.8885 4.42366 14.4103 5.04701 14.3545 5.75471C14.3282 6.09244 14.1707 6.40644 13.9156 6.62934L11.3553 8.86033C11.2957 8.9122 11.2688 8.9962 11.2876 9.07661L12.0698 12.4123C12.2317 13.1024 11.8113 13.7978 11.1252 13.9641C10.9616 14.0038 10.7917 14.0105 10.6255 13.9839C10.4594 13.9572 10.3001 13.8976 10.1572 13.8087L7.28026 12.021C7.24999 12.002 7.21496 11.992 7.17921 11.992C7.14347 11.992 7.10844 12.002 7.07816 12.021L4.20103 13.8087L4.20121 13.8085ZM7.84887 11.1062L10.7258 12.8939C10.77 12.9212 10.822 12.9296 10.8714 12.9176C10.9793 12.8914 11.0491 12.7758 11.0216 12.658L10.2394 9.32232C10.1854 9.09284 10.1948 8.85296 10.2668 8.62845C10.3388 8.40394 10.4705 8.20327 10.6479 8.04799L13.2083 5.81718C13.2501 5.78074 13.2765 5.72779 13.2811 5.67C13.2907 5.54992 13.2056 5.44834 13.0964 5.43954L9.73597 5.16547C9.50049 5.1457 9.2751 5.06107 9.08481 4.92097C8.89452 4.78087 8.74678 4.59077 8.65798 4.37179L7.36337 1.20569C7.34312 1.15482 7.30357 1.11404 7.25334 1.09225C7.15409 1.05025 7.03922 1.09853 6.99542 1.20569L5.70062 4.37179C5.61183 4.59077 5.46408 4.78087 5.27379 4.92097C5.08351 5.06107 4.85811 5.1457 4.62264 5.16547L1.26234 5.43954C1.23642 5.4418 1.2112 5.44918 1.18815 5.46126C1.16511 5.47333 1.14469 5.48987 1.12808 5.5099C1.09147 5.55412 1.07336 5.61078 1.07754 5.66805C1.08172 5.72531 1.10787 5.77874 1.15052 5.81718L3.71086 8.04816C3.88826 8.20345 4.02002 8.40412 4.09199 8.62863C4.16396 8.85314 4.17343 9.09302 4.11937 9.3225L3.33717 12.658C3.3238 12.7146 3.33294 12.7742 3.36266 12.8242C3.42135 12.9217 3.54071 12.951 3.63296 12.8937L6.5101 11.1062C6.71099 10.9812 6.94287 10.9149 7.17948 10.9149C7.41609 10.9149 7.64798 10.9812 7.84887 11.1062Z" fill="black"/>
</svg>
