<svg width="16" height="17" viewBox="0 0 16 17" fill="none" xmlns="http://www.w3.org/2000/svg">
<path d="M12.2456 15.4749H3.82375C3.17141 15.4749 2.64062 14.952 2.64062 14.3092V4.28907C2.64062 3.95813 2.90891 3.6897 3.24 3.6897C3.57109 3.6897 3.83938 3.95798 3.83938 4.28907V14.2761H12.23V4.28907C12.23 3.95813 12.4983 3.6897 12.8294 3.6897C13.1605 3.6897 13.4288 3.95798 13.4288 4.28907V14.3092C13.4288 14.952 12.898 15.4749 12.2456 15.4749Z" fill="#808080"/>
<path d="M11.0313 4.32055C10.7002 4.32055 10.4319 4.05227 10.4319 3.72117V2.72398H5.63723V3.72117C5.63723 4.05211 5.36895 4.32055 5.03785 4.32055C4.70676 4.32055 4.43848 4.05227 4.43848 3.72117V2.69102C4.43848 2.03742 4.86207 1.52539 5.4027 1.52539H10.6663C11.2069 1.52539 11.6305 2.03742 11.6305 2.69102V3.72117C11.6307 4.05211 11.3624 4.32055 11.0313 4.32055Z" fill="#808080"/>
<path d="M14.3928 4.50026H1.60719C1.27625 4.50026 1.00781 4.23198 1.00781 3.90089C1.00781 3.56979 1.27609 3.30151 1.60719 3.30151H14.393C14.7241 3.30151 14.9923 3.56979 14.9923 3.90089C14.9923 4.23198 14.7239 4.50026 14.3928 4.50026ZM8.03469 12.4262C7.70359 12.4262 7.43531 12.1579 7.43531 11.8268V6.83245C7.43531 6.50151 7.70359 6.23308 8.03469 6.23308C8.36578 6.23308 8.63406 6.50136 8.63406 6.83245V11.8268C8.63406 12.1578 8.36578 12.4262 8.03469 12.4262ZM5.63734 11.4273C5.30625 11.4273 5.03797 11.159 5.03797 10.8279V7.83136C5.03797 7.50042 5.30625 7.23198 5.63734 7.23198C5.96844 7.23198 6.23672 7.50026 6.23672 7.83136V10.8281C6.23672 11.159 5.96844 11.4273 5.63734 11.4273ZM10.432 11.4273C10.1009 11.4273 9.83266 11.159 9.83266 10.8279V7.83136C9.83266 7.50042 10.1009 7.23198 10.432 7.23198C10.7631 7.23198 11.0314 7.50026 11.0314 7.83136V10.8281C11.0314 11.159 10.7631 11.4273 10.432 11.4273Z" fill="#808080"/>
</svg>
