<svg width="24" height="24" viewBox="0 0 24 24" fill="none" xmlns="http://www.w3.org/2000/svg">
<path d="M12.297 20.55C7.67997 20.55 3.91797 16.788 3.91797 12.171C3.91797 7.55399 7.67997 3.79199 12.297 3.79199C15.177 3.79199 17.823 5.24099 19.371 7.67999C19.623 8.07599 19.506 8.61599 19.11 8.86799C18.9173 8.98894 18.6848 9.02935 18.4626 8.98054C18.2404 8.93172 18.0462 8.79757 17.922 8.60699C17.3222 7.65851 16.4915 6.87776 15.5077 6.33785C14.5239 5.79795 13.4192 5.51654 12.297 5.51999C8.62497 5.51999 5.63697 8.50799 5.63697 12.18C5.63697 15.852 8.62497 18.84 12.297 18.84C13.6067 18.8406 14.8876 18.455 15.9793 17.7314C17.0711 17.0079 17.9252 15.9785 18.435 14.772C18.624 14.331 19.128 14.133 19.56 14.313C20.001 14.502 20.199 15.006 20.019 15.438C19.3777 16.9554 18.303 18.2499 16.9294 19.1592C15.5557 20.0686 13.9443 20.5524 12.297 20.55Z" fill="black"/>
<path d="M18.6328 9.00292H14.8078C14.5787 9.00292 14.3589 8.91189 14.1969 8.74986C14.0349 8.58783 13.9438 8.36806 13.9438 8.13892C13.9438 7.90977 14.0349 7.69001 14.1969 7.52798C14.3589 7.36595 14.5787 7.27492 14.8078 7.27492H17.7778V4.30492C17.7778 4.07577 17.8689 3.85601 18.0309 3.69398C18.1929 3.53195 18.4127 3.44092 18.6418 3.44092C18.871 3.44092 19.0908 3.53195 19.2528 3.69398C19.4148 3.85601 19.5058 4.07577 19.5058 4.30492V8.13892C19.4878 8.61592 19.1098 9.00292 18.6328 9.00292Z" fill="black"/>
</svg>
