<svg width="28" height="30" viewBox="0 0 28 30" fill="none" xmlns="http://www.w3.org/2000/svg">
<path d="M18.6665 14.334V9.00065C18.6665 8.82384 18.5963 8.65427 18.4712 8.52925C18.3462 8.40422 18.1766 8.33398 17.9998 8.33398H9.99984C9.82303 8.33398 9.65346 8.40422 9.52843 8.52925C9.40341 8.65427 9.33317 8.82384 9.33317 9.00065V14.334C9.15636 14.334 8.98679 14.4042 8.86177 14.5292C8.73674 14.6543 8.6665 14.8238 8.6665 15.0007V18.5607C8.66623 18.9109 8.73497 19.2579 8.86881 19.5816C9.00264 19.9053 9.19895 20.1995 9.4465 20.4473L9.8865 20.8873C10.1343 21.1349 10.4285 21.3312 10.7522 21.465C11.076 21.5988 11.4229 21.6676 11.7732 21.6673H16.2265C16.5768 21.6676 16.9237 21.5988 17.2474 21.465C17.5712 21.3312 17.8653 21.1349 18.1132 20.8873L18.5532 20.4473C18.8007 20.1995 18.997 19.9053 19.1309 19.5816C19.2647 19.2579 19.3334 18.9109 19.3332 18.5607V15.0007C19.3332 14.8238 19.2629 14.6543 19.1379 14.5292C19.0129 14.4042 18.8433 14.334 18.6665 14.334ZM10.6665 9.66732H17.3332V14.334H10.6665V9.66732ZM12.9998 11.0007H12.3332C12.2448 11.0007 12.16 11.0358 12.0975 11.0983C12.035 11.1608 11.9998 11.2456 11.9998 11.334V12.0007C11.9998 12.0891 12.035 12.1738 12.0975 12.2364C12.16 12.2989 12.2448 12.334 12.3332 12.334H12.9998C13.0882 12.334 13.173 12.2989 13.2355 12.2364C13.2981 12.1738 13.3332 12.0891 13.3332 12.0007V11.334C13.3332 11.2456 13.2981 11.1608 13.2355 11.0983C13.173 11.0358 13.0882 11.0007 12.9998 11.0007ZM15.6665 11.0007H14.9998C14.9114 11.0007 14.8266 11.0358 14.7641 11.0983C14.7016 11.1608 14.6665 11.2456 14.6665 11.334V12.0007C14.6665 12.0891 14.7016 12.1738 14.7641 12.2364C14.8266 12.2989 14.9114 12.334 14.9998 12.334H15.6665C15.7103 12.334 15.7536 12.3254 15.7941 12.3086C15.8345 12.2919 15.8713 12.2673 15.9022 12.2364C15.9332 12.2054 15.9577 12.1687 15.9745 12.1282C15.9912 12.0878 15.9998 12.0444 15.9998 12.0007V11.334C15.9998 11.2902 15.9912 11.2469 15.9745 11.2064C15.9577 11.166 15.9332 11.1292 15.9022 11.0983C15.8713 11.0673 15.8345 11.0428 15.7941 11.026C15.7536 11.0093 15.7103 11.0007 15.6665 11.0007Z" fill="#0DB27C"/>
</svg>
