<svg width="202" height="45" viewBox="0 0 202 45" fill="none" xmlns="http://www.w3.org/2000/svg">
<path d="M1.34979 18.0184C1.34979 15.4092 3.46491 13.2941 6.07404 13.2941H94.6085C102.345 13.2941 108.616 19.5654 108.616 27.3015C108.616 35.0375 102.345 41.3089 94.6085 41.3089H6.07404C3.46491 41.3089 1.34979 39.1937 1.34979 36.5846V18.0184Z" stroke="#594AF1" stroke-width="2.69957"/>
<rect x="13.3771" y="18.4133" width="64.3107" height="17.7766" rx="1.34979" fill="#594AF1" stroke="#594AF1" stroke-width="2.69957"/>
<ellipse cx="94.8453" cy="27.6436" rx="8.24742" ry="8.19048" fill="#594AF1"/>
<rect x="17.5259" y="10.5791" width="8.93471" height="2.73016" rx="1.34979" fill="#594AF1"/>
<rect width="6.16425" height="1.36983" rx="0.684917" transform="matrix(-0.709552 -0.704653 0.709552 -0.704653 16.2764 8.53125)" fill="#594AF1"/>
<rect width="6.16425" height="1.36983" rx="0.684917" transform="matrix(0.709552 -0.704653 0.709552 0.704653 24.7422 7.41406)" fill="#594AF1"/>
<rect x="20.2749" y="6.82617" width="6.14286" height="1.37457" rx="0.687285" transform="rotate(-90 20.2749 6.82617)" fill="#594AF1"/>
<rect width="6.16425" height="1.36983" rx="0.684917" transform="matrix(-0.709552 -0.704653 0.709552 -0.704653 57.6382 7.84863)" fill="#594AF1"/>
<rect width="6.16425" height="1.36983" rx="0.684917" transform="matrix(0.709552 -0.704653 0.709552 0.704653 66.1047 6.73242)" fill="#594AF1"/>
<rect x="61.6372" y="6.14258" width="6.14286" height="1.37457" rx="0.687285" transform="rotate(-90 61.6372 6.14258)" fill="#594AF1"/>
<rect x="58.0754" y="10.5791" width="8.93471" height="2.73016" rx="1.34979" fill="#594AF1"/>
<path d="M37.1764 31.2061V25.4998H38.1967L40.0157 30.0514H40.079L41.898 25.4998H42.9183V31.2061H42.1116V27.0183H42.0522L40.3756 31.2061H39.7191L38.0464 27.0183H37.9831V31.2061H37.1764ZM44.6978 26.1444C44.4012 26.1444 44.16 25.9031 44.16 25.6105C44.16 25.3139 44.4012 25.0727 44.6978 25.0727C44.9904 25.0727 45.2356 25.3139 45.2356 25.6105C45.2356 25.9031 44.9904 26.1444 44.6978 26.1444ZM44.2667 31.2061V26.9115H45.1209V31.2061H44.2667ZM46.3705 31.2061V26.9115H47.2286V27.564H47.2919C47.5015 27.1053 47.9127 26.8285 48.5375 26.8285C49.4985 26.8285 50.0284 27.4019 50.0284 28.4261V31.2061H49.1742V28.6278C49.1742 27.916 48.8776 27.564 48.2489 27.564C47.6201 27.564 47.2286 27.995 47.2286 28.6871V31.2061H46.3705ZM52.405 31.2772C51.5864 31.2772 50.9814 30.779 50.9814 29.9999V29.992C50.9814 29.2249 51.5587 28.778 52.5829 28.7148L53.7456 28.6475V28.2679C53.7456 27.7973 53.449 27.5363 52.8677 27.5363C52.3931 27.5363 52.0807 27.7103 51.9779 28.0148L51.974 28.0306H51.1475L51.1514 28.0029C51.2542 27.2991 51.9305 26.8285 52.9072 26.8285C53.9868 26.8285 54.5958 27.3663 54.5958 28.2679V31.2061H53.7456V30.5971H53.6783C53.4252 31.0321 52.9744 31.2772 52.405 31.2772ZM51.8356 29.9644C51.8356 30.3598 52.1717 30.5931 52.6344 30.5931C53.275 30.5931 53.7456 30.1739 53.7456 29.6203V29.2526L52.6976 29.3198C52.1045 29.3554 51.8356 29.5689 51.8356 29.9564V29.9644Z" fill="white"/>
<path d="M86.5979 39.9289V39.9289C86.5979 41.6252 87.973 43.0003 89.6693 43.0003H193.926C197.281 43.0003 200 40.2809 200 36.9263V16.9949C200 13.6403 197.281 10.9209 193.926 10.9209H90.1812C88.2022 10.9209 86.5979 12.5252 86.5979 14.5042V14.5042" stroke="#594AF1" stroke-width="2.69957"/>
</svg>
