<?xml version="1.0" standalone="no"?><!DOCTYPE svg PUBLIC "-//W3C//DTD SVG 1.1//EN" "http://www.w3.org/Graphics/SVG/1.1/DTD/svg11.dtd"><svg t="1618717174071" class="icon" viewBox="0 0 1024 1024" version="1.1" xmlns="http://www.w3.org/2000/svg" p-id="2321" xmlns:xlink="http://www.w3.org/1999/xlink" width="200" height="200"><defs></defs><path d="M96.1 575.7a32.2 32.1 0 1 0 64.4 0 32.2 32.1 0 1 0-64.4 0Z" fill="#4D4D4D" p-id="2322"></path><path d="M742.1 450.7l-269.5-2.1c-14.3-0.1-26 13.8-26 31s11.7 31.3 26 31.4l269.5 2.1c14.3 0.1 26-13.8 26-31s-11.7-31.3-26-31.4zM742.1 577.7l-269.5-2.1c-14.3-0.1-26 13.8-26 31s11.7 31.3 26 31.4l269.5 2.1c14.3 0.2 26-13.8 26-31s-11.7-31.3-26-31.4z" fill="#4D4D4D" p-id="2323"></path><path d="M736.1 63.9H417c-70.4 0-128 57.6-128 128h-64.9c-70.4 0-128 57.6-128 128v128c-0.1 17.7 14.4 32 32.2 32 17.8 0 32.2-14.4 32.2-32.1V320c0-35.2 28.8-64 64-64H289v447.8c0 70.4 57.6 128 128 128h255.1c-0.1 35.2-28.8 63.8-64 63.8H224.5c-35.2 0-64-28.8-64-64V703.5c0-17.7-14.4-32.1-32.2-32.1-17.8 0-32.3 14.4-32.3 32.1v128.3c0 70.4 57.6 128 128 128h384.1c70.4 0 128-57.6 128-128h65c70.4 0 128-57.6 128-128V255.9l-193-192z m0.1 63.4l127.7 128.3H800c-35.2 0-64-28.8-64-64v-64.3h0.2z m64 641H416.1c-35.2 0-64-28.8-64-64v-513c0-35.2 28.8-64 64-64H671V191c0 70.4 57.6 128 128 128h65.2v385.3c0 35.2-28.8 64-64 64z" fill="#4D4D4D" p-id="2324"></path></svg>