<svg width="49" height="48" viewBox="0 0 49 48" fill="none" xmlns="http://www.w3.org/2000/svg">
<circle cx="24.5" cy="24" r="24"/>
<path d="M24.7319 26.3427C24.5444 26.3428 24.3598 26.2965 24.1946 26.2079L13.8997 20.687C13.72 20.5906 13.5695 20.4477 13.464 20.2731C13.3585 20.0986 13.3019 19.8988 13.3002 19.6949C13.2985 19.4909 13.3517 19.2903 13.4542 19.114C13.5567 18.9377 13.7047 18.7922 13.8828 18.6928L24.1777 12.9445C24.3471 12.8499 24.5379 12.8003 24.7319 12.8003C24.9259 12.8003 25.1167 12.8499 25.2861 12.9445L35.581 18.6928C35.759 18.7922 35.907 18.9377 36.0094 19.114C36.1119 19.2904 36.1651 19.491 36.1633 19.6949C36.1616 19.8988 36.1051 20.0985 35.9996 20.273C35.8942 20.4476 35.7437 20.5906 35.564 20.687L25.269 26.2079C25.1038 26.2965 24.9193 26.3428 24.7319 26.3427ZM16.8046 19.6652L24.7319 23.9157L32.6592 19.6652L24.7319 15.2389L16.8046 19.6652Z" fill="white"/>
<path d="M24.7314 31.5706C24.5439 31.5707 24.3593 31.5243 24.1941 31.4356L13.8993 25.9149C13.6376 25.7703 13.4435 25.5284 13.3589 25.2416C13.2744 24.9548 13.3062 24.6463 13.4474 24.3828C13.5887 24.1193 13.8281 23.9221 14.1138 23.8339C14.3994 23.7456 14.7084 23.7734 14.9736 23.9113L24.7314 29.1439L34.4892 23.9113C34.7545 23.7734 35.0634 23.7456 35.3491 23.8339C35.6347 23.9221 35.8741 24.1193 36.0154 24.3828C36.1567 24.6463 36.1885 24.9548 36.1039 25.2416C36.0194 25.5284 35.8252 25.7703 35.5636 25.9149L25.2685 31.4356C25.1034 31.5243 24.9189 31.5707 24.7314 31.5706Z" fill="white"/>
<mask id="path-4-inside-1_7951_25676" fill="white">
<path d="M24.7314 36.7997C24.5439 36.7996 24.3594 36.7532 24.1941 36.6646L13.8993 31.1439C13.6376 30.9993 13.4435 30.7574 13.3589 30.4706C13.2744 30.1838 13.3062 29.8753 13.4474 29.6118C13.5887 29.3483 13.8281 29.1511 14.1138 29.0629C14.3994 28.9746 14.7084 29.0024 14.9736 29.1403L24.7314 34.3731L34.4892 29.1403C34.7545 29.0024 35.0634 28.9746 35.3491 29.0629C35.6347 29.1511 35.8741 29.3483 36.0154 29.6118C36.1567 29.8753 36.1885 30.1838 36.1039 30.4706C36.0194 30.7574 35.8252 30.9993 35.5636 31.1439L25.2685 36.6646C25.1033 36.7532 24.9188 36.7996 24.7314 36.7997Z"/>
</mask>
<path d="M24.7314 36.7997C24.5439 36.7996 24.3594 36.7532 24.1941 36.6646L13.8993 31.1439C13.6376 30.9993 13.4435 30.7574 13.3589 30.4706C13.2744 30.1838 13.3062 29.8753 13.4474 29.6118C13.5887 29.3483 13.8281 29.1511 14.1138 29.0629C14.3994 28.9746 14.7084 29.0024 14.9736 29.1403L24.7314 34.3731L34.4892 29.1403C34.7545 29.0024 35.0634 28.9746 35.3491 29.0629C35.6347 29.1511 35.8741 29.3483 36.0154 29.6118C36.1567 29.8753 36.1885 30.1838 36.1039 30.4706C36.0194 30.7574 35.8252 30.9993 35.5636 31.1439L25.2685 36.6646C25.1033 36.7532 24.9188 36.7996 24.7314 36.7997Z" fill="white"/>
<path d="M24.1941 36.6646L25.8957 33.4921L25.8955 33.492L24.1941 36.6646ZM13.8993 31.1439L12.1574 34.2945L12.1776 34.3056L12.1979 34.3165L13.8993 31.1439ZM14.9736 29.1403L16.675 25.9677L16.6546 25.9568L16.634 25.9461L14.9736 29.1403ZM24.7314 34.3731L23.0301 37.5457L24.7314 38.4581L26.4328 37.5457L24.7314 34.3731ZM34.4892 29.1403L32.8289 25.9461L32.8083 25.9568L32.7878 25.9677L34.4892 29.1403ZM35.5636 31.1439L37.2649 34.3166L37.2852 34.3056L37.3054 34.2945L35.5636 31.1439ZM25.2685 36.6646L23.5672 33.492L23.5663 33.4925L25.2685 36.6646ZM24.7319 33.1997C25.138 33.1997 25.5378 33.3002 25.8957 33.4921L22.4926 39.8371C23.1809 40.2063 23.9499 40.3996 24.731 40.3997L24.7319 33.1997ZM25.8955 33.492L15.6006 27.9713L12.1979 34.3165L22.4928 39.8372L25.8955 33.492ZM15.6411 27.9934C16.2081 28.3068 16.6287 28.831 16.8119 29.4523L9.90595 31.4889C10.2583 32.6838 11.0672 33.6917 12.1574 34.2945L15.6411 27.9934ZM16.8119 29.4523C16.9951 30.0736 16.9262 30.7422 16.6201 31.313L10.2748 27.9106C9.68609 29.0084 9.55358 30.294 9.90595 31.4889L16.8119 29.4523ZM16.6201 31.313C16.314 31.8839 15.7953 32.3113 15.1764 32.5025L13.0512 25.6232C11.861 25.9909 10.8635 26.8127 10.2748 27.9106L16.6201 31.313ZM15.1764 32.5025C14.5574 32.6937 13.8881 32.6334 13.3133 32.3346L16.634 25.9461C15.5286 25.3715 14.2414 25.2556 13.0512 25.6232L15.1764 32.5025ZM13.2723 32.3129L23.0301 37.5457L26.4328 31.2005L16.675 25.9677L13.2723 32.3129ZM26.4328 37.5457L36.1906 32.3129L32.7878 25.9677L23.0301 31.2005L26.4328 37.5457ZM36.1495 32.3346C35.5748 32.6334 34.9054 32.6937 34.2865 32.5025L36.4116 25.6232C35.2214 25.2556 33.9342 25.3715 32.8289 25.9461L36.1495 32.3346ZM34.2865 32.5025C33.6675 32.3113 33.1489 31.8839 32.8427 31.313L39.1881 27.9106C38.5994 26.8127 37.6019 25.9909 36.4116 25.6232L34.2865 32.5025ZM32.8427 31.313C32.5366 30.7422 32.4677 30.0736 32.6509 29.4523L39.5569 31.4889C39.9093 30.294 39.7768 29.0084 39.1881 27.9106L32.8427 31.313ZM32.6509 29.4523C32.8342 28.831 33.2548 28.3068 33.8217 27.9934L37.3054 34.2945C38.3956 33.6917 39.2045 32.6838 39.5569 31.4889L32.6509 29.4523ZM33.8623 27.9713L23.5672 33.492L26.9698 39.8372L37.2649 34.3166L33.8623 27.9713ZM23.5663 33.4925C23.9244 33.3003 24.3245 33.1997 24.731 33.1997L24.7319 40.3997C25.5131 40.3996 26.2823 40.2062 26.9707 39.8368L23.5663 33.4925Z" fill="white" mask="url(#path-4-inside-1_7951_25676)"/>
</svg>
