<?xml version="1.0" encoding="UTF-8"?>
<svg width="16px" height="16px" viewBox="0 0 16 16" version="1.1" xmlns="http://www.w3.org/2000/svg" xmlns:xlink="http://www.w3.org/1999/xlink">
    <title>委托@2x</title>
    <g id="app-中文" stroke="none" stroke-width="1" fill="none" fill-rule="evenodd">
        <g id="首页，超过50条记录去浏览器查询更多" transform="translate(-30.000000, -488.000000)">
            <g id="编组" transform="translate(30.000000, 488.000000)">
                <circle id="椭圆形" fill="#FFC633" cx="8" cy="8" r="8"></circle>
                <path d="M10.5246053,4 L5.02966359,4 C4.46099639,4 4,4.46050914 4,5.02857497 L4,11.7920929 C3.99980854,11.9192913 4.04974255,12.0414541 4.13900506,12.1321653 L5.29456058,12.8585958 C5.38263704,12.9490018 5.50355914,13 5.6298446,13 C5.75613006,13 5.87705217,12.9490018 5.96512863,12.8585958 L6.47996015,12.3327372 C6.5680366,12.2423313 6.68895871,12.191333 6.81524417,12.191333 C6.94152963,12.191333 7.06245174,12.2423313 7.1505282,12.3327372 L7.66535971,12.8585958 C7.75363617,12.9488752 7.87463114,12.9997736 8.00096551,12.9997736 C8.12729987,12.9997736 8.24829485,12.9488752 8.3365713,12.8585958 L8.85140282,12.3327372 C8.93947928,12.2423313 9.06040139,12.191333 9.18668685,12.191333 C9.31297231,12.191333 9.43389441,12.2423313 9.52197087,12.3327372 L10.0368024,12.8585958 C10.1248788,12.9490018 10.245801,13 10.3720864,13 C10.4983719,13 10.619294,12.9490018 10.7073704,12.8585958 L11.8597083,12.1340939 C11.9497326,12.0422122 12.0001014,11.9187313 12,11.7901644 L12,5.33329006 L12,5.32557576 L12,5.02857497 C12,4.75555723 11.8913414,4.49374033 11.6979636,4.30080825 C11.5045859,4.10787618 10.7979118,3.99965953 10.5246053,4 Z M6.52226362,6 L9.47773638,6 C9.76617461,6 10,6.22385763 10,6.5 C10,6.77614237 9.76617461,7 9.47773638,7 L6.52226362,7 C6.23382539,7 6,6.77614237 6,6.5 C6,6.22385763 6.23382539,6 6.52226362,6 L6.52226362,6 Z M6.40877534,8 L7.59122465,8 C7.73726601,8 7.8722138,8.09529945 7.94523449,8.24999999 C8.01825517,8.40470054 8.01825517,8.59529946 7.94523449,8.75000001 C7.8722138,8.90470055 7.73726601,9 7.59122465,9 L6.40877534,9 C6.18301495,9 6,8.77614237 6,8.5 C6,8.22385763 6.18301495,8 6.40877534,8 Z" id="Receipt" fill="#FFFFFF" fill-rule="nonzero"></path>
            </g>
        </g>
    </g>
</svg>