<svg width="356" height="72" viewBox="0 0 356 72" fill="none" xmlns="http://www.w3.org/2000/svg">
<rect x="14" y="59" width="327" height="6" fill="url(#paint0_linear_8320_13511)"/>
<path d="M12.3108 29L20.6208 8H24.9408L33.1908 29H28.0308L24.0708 18.35C23.9108 17.93 23.7508 17.48 23.5908 17C23.4308 16.52 23.2708 16.03 23.1108 15.53C22.9508 15.01 22.7908 14.51 22.6308 14.03C22.4908 13.53 22.3708 13.07 22.2708 12.65L23.1708 12.62C23.0508 13.12 22.9108 13.61 22.7508 14.09C22.6108 14.57 22.4608 15.05 22.3008 15.53C22.1608 15.99 22.0008 16.46 21.8208 16.94C21.6408 17.4 21.4708 17.88 21.3108 18.38L17.3508 29H12.3108ZM16.2708 24.98L17.8608 21.14H27.5208L29.0808 24.98H16.2708ZM50.2803 29.3C48.7203 29.3 47.3403 29.05 46.1403 28.55C44.9603 28.05 44.0203 27.38 43.3203 26.54L46.2303 24.02C46.8503 24.64 47.5503 25.1 48.3303 25.4C49.1103 25.68 49.8503 25.82 50.5503 25.82C50.8303 25.82 51.0803 25.79 51.3003 25.73C51.5203 25.67 51.7003 25.59 51.8403 25.49C52.0003 25.37 52.1203 25.24 52.2003 25.1C52.2803 24.94 52.3203 24.76 52.3203 24.56C52.3203 24.16 52.1403 23.85 51.7803 23.63C51.6003 23.53 51.3003 23.41 50.8803 23.27C50.4603 23.13 49.9203 22.97 49.2603 22.79C48.3203 22.55 47.5003 22.27 46.8003 21.95C46.1203 21.61 45.5603 21.22 45.1203 20.78C44.7203 20.36 44.4103 19.9 44.1903 19.4C43.9703 18.88 43.8603 18.3 43.8603 17.66C43.8603 16.92 44.0303 16.25 44.3703 15.65C44.7303 15.05 45.2003 14.53 45.7803 14.09C46.3803 13.65 47.0603 13.32 47.8203 13.1C48.6003 12.86 49.4003 12.74 50.2203 12.74C51.1003 12.74 51.9403 12.84 52.7403 13.04C53.5403 13.24 54.2803 13.52 54.9603 13.88C55.6603 14.24 56.2803 14.67 56.8203 15.17L54.3003 17.99C53.9403 17.65 53.5303 17.35 53.0703 17.09C52.6303 16.81 52.1703 16.59 51.6903 16.43C51.2103 16.27 50.7703 16.19 50.3703 16.19C50.0703 16.19 49.8003 16.22 49.5603 16.28C49.3403 16.32 49.1503 16.4 48.9903 16.52C48.8303 16.62 48.7103 16.75 48.6303 16.91C48.5503 17.05 48.5103 17.22 48.5103 17.42C48.5103 17.62 48.5603 17.81 48.6603 17.99C48.7803 18.17 48.9403 18.32 49.1403 18.44C49.3403 18.56 49.6603 18.7 50.1003 18.86C50.5403 19 51.1403 19.18 51.9003 19.4C52.8403 19.66 53.6503 19.95 54.3303 20.27C55.0103 20.59 55.5503 20.97 55.9503 21.41C56.2703 21.75 56.5103 22.15 56.6703 22.61C56.8303 23.05 56.9103 23.53 56.9103 24.05C56.9103 25.07 56.6203 25.98 56.0403 26.78C55.4803 27.56 54.7003 28.18 53.7003 28.64C52.7003 29.08 51.5603 29.3 50.2803 29.3ZM60.0338 29V13.07H64.8338V29H60.0338ZM62.4338 9.92C61.5338 9.92 60.8238 9.71 60.3038 9.29C59.8038 8.85 59.5538 8.23 59.5538 7.43C59.5538 6.71 59.8138 6.12 60.3338 5.66C60.8538 5.2 61.5538 4.97 62.4338 4.97C63.3338 4.97 64.0338 5.19 64.5338 5.63C65.0338 6.05 65.2838 6.65 65.2838 7.43C65.2838 8.17 65.0238 8.77 64.5038 9.23C64.0038 9.69 63.3138 9.92 62.4338 9.92ZM69.3139 29V13.07H73.8739L74.0239 15.95L73.3939 15.98C73.6339 15.46 73.9339 15 74.2939 14.6C74.6739 14.2 75.0939 13.87 75.5539 13.61C76.0339 13.33 76.5239 13.12 77.0239 12.98C77.5439 12.84 78.0639 12.77 78.5839 12.77C79.3639 12.77 80.0739 12.89 80.7139 13.13C81.3539 13.37 81.9139 13.76 82.3939 14.3C82.8739 14.82 83.2539 15.53 83.5339 16.43L82.7839 16.37L83.0239 15.89C83.2839 15.41 83.6139 14.98 84.0139 14.6C84.4339 14.2 84.8939 13.87 85.3939 13.61C85.8939 13.33 86.4139 13.12 86.9539 12.98C87.4939 12.84 88.0139 12.77 88.5139 12.77C89.7739 12.77 90.8239 13.02 91.6639 13.52C92.5039 14 93.1339 14.73 93.5539 15.71C93.9939 16.69 94.2139 17.88 94.2139 19.28V29H89.3839V19.67C89.3839 19.03 89.2939 18.5 89.1139 18.08C88.9339 17.66 88.6639 17.35 88.3039 17.15C87.9639 16.93 87.5339 16.82 87.0139 16.82C86.5939 16.82 86.2039 16.89 85.8439 17.03C85.5039 17.17 85.2039 17.36 84.9439 17.6C84.7039 17.84 84.5139 18.12 84.3739 18.44C84.2339 18.76 84.1639 19.12 84.1639 19.52V29H79.3339V19.64C79.3339 19.04 79.2439 18.53 79.0639 18.11C78.8839 17.69 78.6139 17.37 78.2539 17.15C77.8939 16.93 77.4739 16.82 76.9939 16.82C76.5739 16.82 76.1839 16.89 75.8239 17.03C75.4839 17.17 75.1839 17.36 74.9239 17.6C74.6839 17.84 74.4939 18.12 74.3539 18.44C74.2139 18.76 74.1439 19.11 74.1439 19.49V29H69.3139ZM98.2013 35.6V13.07H102.761L102.941 16.64L102.041 16.37C102.181 15.71 102.521 15.11 103.061 14.57C103.601 14.03 104.281 13.6 105.101 13.28C105.941 12.94 106.821 12.77 107.741 12.77C109.101 12.77 110.311 13.13 111.371 13.85C112.431 14.55 113.261 15.52 113.861 16.76C114.481 17.98 114.791 19.4 114.791 21.02C114.791 22.62 114.481 24.04 113.861 25.28C113.261 26.52 112.421 27.5 111.341 28.22C110.281 28.92 109.061 29.27 107.681 29.27C106.781 29.27 105.921 29.1 105.101 28.76C104.281 28.42 103.591 27.96 103.031 27.38C102.471 26.8 102.101 26.17 101.921 25.49L103.031 25.07V35.6H98.2013ZM106.511 25.22C107.231 25.22 107.861 25.05 108.401 24.71C108.941 24.35 109.361 23.86 109.661 23.24C109.961 22.62 110.111 21.88 110.111 21.02C110.111 20.18 109.961 19.45 109.661 18.83C109.361 18.19 108.941 17.7 108.401 17.36C107.881 17 107.251 16.82 106.511 16.82C105.771 16.82 105.131 16.99 104.591 17.33C104.051 17.67 103.631 18.16 103.331 18.8C103.031 19.44 102.881 20.18 102.881 21.02C102.881 21.88 103.031 22.62 103.331 23.24C103.631 23.86 104.051 24.35 104.591 24.71C105.131 25.05 105.771 25.22 106.511 25.22ZM118.007 29V6.8H122.807V29H118.007ZM134.385 29.3C132.625 29.3 131.095 28.95 129.795 28.25C128.495 27.53 127.485 26.56 126.765 25.34C126.045 24.1 125.685 22.69 125.685 21.11C125.685 19.89 125.885 18.77 126.285 17.75C126.685 16.73 127.245 15.85 127.965 15.11C128.685 14.35 129.535 13.77 130.515 13.37C131.515 12.95 132.605 12.74 133.785 12.74C134.905 12.74 135.925 12.94 136.845 13.34C137.785 13.74 138.595 14.3 139.275 15.02C139.955 15.74 140.475 16.59 140.835 17.57C141.195 18.55 141.355 19.62 141.315 20.78L141.285 22.07H128.595L127.905 19.37H137.385L136.875 19.94V19.34C136.835 18.84 136.675 18.4 136.395 18.02C136.135 17.62 135.785 17.31 135.345 17.09C134.905 16.87 134.405 16.76 133.845 16.76C133.065 16.76 132.395 16.92 131.835 17.24C131.295 17.54 130.885 17.99 130.605 18.59C130.325 19.17 130.185 19.89 130.185 20.75C130.185 21.63 130.365 22.4 130.725 23.06C131.105 23.7 131.645 24.2 132.345 24.56C133.065 24.92 133.915 25.1 134.895 25.1C135.575 25.1 136.175 25 136.695 24.8C137.235 24.6 137.815 24.26 138.435 23.78L140.685 26.96C140.065 27.5 139.405 27.94 138.705 28.28C138.005 28.62 137.285 28.87 136.545 29.03C135.825 29.21 135.105 29.3 134.385 29.3ZM155.993 35.9L159.623 27.35L159.683 29.81L152.003 13.07H157.433L160.793 21.08C160.973 21.48 161.143 21.91 161.303 22.37C161.463 22.83 161.583 23.27 161.663 23.69L161.003 24.08C161.123 23.78 161.253 23.41 161.393 22.97C161.553 22.51 161.723 22.02 161.903 21.5L164.843 13.07H170.303L163.523 29L160.763 35.9H155.993ZM179.883 29.3C178.123 29.3 176.593 28.95 175.293 28.25C173.993 27.53 172.983 26.56 172.263 25.34C171.543 24.1 171.183 22.69 171.183 21.11C171.183 19.89 171.383 18.77 171.783 17.75C172.183 16.73 172.743 15.85 173.463 15.11C174.183 14.35 175.033 13.77 176.013 13.37C177.013 12.95 178.103 12.74 179.283 12.74C180.403 12.74 181.423 12.94 182.343 13.34C183.283 13.74 184.093 14.3 184.773 15.02C185.453 15.74 185.973 16.59 186.333 17.57C186.693 18.55 186.853 19.62 186.813 20.78L186.783 22.07H174.093L173.403 19.37H182.883L182.373 19.94V19.34C182.333 18.84 182.173 18.4 181.893 18.02C181.633 17.62 181.283 17.31 180.843 17.09C180.403 16.87 179.903 16.76 179.343 16.76C178.563 16.76 177.893 16.92 177.333 17.24C176.793 17.54 176.383 17.99 176.103 18.59C175.823 19.17 175.683 19.89 175.683 20.75C175.683 21.63 175.863 22.4 176.223 23.06C176.603 23.7 177.143 24.2 177.843 24.56C178.563 24.92 179.413 25.1 180.393 25.1C181.073 25.1 181.673 25 182.193 24.8C182.733 24.6 183.313 24.26 183.933 23.78L186.183 26.96C185.563 27.5 184.903 27.94 184.203 28.28C183.503 28.62 182.783 28.87 182.043 29.03C181.323 29.21 180.603 29.3 179.883 29.3ZM191.191 29V9.05H195.991V29H191.191ZM188.371 17.27V13.07H199.081V17.27H188.371ZM211.434 35.6V13.07H215.994L216.174 16.64L215.274 16.37C215.414 15.71 215.754 15.11 216.294 14.57C216.834 14.03 217.514 13.6 218.334 13.28C219.174 12.94 220.054 12.77 220.974 12.77C222.334 12.77 223.544 13.13 224.604 13.85C225.664 14.55 226.494 15.52 227.094 16.76C227.714 17.98 228.024 19.4 228.024 21.02C228.024 22.62 227.714 24.04 227.094 25.28C226.494 26.52 225.654 27.5 224.574 28.22C223.514 28.92 222.294 29.27 220.914 29.27C220.014 29.27 219.154 29.1 218.334 28.76C217.514 28.42 216.824 27.96 216.264 27.38C215.704 26.8 215.334 26.17 215.154 25.49L216.264 25.07V35.6H211.434ZM219.744 25.22C220.464 25.22 221.094 25.05 221.634 24.71C222.174 24.35 222.594 23.86 222.894 23.24C223.194 22.62 223.344 21.88 223.344 21.02C223.344 20.18 223.194 19.45 222.894 18.83C222.594 18.19 222.174 17.7 221.634 17.36C221.114 17 220.484 16.82 219.744 16.82C219.004 16.82 218.364 16.99 217.824 17.33C217.284 17.67 216.864 18.16 216.564 18.8C216.264 19.44 216.114 20.18 216.114 21.02C216.114 21.88 216.264 22.62 216.564 23.24C216.864 23.86 217.284 24.35 217.824 24.71C218.364 25.05 219.004 25.22 219.744 25.22ZM238.709 29.3C237.049 29.3 235.569 28.94 234.269 28.22C232.989 27.5 231.969 26.52 231.209 25.28C230.469 24.04 230.099 22.62 230.099 21.02C230.099 19.42 230.469 18 231.209 16.76C231.969 15.52 232.989 14.54 234.269 13.82C235.569 13.1 237.049 12.74 238.709 12.74C240.369 12.74 241.839 13.1 243.119 13.82C244.419 14.54 245.439 15.52 246.179 16.76C246.919 18 247.289 19.42 247.289 21.02C247.289 22.62 246.919 24.04 246.179 25.28C245.439 26.52 244.419 27.5 243.119 28.22C241.839 28.94 240.369 29.3 238.709 29.3ZM238.709 25.16C239.429 25.16 240.069 24.98 240.629 24.62C241.189 24.26 241.629 23.77 241.949 23.15C242.269 22.53 242.419 21.82 242.399 21.02C242.419 20.22 242.269 19.51 241.949 18.89C241.629 18.25 241.189 17.75 240.629 17.39C240.069 17.03 239.429 16.85 238.709 16.85C237.989 16.85 237.339 17.03 236.759 17.39C236.199 17.75 235.759 18.25 235.439 18.89C235.119 19.51 234.969 20.22 234.989 21.02C234.969 21.82 235.119 22.53 235.439 23.15C235.759 23.77 236.199 24.26 236.759 24.62C237.339 24.98 237.989 25.16 238.709 25.16ZM253.322 29L248.072 13.07H253.142L256.082 23.42L255.452 23.3L258.752 15.26H261.572L265.052 23.33L264.362 23.39L267.302 13.07H272.372L266.942 29H263.402L259.952 20.45L260.312 20.51L256.862 29H253.322ZM282.012 29.3C280.252 29.3 278.722 28.95 277.422 28.25C276.122 27.53 275.112 26.56 274.392 25.34C273.672 24.1 273.312 22.69 273.312 21.11C273.312 19.89 273.512 18.77 273.912 17.75C274.312 16.73 274.872 15.85 275.592 15.11C276.312 14.35 277.162 13.77 278.142 13.37C279.142 12.95 280.232 12.74 281.412 12.74C282.532 12.74 283.552 12.94 284.472 13.34C285.412 13.74 286.222 14.3 286.902 15.02C287.582 15.74 288.102 16.59 288.462 17.57C288.822 18.55 288.982 19.62 288.942 20.78L288.912 22.07H276.222L275.532 19.37H285.012L284.502 19.94V19.34C284.462 18.84 284.302 18.4 284.022 18.02C283.762 17.62 283.412 17.31 282.972 17.09C282.532 16.87 282.032 16.76 281.472 16.76C280.692 16.76 280.022 16.92 279.462 17.24C278.922 17.54 278.512 17.99 278.232 18.59C277.952 19.17 277.812 19.89 277.812 20.75C277.812 21.63 277.992 22.4 278.352 23.06C278.732 23.7 279.272 24.2 279.972 24.56C280.692 24.92 281.542 25.1 282.522 25.1C283.202 25.1 283.802 25 284.322 24.8C284.862 24.6 285.442 24.26 286.062 23.78L288.312 26.96C287.692 27.5 287.032 27.94 286.332 28.28C285.632 28.62 284.912 28.87 284.172 29.03C283.452 29.21 282.732 29.3 282.012 29.3ZM292 29V13.07H296.56L296.77 18.26L295.87 17.27C296.11 16.41 296.5 15.64 297.04 14.96C297.6 14.28 298.25 13.74 298.99 13.34C299.73 12.94 300.52 12.74 301.36 12.74C301.72 12.74 302.05 12.77 302.35 12.83C302.67 12.89 302.96 12.96 303.22 13.04L301.9 18.35C301.68 18.21 301.38 18.1 301 18.02C300.64 17.92 300.26 17.87 299.86 17.87C299.42 17.87 299.01 17.95 298.63 18.11C298.25 18.25 297.93 18.46 297.67 18.74C297.41 19.02 297.2 19.35 297.04 19.73C296.9 20.11 296.83 20.54 296.83 21.02V29H292ZM306.642 29V12.29C306.642 11.25 306.862 10.31 307.302 9.47C307.762 8.63 308.392 7.97 309.192 7.49C310.012 6.99 310.962 6.74 312.042 6.74C312.802 6.74 313.502 6.85 314.142 7.07C314.782 7.29 315.352 7.6 315.852 8L314.472 11.51C314.212 11.37 313.962 11.26 313.722 11.18C313.482 11.1 313.262 11.06 313.062 11.06C312.702 11.06 312.402 11.12 312.162 11.24C311.922 11.36 311.742 11.55 311.622 11.81C311.522 12.05 311.472 12.35 311.472 12.71V29H309.072C308.532 29 308.052 29 307.632 29C307.232 29 306.902 29 306.642 29ZM304.332 17.48V13.52H314.742V17.48H304.332ZM322.86 29.33C321.68 29.33 320.67 29.08 319.83 28.58C319.01 28.06 318.37 27.32 317.91 26.36C317.47 25.4 317.25 24.25 317.25 22.91V13.07H322.08V22.25C322.08 22.89 322.18 23.44 322.38 23.9C322.58 24.36 322.88 24.72 323.28 24.98C323.68 25.22 324.16 25.34 324.72 25.34C325.14 25.34 325.52 25.27 325.86 25.13C326.22 24.99 326.52 24.8 326.76 24.56C327.02 24.3 327.22 24.01 327.36 23.69C327.5 23.35 327.57 22.98 327.57 22.58V13.07H332.4V29H327.87L327.66 25.73L328.56 25.37C328.32 26.13 327.92 26.81 327.36 27.41C326.8 27.99 326.13 28.46 325.35 28.82C324.57 29.16 323.74 29.33 322.86 29.33ZM336.708 29V6.8H341.508V29H336.708ZM21.6459 65V44H26.2059L33.8559 56.45L30.5859 56.42L38.3259 44H42.7059V65H37.7559V58.46C37.7559 56.66 37.7959 55.04 37.8759 53.6C37.9759 52.16 38.1359 50.73 38.3559 49.31L38.9259 50.87L33.1059 59.9H31.1259L25.4259 50.93L25.9959 49.31C26.2159 50.65 26.3659 52.03 26.4459 53.45C26.5459 54.85 26.5959 56.52 26.5959 58.46V65H21.6459ZM47.7438 65V49.07H52.5438V65H47.7438ZM50.1438 45.92C49.2438 45.92 48.5338 45.71 48.0138 45.29C47.5138 44.85 47.2638 44.23 47.2638 43.43C47.2638 42.71 47.5238 42.12 48.0438 41.66C48.5638 41.2 49.2638 40.97 50.1438 40.97C51.0438 40.97 51.7438 41.19 52.2438 41.63C52.7438 42.05 52.9938 42.65 52.9938 43.43C52.9938 44.17 52.7338 44.77 52.2138 45.23C51.7138 45.69 51.0238 45.92 50.1438 45.92ZM57.0538 65V49.07H61.6138L61.7638 52.31L60.8038 52.67C61.0238 51.95 61.4138 51.3 61.9738 50.72C62.5538 50.12 63.2438 49.64 64.0438 49.28C64.8438 48.92 65.6838 48.74 66.5638 48.74C67.7638 48.74 68.7738 48.99 69.5938 49.49C70.4138 49.97 71.0338 50.7 71.4538 51.68C71.8738 52.64 72.0838 53.82 72.0838 55.22V65H67.2538V55.61C67.2538 54.97 67.1638 54.44 66.9838 54.02C66.8038 53.6 66.5238 53.29 66.1438 53.09C65.7838 52.87 65.3338 52.77 64.7938 52.79C64.3738 52.79 63.9838 52.86 63.6238 53C63.2638 53.12 62.9538 53.31 62.6938 53.57C62.4338 53.81 62.2238 54.09 62.0638 54.41C61.9238 54.73 61.8538 55.08 61.8538 55.46V65H59.4838C58.9238 65 58.4438 65 58.0438 65C57.6438 65 57.3138 65 57.0538 65ZM81.9768 65.27C80.6368 65.27 79.4368 64.92 78.3768 64.22C77.3368 63.5 76.5068 62.52 75.8868 61.28C75.2668 60.02 74.9568 58.6 74.9568 57.02C74.9568 55.4 75.2668 53.97 75.8868 52.73C76.5068 51.49 77.3568 50.52 78.4368 49.82C79.5168 49.1 80.7468 48.74 82.1268 48.74C82.8868 48.74 83.5768 48.85 84.1968 49.07C84.8368 49.29 85.3968 49.6 85.8768 50C86.3568 50.38 86.7668 50.83 87.1068 51.35C87.4468 51.85 87.6968 52.39 87.8568 52.97L86.8668 52.85V49.07H91.6368V65H86.7768V61.16L87.8568 61.13C87.6968 61.69 87.4368 62.22 87.0768 62.72C86.7168 63.22 86.2768 63.66 85.7568 64.04C85.2368 64.42 84.6568 64.72 84.0168 64.94C83.3768 65.16 82.6968 65.27 81.9768 65.27ZM83.2968 61.22C84.0368 61.22 84.6768 61.05 85.2168 60.71C85.7568 60.37 86.1768 59.89 86.4768 59.27C86.7768 58.63 86.9268 57.88 86.9268 57.02C86.9268 56.16 86.7768 55.42 86.4768 54.8C86.1768 54.16 85.7568 53.67 85.2168 53.33C84.6768 52.97 84.0368 52.79 83.2968 52.79C82.5768 52.79 81.9468 52.97 81.4068 53.33C80.8868 53.67 80.4768 54.16 80.1768 54.8C79.8768 55.42 79.7268 56.16 79.7268 57.02C79.7268 57.88 79.8768 58.63 80.1768 59.27C80.4768 59.89 80.8868 60.37 81.4068 60.71C81.9468 61.05 82.5768 61.22 83.2968 61.22ZM105.992 65V44H115.052C116.372 44 117.542 44.3 118.562 44.9C119.602 45.5 120.422 46.32 121.022 47.36C121.642 48.4 121.952 49.57 121.952 50.87C121.952 52.23 121.642 53.45 121.022 54.53C120.422 55.59 119.602 56.43 118.562 57.05C117.542 57.67 116.372 57.98 115.052 57.98H111.092V65H105.992ZM111.002 53.51H114.332C114.772 53.51 115.172 53.4 115.532 53.18C115.892 52.96 116.182 52.66 116.402 52.28C116.622 51.9 116.732 51.46 116.732 50.96C116.732 50.44 116.622 50 116.402 49.64C116.182 49.28 115.892 49 115.532 48.8C115.172 48.6 114.772 48.5 114.332 48.5H111.002V53.51ZM125.345 65V49.07H129.905L130.115 54.26L129.215 53.27C129.455 52.41 129.845 51.64 130.385 50.96C130.945 50.28 131.595 49.74 132.335 49.34C133.075 48.94 133.865 48.74 134.705 48.74C135.065 48.74 135.395 48.77 135.695 48.83C136.015 48.89 136.305 48.96 136.565 49.04L135.245 54.35C135.025 54.21 134.725 54.1 134.345 54.02C133.985 53.92 133.605 53.87 133.205 53.87C132.765 53.87 132.355 53.95 131.975 54.11C131.595 54.25 131.275 54.46 131.015 54.74C130.755 55.02 130.545 55.35 130.385 55.73C130.245 56.11 130.175 56.54 130.175 57.02V65H125.345ZM145.823 65.3C144.163 65.3 142.683 64.94 141.383 64.22C140.103 63.5 139.083 62.52 138.323 61.28C137.583 60.04 137.213 58.62 137.213 57.02C137.213 55.42 137.583 54 138.323 52.76C139.083 51.52 140.103 50.54 141.383 49.82C142.683 49.1 144.163 48.74 145.823 48.74C147.483 48.74 148.953 49.1 150.233 49.82C151.533 50.54 152.553 51.52 153.293 52.76C154.033 54 154.403 55.42 154.403 57.02C154.403 58.62 154.033 60.04 153.293 61.28C152.553 62.52 151.533 63.5 150.233 64.22C148.953 64.94 147.483 65.3 145.823 65.3ZM145.823 61.16C146.543 61.16 147.183 60.98 147.743 60.62C148.303 60.26 148.743 59.77 149.063 59.15C149.383 58.53 149.533 57.82 149.513 57.02C149.533 56.22 149.383 55.51 149.063 54.89C148.743 54.25 148.303 53.75 147.743 53.39C147.183 53.03 146.543 52.85 145.823 52.85C145.103 52.85 144.453 53.03 143.873 53.39C143.313 53.75 142.873 54.25 142.553 54.89C142.233 55.51 142.083 56.22 142.103 57.02C142.083 57.82 142.233 58.53 142.553 59.15C142.873 59.77 143.313 60.26 143.873 60.62C144.453 60.98 145.103 61.16 145.823 61.16ZM158.862 65V45.05H163.662V65H158.862ZM156.042 53.27V49.07H166.752V53.27H156.042ZM176.849 65.3C175.189 65.3 173.709 64.94 172.409 64.22C171.129 63.5 170.109 62.52 169.349 61.28C168.609 60.04 168.239 58.62 168.239 57.02C168.239 55.42 168.609 54 169.349 52.76C170.109 51.52 171.129 50.54 172.409 49.82C173.709 49.1 175.189 48.74 176.849 48.74C178.509 48.74 179.979 49.1 181.259 49.82C182.559 50.54 183.579 51.52 184.319 52.76C185.059 54 185.429 55.42 185.429 57.02C185.429 58.62 185.059 60.04 184.319 61.28C183.579 62.52 182.559 63.5 181.259 64.22C179.979 64.94 178.509 65.3 176.849 65.3ZM176.849 61.16C177.569 61.16 178.209 60.98 178.769 60.62C179.329 60.26 179.769 59.77 180.089 59.15C180.409 58.53 180.559 57.82 180.539 57.02C180.559 56.22 180.409 55.51 180.089 54.89C179.769 54.25 179.329 53.75 178.769 53.39C178.209 53.03 177.569 52.85 176.849 52.85C176.129 52.85 175.479 53.03 174.899 53.39C174.339 53.75 173.899 54.25 173.579 54.89C173.259 55.51 173.109 56.22 173.129 57.02C173.109 57.82 173.259 58.53 173.579 59.15C173.899 59.77 174.339 60.26 174.899 60.62C175.479 60.98 176.129 61.16 176.849 61.16ZM195.558 65.3C194.018 65.3 192.638 64.94 191.418 64.22C190.198 63.5 189.228 62.52 188.508 61.28C187.808 60.02 187.458 58.6 187.458 57.02C187.458 55.44 187.808 54.03 188.508 52.79C189.228 51.53 190.198 50.54 191.418 49.82C192.638 49.1 194.018 48.74 195.558 48.74C196.978 48.74 198.278 48.99 199.458 49.49C200.658 49.99 201.608 50.69 202.308 51.59L199.698 54.71C199.418 54.39 199.088 54.09 198.708 53.81C198.328 53.53 197.908 53.31 197.448 53.15C196.988 52.99 196.508 52.91 196.008 52.91C195.248 52.91 194.578 53.09 193.998 53.45C193.418 53.79 192.968 54.27 192.648 54.89C192.328 55.51 192.168 56.22 192.168 57.02C192.168 57.78 192.328 58.47 192.648 59.09C192.988 59.71 193.448 60.2 194.028 60.56C194.608 60.92 195.268 61.1 196.008 61.1C196.528 61.1 197.008 61.04 197.448 60.92C197.888 60.78 198.288 60.58 198.648 60.32C199.028 60.06 199.378 59.74 199.698 59.36L202.277 62.51C201.598 63.37 200.648 64.05 199.428 64.55C198.228 65.05 196.938 65.3 195.558 65.3ZM212.415 65.3C210.755 65.3 209.275 64.94 207.975 64.22C206.695 63.5 205.675 62.52 204.915 61.28C204.175 60.04 203.805 58.62 203.805 57.02C203.805 55.42 204.175 54 204.915 52.76C205.675 51.52 206.695 50.54 207.975 49.82C209.275 49.1 210.755 48.74 212.415 48.74C214.075 48.74 215.545 49.1 216.825 49.82C218.125 50.54 219.145 51.52 219.885 52.76C220.625 54 220.995 55.42 220.995 57.02C220.995 58.62 220.625 60.04 219.885 61.28C219.145 62.52 218.125 63.5 216.825 64.22C215.545 64.94 214.075 65.3 212.415 65.3ZM212.415 61.16C213.135 61.16 213.775 60.98 214.335 60.62C214.895 60.26 215.335 59.77 215.655 59.15C215.975 58.53 216.125 57.82 216.105 57.02C216.125 56.22 215.975 55.51 215.655 54.89C215.335 54.25 214.895 53.75 214.335 53.39C213.775 53.03 213.135 52.85 212.415 52.85C211.695 52.85 211.045 53.03 210.465 53.39C209.905 53.75 209.465 54.25 209.145 54.89C208.825 55.51 208.675 56.22 208.695 57.02C208.675 57.82 208.825 58.53 209.145 59.15C209.465 59.77 209.905 60.26 210.465 60.62C211.045 60.98 211.695 61.16 212.415 61.16ZM224.164 65V42.8H228.964V65H224.164ZM247.145 65L240.845 44H246.035L249.185 55.04C249.325 55.54 249.445 56.05 249.545 56.57C249.665 57.07 249.755 57.55 249.815 58.01C249.895 58.47 249.955 58.9 249.995 59.3C250.035 59.68 250.075 60 250.115 60.26H249.455C249.575 59.52 249.675 58.86 249.755 58.28C249.855 57.7 249.965 57.16 250.085 56.66C250.205 56.14 250.355 55.6 250.535 55.04L253.655 46.73H257.735L260.795 55.04C261.035 55.7 261.235 56.32 261.395 56.9C261.555 57.48 261.675 58.04 261.755 58.58C261.855 59.1 261.935 59.62 261.995 60.14L261.395 60.23C261.435 59.87 261.465 59.54 261.485 59.24C261.505 58.92 261.525 58.62 261.545 58.34C261.585 58.04 261.625 57.73 261.665 57.41C261.705 57.09 261.765 56.74 261.845 56.36C261.925 55.96 262.035 55.51 262.175 55.01L265.295 44H270.365L264.065 65H260.165L255.185 52.91L255.755 52.97L251.165 65H247.145ZM277.768 65.27C276.428 65.27 275.228 64.92 274.168 64.22C273.128 63.5 272.298 62.52 271.678 61.28C271.058 60.02 270.748 58.6 270.748 57.02C270.748 55.4 271.058 53.97 271.678 52.73C272.298 51.49 273.148 50.52 274.228 49.82C275.308 49.1 276.538 48.74 277.918 48.74C278.678 48.74 279.368 48.85 279.988 49.07C280.628 49.29 281.188 49.6 281.668 50C282.148 50.38 282.558 50.83 282.898 51.35C283.238 51.85 283.488 52.39 283.648 52.97L282.658 52.85V49.07H287.428V65H282.568V61.16L283.648 61.13C283.488 61.69 283.228 62.22 282.868 62.72C282.508 63.22 282.068 63.66 281.548 64.04C281.028 64.42 280.448 64.72 279.808 64.94C279.168 65.16 278.488 65.27 277.768 65.27ZM279.088 61.22C279.828 61.22 280.468 61.05 281.008 60.71C281.548 60.37 281.968 59.89 282.268 59.27C282.568 58.63 282.718 57.88 282.718 57.02C282.718 56.16 282.568 55.42 282.268 54.8C281.968 54.16 281.548 53.67 281.008 53.33C280.468 52.97 279.828 52.79 279.088 52.79C278.368 52.79 277.738 52.97 277.198 53.33C276.678 53.67 276.268 54.16 275.968 54.8C275.668 55.42 275.518 56.16 275.518 57.02C275.518 57.88 275.668 58.63 275.968 59.27C276.268 59.89 276.678 60.37 277.198 60.71C277.738 61.05 278.368 61.22 279.088 61.22ZM291.693 65V42.8H296.493V65H291.693ZM300.805 65V42.8H305.605V65H300.805ZM317.183 65.3C315.423 65.3 313.893 64.95 312.593 64.25C311.293 63.53 310.283 62.56 309.563 61.34C308.843 60.1 308.483 58.69 308.483 57.11C308.483 55.89 308.683 54.77 309.083 53.75C309.483 52.73 310.043 51.85 310.763 51.11C311.483 50.35 312.333 49.77 313.313 49.37C314.313 48.95 315.403 48.74 316.583 48.74C317.703 48.74 318.723 48.94 319.643 49.34C320.583 49.74 321.393 50.3 322.073 51.02C322.753 51.74 323.273 52.59 323.633 53.57C323.993 54.55 324.153 55.62 324.113 56.78L324.083 58.07H311.393L310.703 55.37H320.183L319.673 55.94V55.34C319.633 54.84 319.473 54.4 319.193 54.02C318.933 53.62 318.583 53.31 318.143 53.09C317.703 52.87 317.203 52.76 316.643 52.76C315.863 52.76 315.193 52.92 314.633 53.24C314.093 53.54 313.683 53.99 313.403 54.59C313.123 55.17 312.983 55.89 312.983 56.75C312.983 57.63 313.163 58.4 313.523 59.06C313.903 59.7 314.443 60.2 315.143 60.56C315.863 60.92 316.713 61.1 317.693 61.1C318.373 61.1 318.973 61 319.493 60.8C320.033 60.6 320.613 60.26 321.233 59.78L323.483 62.96C322.863 63.5 322.203 63.94 321.503 64.28C320.803 64.62 320.083 64.87 319.343 65.03C318.623 65.21 317.903 65.3 317.183 65.3ZM328.491 65V45.05H333.291V65H328.491ZM325.671 53.27V49.07H336.381V53.27H325.671Z" fill="black"/>
<defs>
<linearGradient id="paint0_linear_8320_13511" x1="23.0377" y1="61.9999" x2="217.641" y2="62.0002" gradientUnits="userSpaceOnUse">
<stop stop-color="#594AF1"/>
<stop offset="1" stop-color="#FF6B6B"/>
</linearGradient>
</defs>
</svg>
