<svg width="330" height="62" viewBox="0 0 330 62" fill="none" xmlns="http://www.w3.org/2000/svg">
<path d="M0.31082 25L8.62082 4H12.9408L21.1908 25H16.0308L12.0708 14.35C11.9108 13.93 11.7508 13.48 11.5908 13C11.4308 12.52 11.2708 12.03 11.1108 11.53C10.9508 11.01 10.7908 10.51 10.6308 10.03C10.4908 9.53 10.3708 9.07 10.2708 8.65L11.1708 8.62C11.0508 9.12 10.9108 9.61 10.7508 10.09C10.6108 10.57 10.4608 11.05 10.3008 11.53C10.1608 11.99 10.0008 12.46 9.82082 12.94C9.64082 13.4 9.47082 13.88 9.31082 14.38L5.35082 25H0.31082ZM4.27082 20.98L5.86082 17.14H15.5208L17.0808 20.98H4.27082ZM38.2803 25.3C36.7203 25.3 35.3403 25.05 34.1403 24.55C32.9603 24.05 32.0203 23.38 31.3203 22.54L34.2303 20.02C34.8503 20.64 35.5503 21.1 36.3303 21.4C37.1103 21.68 37.8503 21.82 38.5503 21.82C38.8303 21.82 39.0803 21.79 39.3003 21.73C39.5203 21.67 39.7003 21.59 39.8403 21.49C40.0003 21.37 40.1203 21.24 40.2003 21.1C40.2803 20.94 40.3203 20.76 40.3203 20.56C40.3203 20.16 40.1403 19.85 39.7803 19.63C39.6003 19.53 39.3003 19.41 38.8803 19.27C38.4603 19.13 37.9203 18.97 37.2603 18.79C36.3203 18.55 35.5003 18.27 34.8003 17.95C34.1203 17.61 33.5603 17.22 33.1203 16.78C32.7203 16.36 32.4103 15.9 32.1903 15.4C31.9703 14.88 31.8603 14.3 31.8603 13.66C31.8603 12.92 32.0303 12.25 32.3703 11.65C32.7303 11.05 33.2003 10.53 33.7803 10.09C34.3803 9.65 35.0603 9.32 35.8203 9.1C36.6003 8.86 37.4003 8.74 38.2203 8.74C39.1003 8.74 39.9403 8.84 40.7403 9.04C41.5403 9.24 42.2803 9.52 42.9603 9.88C43.6603 10.24 44.2803 10.67 44.8203 11.17L42.3003 13.99C41.9403 13.65 41.5303 13.35 41.0703 13.09C40.6303 12.81 40.1703 12.59 39.6903 12.43C39.2103 12.27 38.7703 12.19 38.3703 12.19C38.0703 12.19 37.8003 12.22 37.5603 12.28C37.3403 12.32 37.1503 12.4 36.9903 12.52C36.8303 12.62 36.7103 12.75 36.6303 12.91C36.5503 13.05 36.5103 13.22 36.5103 13.42C36.5103 13.62 36.5603 13.81 36.6603 13.99C36.7803 14.17 36.9403 14.32 37.1403 14.44C37.3403 14.56 37.6603 14.7 38.1003 14.86C38.5403 15 39.1403 15.18 39.9003 15.4C40.8403 15.66 41.6503 15.95 42.3303 16.27C43.0103 16.59 43.5503 16.97 43.9503 17.41C44.2703 17.75 44.5103 18.15 44.6703 18.61C44.8303 19.05 44.9103 19.53 44.9103 20.05C44.9103 21.07 44.6203 21.98 44.0403 22.78C43.4803 23.56 42.7003 24.18 41.7003 24.64C40.7003 25.08 39.5603 25.3 38.2803 25.3ZM48.0338 25V9.07H52.8338V25H48.0338ZM50.4338 5.92C49.5338 5.92 48.8238 5.71 48.3038 5.29C47.8038 4.85 47.5538 4.23 47.5538 3.43C47.5538 2.71 47.8138 2.12 48.3338 1.66C48.8538 1.2 49.5538 0.969998 50.4338 0.969998C51.3338 0.969998 52.0338 1.19 52.5338 1.63C53.0338 2.05 53.2838 2.65 53.2838 3.43C53.2838 4.17 53.0238 4.77 52.5038 5.23C52.0038 5.69 51.3138 5.92 50.4338 5.92ZM57.3139 25V9.07H61.8739L62.0239 11.95L61.3939 11.98C61.6339 11.46 61.9339 11 62.2939 10.6C62.6739 10.2 63.0939 9.87 63.5539 9.61C64.0339 9.33 64.5239 9.12 65.0239 8.98C65.5439 8.84 66.0639 8.77 66.5839 8.77C67.3639 8.77 68.0739 8.89 68.7139 9.13C69.3539 9.37 69.9139 9.76 70.3939 10.3C70.8739 10.82 71.2539 11.53 71.5339 12.43L70.7839 12.37L71.0239 11.89C71.2839 11.41 71.6139 10.98 72.0139 10.6C72.4339 10.2 72.8939 9.87 73.3939 9.61C73.8939 9.33 74.4139 9.12 74.9539 8.98C75.4939 8.84 76.0139 8.77 76.5139 8.77C77.7739 8.77 78.8239 9.02 79.6639 9.52C80.5039 10 81.1339 10.73 81.5539 11.71C81.9939 12.69 82.2139 13.88 82.2139 15.28V25H77.3839V15.67C77.3839 15.03 77.2939 14.5 77.1139 14.08C76.9339 13.66 76.6639 13.35 76.3039 13.15C75.9639 12.93 75.5339 12.82 75.0139 12.82C74.5939 12.82 74.2039 12.89 73.8439 13.03C73.5039 13.17 73.2039 13.36 72.9439 13.6C72.7039 13.84 72.5139 14.12 72.3739 14.44C72.2339 14.76 72.1639 15.12 72.1639 15.52V25H67.3339V15.64C67.3339 15.04 67.2439 14.53 67.0639 14.11C66.8839 13.69 66.6139 13.37 66.2539 13.15C65.8939 12.93 65.4739 12.82 64.9939 12.82C64.5739 12.82 64.1839 12.89 63.8239 13.03C63.4839 13.17 63.1839 13.36 62.9239 13.6C62.6839 13.84 62.4939 14.12 62.3539 14.44C62.2139 14.76 62.1439 15.11 62.1439 15.49V25H57.3139ZM86.2013 31.6V9.07H90.7613L90.9413 12.64L90.0413 12.37C90.1813 11.71 90.5213 11.11 91.0613 10.57C91.6013 10.03 92.2813 9.6 93.1013 9.28C93.9413 8.94 94.8213 8.77 95.7413 8.77C97.1013 8.77 98.3113 9.13 99.3713 9.85C100.431 10.55 101.261 11.52 101.861 12.76C102.481 13.98 102.791 15.4 102.791 17.02C102.791 18.62 102.481 20.04 101.861 21.28C101.261 22.52 100.421 23.5 99.3413 24.22C98.2813 24.92 97.0613 25.27 95.6813 25.27C94.7813 25.27 93.9213 25.1 93.1013 24.76C92.2813 24.42 91.5913 23.96 91.0313 23.38C90.4713 22.8 90.1013 22.17 89.9213 21.49L91.0313 21.07V31.6H86.2013ZM94.5113 21.22C95.2313 21.22 95.8613 21.05 96.4013 20.71C96.9413 20.35 97.3613 19.86 97.6613 19.24C97.9613 18.62 98.1113 17.88 98.1113 17.02C98.1113 16.18 97.9613 15.45 97.6613 14.83C97.3613 14.19 96.9413 13.7 96.4013 13.36C95.8813 13 95.2513 12.82 94.5113 12.82C93.7713 12.82 93.1313 12.99 92.5913 13.33C92.0513 13.67 91.6313 14.16 91.3313 14.8C91.0313 15.44 90.8813 16.18 90.8813 17.02C90.8813 17.88 91.0313 18.62 91.3313 19.24C91.6313 19.86 92.0513 20.35 92.5913 20.71C93.1313 21.05 93.7713 21.22 94.5113 21.22ZM106.007 25V2.8H110.807V25H106.007ZM122.385 25.3C120.625 25.3 119.095 24.95 117.795 24.25C116.495 23.53 115.485 22.56 114.765 21.34C114.045 20.1 113.685 18.69 113.685 17.11C113.685 15.89 113.885 14.77 114.285 13.75C114.685 12.73 115.245 11.85 115.965 11.11C116.685 10.35 117.535 9.77 118.515 9.37C119.515 8.95 120.605 8.74 121.785 8.74C122.905 8.74 123.925 8.94 124.845 9.34C125.785 9.74 126.595 10.3 127.275 11.02C127.955 11.74 128.475 12.59 128.835 13.57C129.195 14.55 129.355 15.62 129.315 16.78L129.285 18.07H116.595L115.905 15.37H125.385L124.875 15.94V15.34C124.835 14.84 124.675 14.4 124.395 14.02C124.135 13.62 123.785 13.31 123.345 13.09C122.905 12.87 122.405 12.76 121.845 12.76C121.065 12.76 120.395 12.92 119.835 13.24C119.295 13.54 118.885 13.99 118.605 14.59C118.325 15.17 118.185 15.89 118.185 16.75C118.185 17.63 118.365 18.4 118.725 19.06C119.105 19.7 119.645 20.2 120.345 20.56C121.065 20.92 121.915 21.1 122.895 21.1C123.575 21.1 124.175 21 124.695 20.8C125.235 20.6 125.815 20.26 126.435 19.78L128.685 22.96C128.065 23.5 127.405 23.94 126.705 24.28C126.005 24.62 125.285 24.87 124.545 25.03C123.825 25.21 123.105 25.3 122.385 25.3ZM143.993 31.9L147.623 23.35L147.683 25.81L140.003 9.07H145.433L148.793 17.08C148.973 17.48 149.143 17.91 149.303 18.37C149.463 18.83 149.583 19.27 149.663 19.69L149.003 20.08C149.123 19.78 149.253 19.41 149.393 18.97C149.553 18.51 149.723 18.02 149.903 17.5L152.843 9.07H158.303L151.523 25L148.763 31.9H143.993ZM167.883 25.3C166.123 25.3 164.593 24.95 163.293 24.25C161.993 23.53 160.983 22.56 160.263 21.34C159.543 20.1 159.183 18.69 159.183 17.11C159.183 15.89 159.383 14.77 159.783 13.75C160.183 12.73 160.743 11.85 161.463 11.11C162.183 10.35 163.033 9.77 164.013 9.37C165.013 8.95 166.103 8.74 167.283 8.74C168.403 8.74 169.423 8.94 170.343 9.34C171.283 9.74 172.093 10.3 172.773 11.02C173.453 11.74 173.973 12.59 174.333 13.57C174.693 14.55 174.853 15.62 174.813 16.78L174.783 18.07H162.093L161.403 15.37H170.883L170.373 15.94V15.34C170.333 14.84 170.173 14.4 169.893 14.02C169.633 13.62 169.283 13.31 168.843 13.09C168.403 12.87 167.903 12.76 167.343 12.76C166.563 12.76 165.893 12.92 165.333 13.24C164.793 13.54 164.383 13.99 164.103 14.59C163.823 15.17 163.683 15.89 163.683 16.75C163.683 17.63 163.863 18.4 164.223 19.06C164.603 19.7 165.143 20.2 165.843 20.56C166.563 20.92 167.413 21.1 168.393 21.1C169.073 21.1 169.673 21 170.193 20.8C170.733 20.6 171.313 20.26 171.933 19.78L174.183 22.96C173.563 23.5 172.903 23.94 172.203 24.28C171.503 24.62 170.783 24.87 170.043 25.03C169.323 25.21 168.603 25.3 167.883 25.3ZM179.191 25V5.05H183.991V25H179.191ZM176.371 13.27V9.07H187.081V13.27H176.371ZM199.434 31.6V9.07H203.994L204.174 12.64L203.274 12.37C203.414 11.71 203.754 11.11 204.294 10.57C204.834 10.03 205.514 9.6 206.334 9.28C207.174 8.94 208.054 8.77 208.974 8.77C210.334 8.77 211.544 9.13 212.604 9.85C213.664 10.55 214.494 11.52 215.094 12.76C215.714 13.98 216.024 15.4 216.024 17.02C216.024 18.62 215.714 20.04 215.094 21.28C214.494 22.52 213.654 23.5 212.574 24.22C211.514 24.92 210.294 25.27 208.914 25.27C208.014 25.27 207.154 25.1 206.334 24.76C205.514 24.42 204.824 23.96 204.264 23.38C203.704 22.8 203.334 22.17 203.154 21.49L204.264 21.07V31.6H199.434ZM207.744 21.22C208.464 21.22 209.094 21.05 209.634 20.71C210.174 20.35 210.594 19.86 210.894 19.24C211.194 18.62 211.344 17.88 211.344 17.02C211.344 16.18 211.194 15.45 210.894 14.83C210.594 14.19 210.174 13.7 209.634 13.36C209.114 13 208.484 12.82 207.744 12.82C207.004 12.82 206.364 12.99 205.824 13.33C205.284 13.67 204.864 14.16 204.564 14.8C204.264 15.44 204.114 16.18 204.114 17.02C204.114 17.88 204.264 18.62 204.564 19.24C204.864 19.86 205.284 20.35 205.824 20.71C206.364 21.05 207.004 21.22 207.744 21.22ZM226.709 25.3C225.049 25.3 223.569 24.94 222.269 24.22C220.989 23.5 219.969 22.52 219.209 21.28C218.469 20.04 218.099 18.62 218.099 17.02C218.099 15.42 218.469 14 219.209 12.76C219.969 11.52 220.989 10.54 222.269 9.82C223.569 9.1 225.049 8.74 226.709 8.74C228.369 8.74 229.839 9.1 231.119 9.82C232.419 10.54 233.439 11.52 234.179 12.76C234.919 14 235.289 15.42 235.289 17.02C235.289 18.62 234.919 20.04 234.179 21.28C233.439 22.52 232.419 23.5 231.119 24.22C229.839 24.94 228.369 25.3 226.709 25.3ZM226.709 21.16C227.429 21.16 228.069 20.98 228.629 20.62C229.189 20.26 229.629 19.77 229.949 19.15C230.269 18.53 230.419 17.82 230.399 17.02C230.419 16.22 230.269 15.51 229.949 14.89C229.629 14.25 229.189 13.75 228.629 13.39C228.069 13.03 227.429 12.85 226.709 12.85C225.989 12.85 225.339 13.03 224.759 13.39C224.199 13.75 223.759 14.25 223.439 14.89C223.119 15.51 222.969 16.22 222.989 17.02C222.969 17.82 223.119 18.53 223.439 19.15C223.759 19.77 224.199 20.26 224.759 20.62C225.339 20.98 225.989 21.16 226.709 21.16ZM241.322 25L236.072 9.07H241.142L244.082 19.42L243.452 19.3L246.752 11.26H249.572L253.052 19.33L252.362 19.39L255.302 9.07H260.372L254.942 25H251.402L247.952 16.45L248.312 16.51L244.862 25H241.322ZM270.012 25.3C268.252 25.3 266.722 24.95 265.422 24.25C264.122 23.53 263.112 22.56 262.392 21.34C261.672 20.1 261.312 18.69 261.312 17.11C261.312 15.89 261.512 14.77 261.912 13.75C262.312 12.73 262.872 11.85 263.592 11.11C264.312 10.35 265.162 9.77 266.142 9.37C267.142 8.95 268.232 8.74 269.412 8.74C270.532 8.74 271.552 8.94 272.472 9.34C273.412 9.74 274.222 10.3 274.902 11.02C275.582 11.74 276.102 12.59 276.462 13.57C276.822 14.55 276.982 15.62 276.942 16.78L276.912 18.07H264.222L263.532 15.37H273.012L272.502 15.94V15.34C272.462 14.84 272.302 14.4 272.022 14.02C271.762 13.62 271.412 13.31 270.972 13.09C270.532 12.87 270.032 12.76 269.472 12.76C268.692 12.76 268.022 12.92 267.462 13.24C266.922 13.54 266.512 13.99 266.232 14.59C265.952 15.17 265.812 15.89 265.812 16.75C265.812 17.63 265.992 18.4 266.352 19.06C266.732 19.7 267.272 20.2 267.972 20.56C268.692 20.92 269.542 21.1 270.522 21.1C271.202 21.1 271.802 21 272.322 20.8C272.862 20.6 273.442 20.26 274.062 19.78L276.312 22.96C275.692 23.5 275.032 23.94 274.332 24.28C273.632 24.62 272.912 24.87 272.172 25.03C271.452 25.21 270.732 25.3 270.012 25.3ZM280 25V9.07H284.56L284.77 14.26L283.87 13.27C284.11 12.41 284.5 11.64 285.04 10.96C285.6 10.28 286.25 9.74 286.99 9.34C287.73 8.94 288.52 8.74 289.36 8.74C289.72 8.74 290.05 8.77 290.35 8.83C290.67 8.89 290.96 8.96 291.22 9.04L289.9 14.35C289.68 14.21 289.38 14.1 289 14.02C288.64 13.92 288.26 13.87 287.86 13.87C287.42 13.87 287.01 13.95 286.63 14.11C286.25 14.25 285.93 14.46 285.67 14.74C285.41 15.02 285.2 15.35 285.04 15.73C284.9 16.11 284.83 16.54 284.83 17.02V25H280ZM294.642 25V8.29C294.642 7.25 294.862 6.31 295.302 5.47C295.762 4.63 296.392 3.97 297.192 3.49C298.012 2.99 298.962 2.74 300.042 2.74C300.802 2.74 301.502 2.85 302.142 3.07C302.782 3.29 303.352 3.6 303.852 4L302.472 7.51C302.212 7.37 301.962 7.26 301.722 7.18C301.482 7.1 301.262 7.06 301.062 7.06C300.702 7.06 300.402 7.12 300.162 7.24C299.922 7.36 299.742 7.55 299.622 7.81C299.522 8.05 299.472 8.35 299.472 8.71V25H297.072C296.532 25 296.052 25 295.632 25C295.232 25 294.902 25 294.642 25ZM292.332 13.48V9.52H302.742V13.48H292.332ZM310.86 25.33C309.68 25.33 308.67 25.08 307.83 24.58C307.01 24.06 306.37 23.32 305.91 22.36C305.47 21.4 305.25 20.25 305.25 18.91V9.07H310.08V18.25C310.08 18.89 310.18 19.44 310.38 19.9C310.58 20.36 310.88 20.72 311.28 20.98C311.68 21.22 312.16 21.34 312.72 21.34C313.14 21.34 313.52 21.27 313.86 21.13C314.22 20.99 314.52 20.8 314.76 20.56C315.02 20.3 315.22 20.01 315.36 19.69C315.5 19.35 315.57 18.98 315.57 18.58V9.07H320.4V25H315.87L315.66 21.73L316.56 21.37C316.32 22.13 315.92 22.81 315.36 23.41C314.8 23.99 314.13 24.46 313.35 24.82C312.57 25.16 311.74 25.33 310.86 25.33ZM324.708 25V2.8H329.508V25H324.708ZM9.64586 61V40H14.2059L21.8559 52.45L18.5859 52.42L26.3259 40H30.7059V61H25.7559V54.46C25.7559 52.66 25.7959 51.04 25.8759 49.6C25.9759 48.16 26.1359 46.73 26.3559 45.31L26.9259 46.87L21.1059 55.9H19.1259L13.4259 46.93L13.9959 45.31C14.2159 46.65 14.3659 48.03 14.4459 49.45C14.5459 50.85 14.5959 52.52 14.5959 54.46V61H9.64586ZM35.7438 61V45.07H40.5438V61H35.7438ZM38.1438 41.92C37.2438 41.92 36.5338 41.71 36.0138 41.29C35.5138 40.85 35.2638 40.23 35.2638 39.43C35.2638 38.71 35.5238 38.12 36.0438 37.66C36.5638 37.2 37.2638 36.97 38.1438 36.97C39.0438 36.97 39.7438 37.19 40.2438 37.63C40.7438 38.05 40.9938 38.65 40.9938 39.43C40.9938 40.17 40.7338 40.77 40.2138 41.23C39.7138 41.69 39.0238 41.92 38.1438 41.92ZM45.0538 61V45.07H49.6138L49.7638 48.31L48.8038 48.67C49.0238 47.95 49.4138 47.3 49.9738 46.72C50.5538 46.12 51.2438 45.64 52.0438 45.28C52.8438 44.92 53.6838 44.74 54.5638 44.74C55.7638 44.74 56.7738 44.99 57.5938 45.49C58.4138 45.97 59.0338 46.7 59.4538 47.68C59.8738 48.64 60.0838 49.82 60.0838 51.22V61H55.2538V51.61C55.2538 50.97 55.1638 50.44 54.9838 50.02C54.8038 49.6 54.5238 49.29 54.1438 49.09C53.7838 48.87 53.3338 48.77 52.7938 48.79C52.3738 48.79 51.9838 48.86 51.6238 49C51.2638 49.12 50.9538 49.31 50.6938 49.57C50.4338 49.81 50.2238 50.09 50.0638 50.41C49.9238 50.73 49.8538 51.08 49.8538 51.46V61H47.4838C46.9238 61 46.4438 61 46.0438 61C45.6438 61 45.3138 61 45.0538 61ZM69.9768 61.27C68.6368 61.27 67.4368 60.92 66.3768 60.22C65.3368 59.5 64.5068 58.52 63.8868 57.28C63.2668 56.02 62.9568 54.6 62.9568 53.02C62.9568 51.4 63.2668 49.97 63.8868 48.73C64.5068 47.49 65.3568 46.52 66.4368 45.82C67.5168 45.1 68.7468 44.74 70.1268 44.74C70.8868 44.74 71.5768 44.85 72.1968 45.07C72.8368 45.29 73.3968 45.6 73.8768 46C74.3568 46.38 74.7668 46.83 75.1068 47.35C75.4468 47.85 75.6968 48.39 75.8568 48.97L74.8668 48.85V45.07H79.6368V61H74.7768V57.16L75.8568 57.13C75.6968 57.69 75.4368 58.22 75.0768 58.72C74.7168 59.22 74.2768 59.66 73.7568 60.04C73.2368 60.42 72.6568 60.72 72.0168 60.94C71.3768 61.16 70.6968 61.27 69.9768 61.27ZM71.2968 57.22C72.0368 57.22 72.6768 57.05 73.2168 56.71C73.7568 56.37 74.1768 55.89 74.4768 55.27C74.7768 54.63 74.9268 53.88 74.9268 53.02C74.9268 52.16 74.7768 51.42 74.4768 50.8C74.1768 50.16 73.7568 49.67 73.2168 49.33C72.6768 48.97 72.0368 48.79 71.2968 48.79C70.5768 48.79 69.9468 48.97 69.4068 49.33C68.8868 49.67 68.4768 50.16 68.1768 50.8C67.8768 51.42 67.7268 52.16 67.7268 53.02C67.7268 53.88 67.8768 54.63 68.1768 55.27C68.4768 55.89 68.8868 56.37 69.4068 56.71C69.9468 57.05 70.5768 57.22 71.2968 57.22ZM93.9916 61V40H103.052C104.372 40 105.542 40.3 106.562 40.9C107.602 41.5 108.422 42.32 109.022 43.36C109.642 44.4 109.952 45.57 109.952 46.87C109.952 48.23 109.642 49.45 109.022 50.53C108.422 51.59 107.602 52.43 106.562 53.05C105.542 53.67 104.372 53.98 103.052 53.98H99.0916V61H93.9916ZM99.0016 49.51H102.332C102.772 49.51 103.172 49.4 103.532 49.18C103.892 48.96 104.182 48.66 104.402 48.28C104.622 47.9 104.732 47.46 104.732 46.96C104.732 46.44 104.622 46 104.402 45.64C104.182 45.28 103.892 45 103.532 44.8C103.172 44.6 102.772 44.5 102.332 44.5H99.0016V49.51ZM113.345 61V45.07H117.905L118.115 50.26L117.215 49.27C117.455 48.41 117.845 47.64 118.385 46.96C118.945 46.28 119.595 45.74 120.335 45.34C121.075 44.94 121.865 44.74 122.705 44.74C123.065 44.74 123.395 44.77 123.695 44.83C124.015 44.89 124.305 44.96 124.565 45.04L123.245 50.35C123.025 50.21 122.725 50.1 122.345 50.02C121.985 49.92 121.605 49.87 121.205 49.87C120.765 49.87 120.355 49.95 119.975 50.11C119.595 50.25 119.275 50.46 119.015 50.74C118.755 51.02 118.545 51.35 118.385 51.73C118.245 52.11 118.175 52.54 118.175 53.02V61H113.345ZM133.823 61.3C132.163 61.3 130.683 60.94 129.383 60.22C128.103 59.5 127.083 58.52 126.323 57.28C125.583 56.04 125.213 54.62 125.213 53.02C125.213 51.42 125.583 50 126.323 48.76C127.083 47.52 128.103 46.54 129.383 45.82C130.683 45.1 132.163 44.74 133.823 44.74C135.483 44.74 136.953 45.1 138.233 45.82C139.533 46.54 140.553 47.52 141.293 48.76C142.033 50 142.403 51.42 142.403 53.02C142.403 54.62 142.033 56.04 141.293 57.28C140.553 58.52 139.533 59.5 138.233 60.22C136.953 60.94 135.483 61.3 133.823 61.3ZM133.823 57.16C134.543 57.16 135.183 56.98 135.743 56.62C136.303 56.26 136.743 55.77 137.063 55.15C137.383 54.53 137.533 53.82 137.513 53.02C137.533 52.22 137.383 51.51 137.063 50.89C136.743 50.25 136.303 49.75 135.743 49.39C135.183 49.03 134.543 48.85 133.823 48.85C133.103 48.85 132.453 49.03 131.873 49.39C131.313 49.75 130.873 50.25 130.553 50.89C130.233 51.51 130.083 52.22 130.103 53.02C130.083 53.82 130.233 54.53 130.553 55.15C130.873 55.77 131.313 56.26 131.873 56.62C132.453 56.98 133.103 57.16 133.823 57.16ZM146.862 61V41.05H151.662V61H146.862ZM144.042 49.27V45.07H154.752V49.27H144.042ZM164.849 61.3C163.189 61.3 161.709 60.94 160.409 60.22C159.129 59.5 158.109 58.52 157.349 57.28C156.609 56.04 156.239 54.62 156.239 53.02C156.239 51.42 156.609 50 157.349 48.76C158.109 47.52 159.129 46.54 160.409 45.82C161.709 45.1 163.189 44.74 164.849 44.74C166.509 44.74 167.979 45.1 169.259 45.82C170.559 46.54 171.579 47.52 172.319 48.76C173.059 50 173.429 51.42 173.429 53.02C173.429 54.62 173.059 56.04 172.319 57.28C171.579 58.52 170.559 59.5 169.259 60.22C167.979 60.94 166.509 61.3 164.849 61.3ZM164.849 57.16C165.569 57.16 166.209 56.98 166.769 56.62C167.329 56.26 167.769 55.77 168.089 55.15C168.409 54.53 168.559 53.82 168.539 53.02C168.559 52.22 168.409 51.51 168.089 50.89C167.769 50.25 167.329 49.75 166.769 49.39C166.209 49.03 165.569 48.85 164.849 48.85C164.129 48.85 163.479 49.03 162.899 49.39C162.339 49.75 161.899 50.25 161.579 50.89C161.259 51.51 161.109 52.22 161.129 53.02C161.109 53.82 161.259 54.53 161.579 55.15C161.899 55.77 162.339 56.26 162.899 56.62C163.479 56.98 164.129 57.16 164.849 57.16ZM183.558 61.3C182.018 61.3 180.638 60.94 179.418 60.22C178.198 59.5 177.228 58.52 176.508 57.28C175.808 56.02 175.458 54.6 175.458 53.02C175.458 51.44 175.808 50.03 176.508 48.79C177.228 47.53 178.198 46.54 179.418 45.82C180.638 45.1 182.018 44.74 183.558 44.74C184.978 44.74 186.278 44.99 187.458 45.49C188.658 45.99 189.608 46.69 190.308 47.59L187.698 50.71C187.418 50.39 187.088 50.09 186.708 49.81C186.328 49.53 185.908 49.31 185.448 49.15C184.988 48.99 184.508 48.91 184.008 48.91C183.248 48.91 182.578 49.09 181.998 49.45C181.418 49.79 180.968 50.27 180.648 50.89C180.328 51.51 180.168 52.22 180.168 53.02C180.168 53.78 180.328 54.47 180.648 55.09C180.988 55.71 181.448 56.2 182.028 56.56C182.608 56.92 183.268 57.1 184.008 57.1C184.528 57.1 185.008 57.04 185.448 56.92C185.888 56.78 186.288 56.58 186.648 56.32C187.028 56.06 187.378 55.74 187.698 55.36L190.277 58.51C189.598 59.37 188.648 60.05 187.428 60.55C186.228 61.05 184.938 61.3 183.558 61.3ZM200.415 61.3C198.755 61.3 197.275 60.94 195.975 60.22C194.695 59.5 193.675 58.52 192.915 57.28C192.175 56.04 191.805 54.62 191.805 53.02C191.805 51.42 192.175 50 192.915 48.76C193.675 47.52 194.695 46.54 195.975 45.82C197.275 45.1 198.755 44.74 200.415 44.74C202.075 44.74 203.545 45.1 204.825 45.82C206.125 46.54 207.145 47.52 207.885 48.76C208.625 50 208.995 51.42 208.995 53.02C208.995 54.62 208.625 56.04 207.885 57.28C207.145 58.52 206.125 59.5 204.825 60.22C203.545 60.94 202.075 61.3 200.415 61.3ZM200.415 57.16C201.135 57.16 201.775 56.98 202.335 56.62C202.895 56.26 203.335 55.77 203.655 55.15C203.975 54.53 204.125 53.82 204.105 53.02C204.125 52.22 203.975 51.51 203.655 50.89C203.335 50.25 202.895 49.75 202.335 49.39C201.775 49.03 201.135 48.85 200.415 48.85C199.695 48.85 199.045 49.03 198.465 49.39C197.905 49.75 197.465 50.25 197.145 50.89C196.825 51.51 196.675 52.22 196.695 53.02C196.675 53.82 196.825 54.53 197.145 55.15C197.465 55.77 197.905 56.26 198.465 56.62C199.045 56.98 199.695 57.16 200.415 57.16ZM212.164 61V38.8H216.964V61H212.164ZM235.145 61L228.845 40H234.035L237.185 51.04C237.325 51.54 237.445 52.05 237.545 52.57C237.665 53.07 237.755 53.55 237.815 54.01C237.895 54.47 237.955 54.9 237.995 55.3C238.035 55.68 238.075 56 238.115 56.26H237.455C237.575 55.52 237.675 54.86 237.755 54.28C237.855 53.7 237.965 53.16 238.085 52.66C238.205 52.14 238.355 51.6 238.535 51.04L241.655 42.73H245.735L248.795 51.04C249.035 51.7 249.235 52.32 249.395 52.9C249.555 53.48 249.675 54.04 249.755 54.58C249.855 55.1 249.935 55.62 249.995 56.14L249.395 56.23C249.435 55.87 249.465 55.54 249.485 55.24C249.505 54.92 249.525 54.62 249.545 54.34C249.585 54.04 249.625 53.73 249.665 53.41C249.705 53.09 249.765 52.74 249.845 52.36C249.925 51.96 250.035 51.51 250.175 51.01L253.295 40H258.365L252.065 61H248.165L243.185 48.91L243.755 48.97L239.165 61H235.145ZM265.768 61.27C264.428 61.27 263.228 60.92 262.168 60.22C261.128 59.5 260.298 58.52 259.678 57.28C259.058 56.02 258.748 54.6 258.748 53.02C258.748 51.4 259.058 49.97 259.678 48.73C260.298 47.49 261.148 46.52 262.228 45.82C263.308 45.1 264.538 44.74 265.918 44.74C266.678 44.74 267.368 44.85 267.988 45.07C268.628 45.29 269.188 45.6 269.668 46C270.148 46.38 270.558 46.83 270.898 47.35C271.238 47.85 271.488 48.39 271.648 48.97L270.658 48.85V45.07H275.428V61H270.568V57.16L271.648 57.13C271.488 57.69 271.228 58.22 270.868 58.72C270.508 59.22 270.068 59.66 269.548 60.04C269.028 60.42 268.448 60.72 267.808 60.94C267.168 61.16 266.488 61.27 265.768 61.27ZM267.088 57.22C267.828 57.22 268.468 57.05 269.008 56.71C269.548 56.37 269.968 55.89 270.268 55.27C270.568 54.63 270.718 53.88 270.718 53.02C270.718 52.16 270.568 51.42 270.268 50.8C269.968 50.16 269.548 49.67 269.008 49.33C268.468 48.97 267.828 48.79 267.088 48.79C266.368 48.79 265.738 48.97 265.198 49.33C264.678 49.67 264.268 50.16 263.968 50.8C263.668 51.42 263.518 52.16 263.518 53.02C263.518 53.88 263.668 54.63 263.968 55.27C264.268 55.89 264.678 56.37 265.198 56.71C265.738 57.05 266.368 57.22 267.088 57.22ZM279.693 61V38.8H284.493V61H279.693ZM288.805 61V38.8H293.605V61H288.805ZM305.183 61.3C303.423 61.3 301.893 60.95 300.593 60.25C299.293 59.53 298.283 58.56 297.563 57.34C296.843 56.1 296.483 54.69 296.483 53.11C296.483 51.89 296.683 50.77 297.083 49.75C297.483 48.73 298.043 47.85 298.763 47.11C299.483 46.35 300.333 45.77 301.313 45.37C302.313 44.95 303.403 44.74 304.583 44.74C305.703 44.74 306.723 44.94 307.643 45.34C308.583 45.74 309.393 46.3 310.073 47.02C310.753 47.74 311.273 48.59 311.633 49.57C311.993 50.55 312.153 51.62 312.113 52.78L312.083 54.07H299.393L298.703 51.37H308.183L307.673 51.94V51.34C307.633 50.84 307.473 50.4 307.193 50.02C306.933 49.62 306.583 49.31 306.143 49.09C305.703 48.87 305.203 48.76 304.643 48.76C303.863 48.76 303.193 48.92 302.633 49.24C302.093 49.54 301.683 49.99 301.403 50.59C301.123 51.17 300.983 51.89 300.983 52.75C300.983 53.63 301.163 54.4 301.523 55.06C301.903 55.7 302.443 56.2 303.143 56.56C303.863 56.92 304.713 57.1 305.693 57.1C306.373 57.1 306.973 57 307.493 56.8C308.033 56.6 308.613 56.26 309.233 55.78L311.483 58.96C310.863 59.5 310.203 59.94 309.503 60.28C308.803 60.62 308.083 60.87 307.343 61.03C306.623 61.21 305.903 61.3 305.183 61.3ZM316.491 61V41.05H321.291V61H316.491ZM313.671 49.27V45.07H324.381V49.27H313.671Z" fill="black"/>
</svg>
