<svg width="331" height="62" viewBox="0 0 331 62" fill="none" xmlns="http://www.w3.org/2000/svg">
<path d="M0.97 25L9.28 4H13.6L21.85 25H16.69L12.73 14.35C12.57 13.93 12.41 13.48 12.25 13C12.09 12.52 11.93 12.03 11.77 11.53C11.61 11.01 11.45 10.51 11.29 10.03C11.15 9.53 11.03 9.07 10.93 8.65L11.83 8.62C11.71 9.12 11.57 9.61 11.41 10.09C11.27 10.57 11.12 11.05 10.96 11.53C10.82 11.99 10.66 12.46 10.48 12.94C10.3 13.4 10.13 13.88 9.97 14.38L6.01 25H0.97ZM4.93 20.98L6.52 17.14H16.18L17.74 20.98H4.93ZM38.9395 25.3C37.3795 25.3 35.9995 25.05 34.7995 24.55C33.6195 24.05 32.6795 23.38 31.9795 22.54L34.8895 20.02C35.5095 20.64 36.2095 21.1 36.9895 21.4C37.7695 21.68 38.5095 21.82 39.2095 21.82C39.4895 21.82 39.7395 21.79 39.9595 21.73C40.1795 21.67 40.3595 21.59 40.4995 21.49C40.6595 21.37 40.7795 21.24 40.8595 21.1C40.9395 20.94 40.9795 20.76 40.9795 20.56C40.9795 20.16 40.7995 19.85 40.4395 19.63C40.2595 19.53 39.9595 19.41 39.5395 19.27C39.1195 19.13 38.5795 18.97 37.9195 18.79C36.9795 18.55 36.1595 18.27 35.4595 17.95C34.7795 17.61 34.2195 17.22 33.7795 16.78C33.3795 16.36 33.0695 15.9 32.8495 15.4C32.6295 14.88 32.5195 14.3 32.5195 13.66C32.5195 12.92 32.6895 12.25 33.0295 11.65C33.3895 11.05 33.8595 10.53 34.4395 10.09C35.0395 9.65 35.7195 9.32 36.4795 9.1C37.2595 8.86 38.0595 8.74 38.8795 8.74C39.7595 8.74 40.5995 8.84 41.3995 9.04C42.1995 9.24 42.9395 9.52 43.6195 9.88C44.3195 10.24 44.9395 10.67 45.4795 11.17L42.9595 13.99C42.5995 13.65 42.1895 13.35 41.7295 13.09C41.2895 12.81 40.8295 12.59 40.3495 12.43C39.8695 12.27 39.4295 12.19 39.0295 12.19C38.7295 12.19 38.4595 12.22 38.2195 12.28C37.9995 12.32 37.8095 12.4 37.6495 12.52C37.4895 12.62 37.3695 12.75 37.2895 12.91C37.2095 13.05 37.1695 13.22 37.1695 13.42C37.1695 13.62 37.2195 13.81 37.3195 13.99C37.4395 14.17 37.5995 14.32 37.7995 14.44C37.9995 14.56 38.3195 14.7 38.7595 14.86C39.1995 15 39.7995 15.18 40.5595 15.4C41.4995 15.66 42.3095 15.95 42.9895 16.27C43.6695 16.59 44.2095 16.97 44.6095 17.41C44.9295 17.75 45.1695 18.15 45.3295 18.61C45.4895 19.05 45.5695 19.53 45.5695 20.05C45.5695 21.07 45.2795 21.98 44.6995 22.78C44.1395 23.56 43.3595 24.18 42.3595 24.64C41.3595 25.08 40.2195 25.3 38.9395 25.3ZM48.693 25V9.07H53.493V25H48.693ZM51.093 5.92C50.193 5.92 49.483 5.71 48.963 5.29C48.463 4.85 48.213 4.23 48.213 3.43C48.213 2.71 48.473 2.12 48.993 1.66C49.513 1.2 50.213 0.969998 51.093 0.969998C51.993 0.969998 52.693 1.19 53.193 1.63C53.693 2.05 53.943 2.65 53.943 3.43C53.943 4.17 53.683 4.77 53.163 5.23C52.663 5.69 51.973 5.92 51.093 5.92ZM57.973 25V9.07H62.533L62.683 11.95L62.053 11.98C62.293 11.46 62.593 11 62.953 10.6C63.333 10.2 63.753 9.87 64.213 9.61C64.693 9.33 65.183 9.12 65.683 8.98C66.203 8.84 66.723 8.77 67.243 8.77C68.023 8.77 68.733 8.89 69.373 9.13C70.013 9.37 70.573 9.76 71.053 10.3C71.533 10.82 71.913 11.53 72.193 12.43L71.443 12.37L71.683 11.89C71.943 11.41 72.273 10.98 72.673 10.6C73.093 10.2 73.553 9.87 74.053 9.61C74.553 9.33 75.073 9.12 75.613 8.98C76.153 8.84 76.673 8.77 77.173 8.77C78.433 8.77 79.483 9.02 80.323 9.52C81.163 10 81.793 10.73 82.213 11.71C82.653 12.69 82.873 13.88 82.873 15.28V25H78.043V15.67C78.043 15.03 77.953 14.5 77.773 14.08C77.593 13.66 77.323 13.35 76.963 13.15C76.623 12.93 76.193 12.82 75.673 12.82C75.253 12.82 74.863 12.89 74.503 13.03C74.163 13.17 73.863 13.36 73.603 13.6C73.363 13.84 73.173 14.12 73.033 14.44C72.893 14.76 72.823 15.12 72.823 15.52V25H67.993V15.64C67.993 15.04 67.903 14.53 67.723 14.11C67.543 13.69 67.273 13.37 66.913 13.15C66.553 12.93 66.133 12.82 65.653 12.82C65.233 12.82 64.843 12.89 64.483 13.03C64.143 13.17 63.843 13.36 63.583 13.6C63.343 13.84 63.153 14.12 63.013 14.44C62.873 14.76 62.803 15.11 62.803 15.49V25H57.973ZM86.8605 31.6V9.07H91.4205L91.6005 12.64L90.7005 12.37C90.8405 11.71 91.1805 11.11 91.7205 10.57C92.2605 10.03 92.9405 9.6 93.7605 9.28C94.6005 8.94 95.4805 8.77 96.4005 8.77C97.7605 8.77 98.9705 9.13 100.03 9.85C101.09 10.55 101.92 11.52 102.52 12.76C103.14 13.98 103.45 15.4 103.45 17.02C103.45 18.62 103.14 20.04 102.52 21.28C101.92 22.52 101.08 23.5 100 24.22C98.9405 24.92 97.7205 25.27 96.3405 25.27C95.4405 25.27 94.5805 25.1 93.7605 24.76C92.9405 24.42 92.2505 23.96 91.6905 23.38C91.1305 22.8 90.7605 22.17 90.5805 21.49L91.6905 21.07V31.6H86.8605ZM95.1705 21.22C95.8905 21.22 96.5205 21.05 97.0605 20.71C97.6005 20.35 98.0205 19.86 98.3205 19.24C98.6205 18.62 98.7705 17.88 98.7705 17.02C98.7705 16.18 98.6205 15.45 98.3205 14.83C98.0205 14.19 97.6005 13.7 97.0605 13.36C96.5405 13 95.9105 12.82 95.1705 12.82C94.4305 12.82 93.7905 12.99 93.2505 13.33C92.7105 13.67 92.2905 14.16 91.9905 14.8C91.6905 15.44 91.5405 16.18 91.5405 17.02C91.5405 17.88 91.6905 18.62 91.9905 19.24C92.2905 19.86 92.7105 20.35 93.2505 20.71C93.7905 21.05 94.4305 21.22 95.1705 21.22ZM106.666 25V2.8H111.466V25H106.666ZM123.044 25.3C121.284 25.3 119.754 24.95 118.454 24.25C117.154 23.53 116.144 22.56 115.424 21.34C114.704 20.1 114.344 18.69 114.344 17.11C114.344 15.89 114.544 14.77 114.944 13.75C115.344 12.73 115.904 11.85 116.624 11.11C117.344 10.35 118.194 9.77 119.174 9.37C120.174 8.95 121.264 8.74 122.444 8.74C123.564 8.74 124.584 8.94 125.504 9.34C126.444 9.74 127.254 10.3 127.934 11.02C128.614 11.74 129.134 12.59 129.494 13.57C129.854 14.55 130.014 15.62 129.974 16.78L129.944 18.07H117.254L116.564 15.37H126.044L125.534 15.94V15.34C125.494 14.84 125.334 14.4 125.054 14.02C124.794 13.62 124.444 13.31 124.004 13.09C123.564 12.87 123.064 12.76 122.504 12.76C121.724 12.76 121.054 12.92 120.494 13.24C119.954 13.54 119.544 13.99 119.264 14.59C118.984 15.17 118.844 15.89 118.844 16.75C118.844 17.63 119.024 18.4 119.384 19.06C119.764 19.7 120.304 20.2 121.004 20.56C121.724 20.92 122.574 21.1 123.554 21.1C124.234 21.1 124.834 21 125.354 20.8C125.894 20.6 126.474 20.26 127.094 19.78L129.344 22.96C128.724 23.5 128.064 23.94 127.364 24.28C126.664 24.62 125.944 24.87 125.204 25.03C124.484 25.21 123.764 25.3 123.044 25.3ZM144.652 31.9L148.282 23.35L148.342 25.81L140.662 9.07H146.092L149.452 17.08C149.632 17.48 149.802 17.91 149.962 18.37C150.122 18.83 150.242 19.27 150.322 19.69L149.662 20.08C149.782 19.78 149.912 19.41 150.052 18.97C150.212 18.51 150.382 18.02 150.562 17.5L153.502 9.07H158.962L152.182 25L149.422 31.9H144.652ZM168.542 25.3C166.782 25.3 165.252 24.95 163.952 24.25C162.652 23.53 161.642 22.56 160.922 21.34C160.202 20.1 159.842 18.69 159.842 17.11C159.842 15.89 160.042 14.77 160.442 13.75C160.842 12.73 161.402 11.85 162.122 11.11C162.842 10.35 163.692 9.77 164.672 9.37C165.672 8.95 166.762 8.74 167.942 8.74C169.062 8.74 170.082 8.94 171.002 9.34C171.942 9.74 172.752 10.3 173.432 11.02C174.112 11.74 174.632 12.59 174.992 13.57C175.352 14.55 175.512 15.62 175.472 16.78L175.442 18.07H162.752L162.062 15.37H171.542L171.032 15.94V15.34C170.992 14.84 170.832 14.4 170.552 14.02C170.292 13.62 169.942 13.31 169.502 13.09C169.062 12.87 168.562 12.76 168.002 12.76C167.222 12.76 166.552 12.92 165.992 13.24C165.452 13.54 165.042 13.99 164.762 14.59C164.482 15.17 164.342 15.89 164.342 16.75C164.342 17.63 164.522 18.4 164.882 19.06C165.262 19.7 165.802 20.2 166.502 20.56C167.222 20.92 168.072 21.1 169.052 21.1C169.732 21.1 170.332 21 170.852 20.8C171.392 20.6 171.972 20.26 172.592 19.78L174.842 22.96C174.222 23.5 173.562 23.94 172.862 24.28C172.162 24.62 171.442 24.87 170.702 25.03C169.982 25.21 169.262 25.3 168.542 25.3ZM179.85 25V5.05H184.65V25H179.85ZM177.03 13.27V9.07H187.74V13.27H177.03ZM200.093 31.6V9.07H204.653L204.833 12.64L203.933 12.37C204.073 11.71 204.413 11.11 204.953 10.57C205.493 10.03 206.173 9.6 206.993 9.28C207.833 8.94 208.713 8.77 209.633 8.77C210.993 8.77 212.203 9.13 213.263 9.85C214.323 10.55 215.153 11.52 215.753 12.76C216.373 13.98 216.683 15.4 216.683 17.02C216.683 18.62 216.373 20.04 215.753 21.28C215.153 22.52 214.313 23.5 213.233 24.22C212.173 24.92 210.953 25.27 209.573 25.27C208.673 25.27 207.813 25.1 206.993 24.76C206.173 24.42 205.483 23.96 204.923 23.38C204.363 22.8 203.993 22.17 203.813 21.49L204.923 21.07V31.6H200.093ZM208.403 21.22C209.123 21.22 209.753 21.05 210.293 20.71C210.833 20.35 211.253 19.86 211.553 19.24C211.853 18.62 212.003 17.88 212.003 17.02C212.003 16.18 211.853 15.45 211.553 14.83C211.253 14.19 210.833 13.7 210.293 13.36C209.773 13 209.143 12.82 208.403 12.82C207.663 12.82 207.023 12.99 206.483 13.33C205.943 13.67 205.523 14.16 205.223 14.8C204.923 15.44 204.773 16.18 204.773 17.02C204.773 17.88 204.923 18.62 205.223 19.24C205.523 19.86 205.943 20.35 206.483 20.71C207.023 21.05 207.663 21.22 208.403 21.22ZM227.368 25.3C225.708 25.3 224.228 24.94 222.928 24.22C221.648 23.5 220.628 22.52 219.868 21.28C219.128 20.04 218.758 18.62 218.758 17.02C218.758 15.42 219.128 14 219.868 12.76C220.628 11.52 221.648 10.54 222.928 9.82C224.228 9.1 225.708 8.74 227.368 8.74C229.028 8.74 230.498 9.1 231.778 9.82C233.078 10.54 234.098 11.52 234.838 12.76C235.578 14 235.948 15.42 235.948 17.02C235.948 18.62 235.578 20.04 234.838 21.28C234.098 22.52 233.078 23.5 231.778 24.22C230.498 24.94 229.028 25.3 227.368 25.3ZM227.368 21.16C228.088 21.16 228.728 20.98 229.288 20.62C229.848 20.26 230.288 19.77 230.608 19.15C230.928 18.53 231.078 17.82 231.058 17.02C231.078 16.22 230.928 15.51 230.608 14.89C230.288 14.25 229.848 13.75 229.288 13.39C228.728 13.03 228.088 12.85 227.368 12.85C226.648 12.85 225.998 13.03 225.418 13.39C224.858 13.75 224.418 14.25 224.098 14.89C223.778 15.51 223.628 16.22 223.648 17.02C223.628 17.82 223.778 18.53 224.098 19.15C224.418 19.77 224.858 20.26 225.418 20.62C225.998 20.98 226.648 21.16 227.368 21.16ZM241.981 25L236.731 9.07H241.801L244.741 19.42L244.111 19.3L247.411 11.26H250.231L253.711 19.33L253.021 19.39L255.961 9.07H261.031L255.601 25H252.061L248.611 16.45L248.971 16.51L245.521 25H241.981ZM270.671 25.3C268.911 25.3 267.381 24.95 266.081 24.25C264.781 23.53 263.771 22.56 263.051 21.34C262.331 20.1 261.971 18.69 261.971 17.11C261.971 15.89 262.171 14.77 262.571 13.75C262.971 12.73 263.531 11.85 264.251 11.11C264.971 10.35 265.821 9.77 266.801 9.37C267.801 8.95 268.891 8.74 270.071 8.74C271.191 8.74 272.211 8.94 273.131 9.34C274.071 9.74 274.881 10.3 275.561 11.02C276.241 11.74 276.761 12.59 277.121 13.57C277.481 14.55 277.641 15.62 277.601 16.78L277.571 18.07H264.881L264.191 15.37H273.671L273.161 15.94V15.34C273.121 14.84 272.961 14.4 272.681 14.02C272.421 13.62 272.071 13.31 271.631 13.09C271.191 12.87 270.691 12.76 270.131 12.76C269.351 12.76 268.681 12.92 268.121 13.24C267.581 13.54 267.171 13.99 266.891 14.59C266.611 15.17 266.471 15.89 266.471 16.75C266.471 17.63 266.651 18.4 267.011 19.06C267.391 19.7 267.931 20.2 268.631 20.56C269.351 20.92 270.201 21.1 271.181 21.1C271.861 21.1 272.461 21 272.981 20.8C273.521 20.6 274.101 20.26 274.721 19.78L276.971 22.96C276.351 23.5 275.691 23.94 274.991 24.28C274.291 24.62 273.571 24.87 272.831 25.03C272.111 25.21 271.391 25.3 270.671 25.3ZM280.659 25V9.07H285.219L285.429 14.26L284.529 13.27C284.769 12.41 285.159 11.64 285.699 10.96C286.259 10.28 286.909 9.74 287.649 9.34C288.389 8.94 289.179 8.74 290.019 8.74C290.379 8.74 290.709 8.77 291.009 8.83C291.329 8.89 291.619 8.96 291.879 9.04L290.559 14.35C290.339 14.21 290.039 14.1 289.659 14.02C289.299 13.92 288.919 13.87 288.519 13.87C288.079 13.87 287.669 13.95 287.289 14.11C286.909 14.25 286.589 14.46 286.329 14.74C286.069 15.02 285.859 15.35 285.699 15.73C285.559 16.11 285.489 16.54 285.489 17.02V25H280.659ZM295.302 25V8.29C295.302 7.25 295.522 6.31 295.962 5.47C296.422 4.63 297.052 3.97 297.852 3.49C298.672 2.99 299.622 2.74 300.702 2.74C301.462 2.74 302.162 2.85 302.802 3.07C303.442 3.29 304.012 3.6 304.512 4L303.132 7.51C302.872 7.37 302.622 7.26 302.382 7.18C302.142 7.1 301.922 7.06 301.722 7.06C301.362 7.06 301.062 7.12 300.822 7.24C300.582 7.36 300.402 7.55 300.282 7.81C300.182 8.05 300.132 8.35 300.132 8.71V25H297.732C297.192 25 296.712 25 296.292 25C295.892 25 295.562 25 295.302 25ZM292.992 13.48V9.52H303.402V13.48H292.992ZM311.519 25.33C310.339 25.33 309.329 25.08 308.489 24.58C307.669 24.06 307.029 23.32 306.569 22.36C306.129 21.4 305.909 20.25 305.909 18.91V9.07H310.739V18.25C310.739 18.89 310.839 19.44 311.039 19.9C311.239 20.36 311.539 20.72 311.939 20.98C312.339 21.22 312.819 21.34 313.379 21.34C313.799 21.34 314.179 21.27 314.519 21.13C314.879 20.99 315.179 20.8 315.419 20.56C315.679 20.3 315.879 20.01 316.019 19.69C316.159 19.35 316.229 18.98 316.229 18.58V9.07H321.059V25H316.529L316.319 21.73L317.219 21.37C316.979 22.13 316.579 22.81 316.019 23.41C315.459 23.99 314.789 24.46 314.009 24.82C313.229 25.16 312.399 25.33 311.519 25.33ZM325.367 25V2.8H330.167V25H325.367ZM3.64 61V40H8.2L15.85 52.45L12.58 52.42L20.32 40H24.7V61H19.75V54.46C19.75 52.66 19.79 51.04 19.87 49.6C19.97 48.16 20.13 46.73 20.35 45.31L20.92 46.87L15.1 55.9H13.12L7.42 46.93L7.99 45.31C8.21 46.65 8.36 48.03 8.44 49.45C8.54 50.85 8.59 52.52 8.59 54.46V61H3.64ZM29.7379 61V45.07H34.5379V61H29.7379ZM32.1379 41.92C31.2379 41.92 30.5279 41.71 30.0079 41.29C29.5079 40.85 29.2579 40.23 29.2579 39.43C29.2579 38.71 29.5179 38.12 30.0379 37.66C30.5579 37.2 31.2579 36.97 32.1379 36.97C33.0379 36.97 33.7379 37.19 34.2379 37.63C34.7379 38.05 34.9879 38.65 34.9879 39.43C34.9879 40.17 34.7279 40.77 34.2079 41.23C33.7079 41.69 33.0179 41.92 32.1379 41.92ZM39.048 61V45.07H43.608L43.758 48.31L42.798 48.67C43.018 47.95 43.408 47.3 43.968 46.72C44.548 46.12 45.238 45.64 46.038 45.28C46.838 44.92 47.678 44.74 48.558 44.74C49.758 44.74 50.768 44.99 51.588 45.49C52.408 45.97 53.028 46.7 53.448 47.68C53.868 48.64 54.078 49.82 54.078 51.22V61H49.248V51.61C49.248 50.97 49.158 50.44 48.978 50.02C48.798 49.6 48.518 49.29 48.138 49.09C47.778 48.87 47.328 48.77 46.788 48.79C46.368 48.79 45.978 48.86 45.618 49C45.258 49.12 44.948 49.31 44.688 49.57C44.428 49.81 44.218 50.09 44.058 50.41C43.918 50.73 43.848 51.08 43.848 51.46V61H41.478C40.918 61 40.438 61 40.038 61C39.638 61 39.308 61 39.048 61ZM63.9709 61.27C62.6309 61.27 61.4309 60.92 60.3709 60.22C59.3309 59.5 58.5009 58.52 57.8809 57.28C57.2609 56.02 56.9509 54.6 56.9509 53.02C56.9509 51.4 57.2609 49.97 57.8809 48.73C58.5009 47.49 59.3509 46.52 60.4309 45.82C61.5109 45.1 62.7409 44.74 64.1209 44.74C64.8809 44.74 65.5709 44.85 66.1909 45.07C66.8309 45.29 67.3909 45.6 67.8709 46C68.3509 46.38 68.7609 46.83 69.1009 47.35C69.4409 47.85 69.6909 48.39 69.8509 48.97L68.8609 48.85V45.07H73.6309V61H68.7709V57.16L69.8509 57.13C69.6909 57.69 69.4309 58.22 69.0709 58.72C68.7109 59.22 68.2709 59.66 67.7509 60.04C67.2309 60.42 66.6509 60.72 66.0109 60.94C65.3709 61.16 64.6909 61.27 63.9709 61.27ZM65.2909 57.22C66.0309 57.22 66.6709 57.05 67.2109 56.71C67.7509 56.37 68.1709 55.89 68.4709 55.27C68.7709 54.63 68.9209 53.88 68.9209 53.02C68.9209 52.16 68.7709 51.42 68.4709 50.8C68.1709 50.16 67.7509 49.67 67.2109 49.33C66.6709 48.97 66.0309 48.79 65.2909 48.79C64.5709 48.79 63.9409 48.97 63.4009 49.33C62.8809 49.67 62.4709 50.16 62.1709 50.8C61.8709 51.42 61.7209 52.16 61.7209 53.02C61.7209 53.88 61.8709 54.63 62.1709 55.27C62.4709 55.89 62.8809 56.37 63.4009 56.71C63.9409 57.05 64.5709 57.22 65.2909 57.22ZM87.9857 61V40H97.0457C98.3657 40 99.5357 40.3 100.556 40.9C101.596 41.5 102.416 42.32 103.016 43.36C103.636 44.4 103.946 45.57 103.946 46.87C103.946 48.23 103.636 49.45 103.016 50.53C102.416 51.59 101.596 52.43 100.556 53.05C99.5357 53.67 98.3657 53.98 97.0457 53.98H93.0857V61H87.9857ZM92.9957 49.51H96.3257C96.7657 49.51 97.1657 49.4 97.5257 49.18C97.8857 48.96 98.1757 48.66 98.3957 48.28C98.6157 47.9 98.7257 47.46 98.7257 46.96C98.7257 46.44 98.6157 46 98.3957 45.64C98.1757 45.28 97.8857 45 97.5257 44.8C97.1657 44.6 96.7657 44.5 96.3257 44.5H92.9957V49.51ZM107.339 61V45.07H111.899L112.109 50.26L111.209 49.27C111.449 48.41 111.839 47.64 112.379 46.96C112.939 46.28 113.589 45.74 114.329 45.34C115.069 44.94 115.859 44.74 116.699 44.74C117.059 44.74 117.389 44.77 117.689 44.83C118.009 44.89 118.299 44.96 118.559 45.04L117.239 50.35C117.019 50.21 116.719 50.1 116.339 50.02C115.979 49.92 115.599 49.87 115.199 49.87C114.759 49.87 114.349 49.95 113.969 50.11C113.589 50.25 113.269 50.46 113.009 50.74C112.749 51.02 112.539 51.35 112.379 51.73C112.239 52.11 112.169 52.54 112.169 53.02V61H107.339ZM127.818 61.3C126.158 61.3 124.678 60.94 123.378 60.22C122.098 59.5 121.078 58.52 120.318 57.28C119.578 56.04 119.208 54.62 119.208 53.02C119.208 51.42 119.578 50 120.318 48.76C121.078 47.52 122.098 46.54 123.378 45.82C124.678 45.1 126.158 44.74 127.818 44.74C129.478 44.74 130.948 45.1 132.228 45.82C133.528 46.54 134.548 47.52 135.288 48.76C136.028 50 136.398 51.42 136.398 53.02C136.398 54.62 136.028 56.04 135.288 57.28C134.548 58.52 133.528 59.5 132.228 60.22C130.948 60.94 129.478 61.3 127.818 61.3ZM127.818 57.16C128.538 57.16 129.178 56.98 129.738 56.62C130.298 56.26 130.738 55.77 131.058 55.15C131.378 54.53 131.528 53.82 131.508 53.02C131.528 52.22 131.378 51.51 131.058 50.89C130.738 50.25 130.298 49.75 129.738 49.39C129.178 49.03 128.538 48.85 127.818 48.85C127.098 48.85 126.448 49.03 125.868 49.39C125.308 49.75 124.868 50.25 124.548 50.89C124.228 51.51 124.078 52.22 124.098 53.02C124.078 53.82 124.228 54.53 124.548 55.15C124.868 55.77 125.308 56.26 125.868 56.62C126.448 56.98 127.098 57.16 127.818 57.16ZM140.856 61V41.05H145.656V61H140.856ZM138.036 49.27V45.07H148.746V49.27H138.036ZM158.843 61.3C157.183 61.3 155.703 60.94 154.403 60.22C153.123 59.5 152.103 58.52 151.343 57.28C150.603 56.04 150.233 54.62 150.233 53.02C150.233 51.42 150.603 50 151.343 48.76C152.103 47.52 153.123 46.54 154.403 45.82C155.703 45.1 157.183 44.74 158.843 44.74C160.503 44.74 161.973 45.1 163.253 45.82C164.553 46.54 165.573 47.52 166.313 48.76C167.053 50 167.423 51.42 167.423 53.02C167.423 54.62 167.053 56.04 166.313 57.28C165.573 58.52 164.553 59.5 163.253 60.22C161.973 60.94 160.503 61.3 158.843 61.3ZM158.843 57.16C159.563 57.16 160.203 56.98 160.763 56.62C161.323 56.26 161.763 55.77 162.083 55.15C162.403 54.53 162.553 53.82 162.533 53.02C162.553 52.22 162.403 51.51 162.083 50.89C161.763 50.25 161.323 49.75 160.763 49.39C160.203 49.03 159.563 48.85 158.843 48.85C158.123 48.85 157.473 49.03 156.893 49.39C156.333 49.75 155.893 50.25 155.573 50.89C155.253 51.51 155.103 52.22 155.123 53.02C155.103 53.82 155.253 54.53 155.573 55.15C155.893 55.77 156.333 56.26 156.893 56.62C157.473 56.98 158.123 57.16 158.843 57.16ZM177.552 61.3C176.012 61.3 174.632 60.94 173.412 60.22C172.192 59.5 171.222 58.52 170.502 57.28C169.802 56.02 169.452 54.6 169.452 53.02C169.452 51.44 169.802 50.03 170.502 48.79C171.222 47.53 172.192 46.54 173.412 45.82C174.632 45.1 176.012 44.74 177.552 44.74C178.972 44.74 180.272 44.99 181.452 45.49C182.652 45.99 183.602 46.69 184.302 47.59L181.692 50.71C181.412 50.39 181.082 50.09 180.702 49.81C180.322 49.53 179.902 49.31 179.442 49.15C178.982 48.99 178.502 48.91 178.002 48.91C177.242 48.91 176.572 49.09 175.992 49.45C175.412 49.79 174.962 50.27 174.642 50.89C174.322 51.51 174.162 52.22 174.162 53.02C174.162 53.78 174.322 54.47 174.642 55.09C174.982 55.71 175.442 56.2 176.022 56.56C176.602 56.92 177.262 57.1 178.002 57.1C178.522 57.1 179.002 57.04 179.442 56.92C179.882 56.78 180.282 56.58 180.642 56.32C181.022 56.06 181.372 55.74 181.692 55.36L184.272 58.51C183.592 59.37 182.642 60.05 181.422 60.55C180.222 61.05 178.932 61.3 177.552 61.3ZM194.409 61.3C192.749 61.3 191.269 60.94 189.969 60.22C188.689 59.5 187.669 58.52 186.909 57.28C186.169 56.04 185.799 54.62 185.799 53.02C185.799 51.42 186.169 50 186.909 48.76C187.669 47.52 188.689 46.54 189.969 45.82C191.269 45.1 192.749 44.74 194.409 44.74C196.069 44.74 197.539 45.1 198.819 45.82C200.119 46.54 201.139 47.52 201.879 48.76C202.619 50 202.989 51.42 202.989 53.02C202.989 54.62 202.619 56.04 201.879 57.28C201.139 58.52 200.119 59.5 198.819 60.22C197.539 60.94 196.069 61.3 194.409 61.3ZM194.409 57.16C195.129 57.16 195.769 56.98 196.329 56.62C196.889 56.26 197.329 55.77 197.649 55.15C197.969 54.53 198.119 53.82 198.099 53.02C198.119 52.22 197.969 51.51 197.649 50.89C197.329 50.25 196.889 49.75 196.329 49.39C195.769 49.03 195.129 48.85 194.409 48.85C193.689 48.85 193.039 49.03 192.459 49.39C191.899 49.75 191.459 50.25 191.139 50.89C190.819 51.51 190.669 52.22 190.689 53.02C190.669 53.82 190.819 54.53 191.139 55.15C191.459 55.77 191.899 56.26 192.459 56.62C193.039 56.98 193.689 57.16 194.409 57.16ZM206.158 61V38.8H210.958V61H206.158ZM229.139 61L222.839 40H228.029L231.179 51.04C231.319 51.54 231.439 52.05 231.539 52.57C231.659 53.07 231.749 53.55 231.809 54.01C231.889 54.47 231.949 54.9 231.989 55.3C232.029 55.68 232.069 56 232.109 56.26H231.449C231.569 55.52 231.669 54.86 231.749 54.28C231.849 53.7 231.959 53.16 232.079 52.66C232.199 52.14 232.349 51.6 232.529 51.04L235.649 42.73H239.729L242.789 51.04C243.029 51.7 243.229 52.32 243.389 52.9C243.549 53.48 243.669 54.04 243.749 54.58C243.849 55.1 243.929 55.62 243.989 56.14L243.389 56.23C243.429 55.87 243.459 55.54 243.479 55.24C243.499 54.92 243.519 54.62 243.539 54.34C243.579 54.04 243.619 53.73 243.659 53.41C243.699 53.09 243.759 52.74 243.839 52.36C243.919 51.96 244.029 51.51 244.169 51.01L247.289 40H252.359L246.059 61H242.159L237.179 48.91L237.749 48.97L233.159 61H229.139ZM259.762 61.27C258.422 61.27 257.222 60.92 256.162 60.22C255.122 59.5 254.292 58.52 253.672 57.28C253.052 56.02 252.742 54.6 252.742 53.02C252.742 51.4 253.052 49.97 253.672 48.73C254.292 47.49 255.142 46.52 256.222 45.82C257.302 45.1 258.532 44.74 259.912 44.74C260.672 44.74 261.362 44.85 261.982 45.07C262.622 45.29 263.182 45.6 263.662 46C264.142 46.38 264.552 46.83 264.892 47.35C265.232 47.85 265.482 48.39 265.642 48.97L264.652 48.85V45.07H269.422V61H264.562V57.16L265.642 57.13C265.482 57.69 265.222 58.22 264.862 58.72C264.502 59.22 264.062 59.66 263.542 60.04C263.022 60.42 262.442 60.72 261.802 60.94C261.162 61.16 260.482 61.27 259.762 61.27ZM261.082 57.22C261.822 57.22 262.462 57.05 263.002 56.71C263.542 56.37 263.962 55.89 264.262 55.27C264.562 54.63 264.712 53.88 264.712 53.02C264.712 52.16 264.562 51.42 264.262 50.8C263.962 50.16 263.542 49.67 263.002 49.33C262.462 48.97 261.822 48.79 261.082 48.79C260.362 48.79 259.732 48.97 259.192 49.33C258.672 49.67 258.262 50.16 257.962 50.8C257.662 51.42 257.512 52.16 257.512 53.02C257.512 53.88 257.662 54.63 257.962 55.27C258.262 55.89 258.672 56.37 259.192 56.71C259.732 57.05 260.362 57.22 261.082 57.22ZM273.687 61V38.8H278.487V61H273.687ZM282.799 61V38.8H287.599V61H282.799ZM299.177 61.3C297.417 61.3 295.887 60.95 294.587 60.25C293.287 59.53 292.277 58.56 291.557 57.34C290.837 56.1 290.477 54.69 290.477 53.11C290.477 51.89 290.677 50.77 291.077 49.75C291.477 48.73 292.037 47.85 292.757 47.11C293.477 46.35 294.327 45.77 295.307 45.37C296.307 44.95 297.397 44.74 298.577 44.74C299.697 44.74 300.717 44.94 301.637 45.34C302.577 45.74 303.387 46.3 304.067 47.02C304.747 47.74 305.267 48.59 305.627 49.57C305.987 50.55 306.147 51.62 306.107 52.78L306.077 54.07H293.387L292.697 51.37H302.177L301.667 51.94V51.34C301.627 50.84 301.467 50.4 301.187 50.02C300.927 49.62 300.577 49.31 300.137 49.09C299.697 48.87 299.197 48.76 298.637 48.76C297.857 48.76 297.187 48.92 296.627 49.24C296.087 49.54 295.677 49.99 295.397 50.59C295.117 51.17 294.977 51.89 294.977 52.75C294.977 53.63 295.157 54.4 295.517 55.06C295.897 55.7 296.437 56.2 297.137 56.56C297.857 56.92 298.707 57.1 299.687 57.1C300.367 57.1 300.967 57 301.487 56.8C302.027 56.6 302.607 56.26 303.227 55.78L305.477 58.96C304.857 59.5 304.197 59.94 303.497 60.28C302.797 60.62 302.077 60.87 301.337 61.03C300.617 61.21 299.897 61.3 299.177 61.3ZM310.485 61V41.05H315.285V61H310.485ZM307.665 49.27V45.07H318.375V49.27H307.665Z" fill="black"/>
</svg>
