<svg width="24" height="24" viewBox="0 0 24 24" fill="none" xmlns="http://www.w3.org/2000/svg">
<g id="Tab_icon_browser">
<path id="Vector" d="M12 22C13.3132 22 14.6136 21.7413 15.8268 21.2388C17.0401 20.7362 18.1425 19.9997 19.0711 19.0711C19.9997 18.1425 20.7362 17.0401 21.2388 15.8268C21.7413 14.6136 22 13.3132 22 12C22 10.6868 21.7413 9.38642 21.2388 8.17317C20.7362 6.95991 19.9997 5.85752 19.0711 4.92893C18.1425 4.00035 17.0401 3.26375 15.8268 2.7612C14.6136 2.25866 13.3132 2 12 2C9.34784 2 6.8043 3.05357 4.92893 4.92893C3.05357 6.8043 2 9.34784 2 12C2 14.6522 3.05357 17.1957 4.92893 19.0711C6.8043 20.9464 9.34784 22 12 22ZM9.488 9.06667L16.392 6.76533C16.5094 6.7264 16.6352 6.72088 16.7555 6.74937C16.8759 6.77786 16.9859 6.83926 17.0733 6.92669C17.1607 7.01412 17.2221 7.12414 17.2506 7.24446C17.2791 7.36477 17.2736 7.49064 17.2347 7.608L14.9333 14.512C14.9006 14.6101 14.8455 14.6992 14.7724 14.7724C14.6992 14.8455 14.6101 14.9006 14.512 14.9333L7.608 17.2347C7.49064 17.2736 7.36477 17.2791 7.24446 17.2506C7.12414 17.2221 7.01412 17.1607 6.92669 17.0733C6.83926 16.9859 6.77786 16.8759 6.74937 16.7555C6.72088 16.6352 6.7264 16.5094 6.76533 16.392L9.06667 9.488C9.09941 9.3899 9.15452 9.30077 9.22764 9.22764C9.30077 9.15452 9.3899 9.09941 9.488 9.06667ZM12 13.3333C12.3536 13.3333 12.6928 13.1929 12.9428 12.9428C13.1929 12.6928 13.3333 12.3536 13.3333 12C13.3333 11.6464 13.1929 11.3072 12.9428 11.0572C12.6928 10.8071 12.3536 10.6667 12 10.6667C11.6464 10.6667 11.3072 10.8071 11.0572 11.0572C10.8071 11.3072 10.6667 11.6464 10.6667 12C10.6667 12.3536 10.8071 12.6928 11.0572 12.9428C11.3072 13.1929 11.6464 13.3333 12 13.3333Z" fill="black"/>
</g>
</svg>
