<svg width="25" height="25" viewBox="0 0 25 25" fill="none" xmlns="http://www.w3.org/2000/svg">
<path d="M12.1666 22.5C6.6439 22.5 2.16663 18.0227 2.16663 12.5C2.16663 6.97727 6.6439 2.5 12.1666 2.5C17.6894 2.5 22.1666 6.97727 22.1666 12.5C22.1666 18.0227 17.6894 22.5 12.1666 22.5ZM9.38117 9.13273C9.2457 9.17793 9.12261 9.25402 9.02163 9.35501C8.92065 9.45599 8.84455 9.57908 8.79935 9.71455L6.30481 17.1977C6.25066 17.3599 6.24277 17.534 6.28202 17.7005C6.32128 17.8669 6.40612 18.0191 6.52704 18.14C6.64796 18.261 6.80018 18.3458 6.96662 18.3851C7.13306 18.4243 7.30714 18.4164 7.46935 18.3623L14.9521 15.8677C15.0875 15.8225 15.2106 15.7464 15.3116 15.6454C15.4126 15.5445 15.4887 15.4214 15.5339 15.2859L18.0284 7.80273C18.0826 7.64052 18.0905 7.46643 18.0512 7.29999C18.012 7.13355 17.9271 6.98134 17.8062 6.86042C17.6853 6.7395 17.5331 6.65465 17.3666 6.6154C17.2002 6.57614 17.0261 6.58403 16.8639 6.63818L9.38117 9.13273ZM12.1666 14.3182C11.6844 14.3182 11.222 14.1266 10.881 13.7856C10.54 13.4447 10.3484 12.9822 10.3484 12.5C10.3484 12.0178 10.54 11.5553 10.881 11.2144C11.222 10.8734 11.6844 10.6818 12.1666 10.6818C12.6488 10.6818 13.1113 10.8734 13.4523 11.2144C13.7933 11.5553 13.9848 12.0178 13.9848 12.5C13.9848 12.9822 13.7933 13.4447 13.4523 13.7856C13.1113 14.1266 12.6488 14.3182 12.1666 14.3182Z" fill="black" fill-opacity="0.8"/>
</svg>
