<svg width="25" height="25" viewBox="0 0 25 25" fill="none" xmlns="http://www.w3.org/2000/svg">
<path d="M12.1666 22.5C13.4798 22.5 14.7802 22.2413 15.9935 21.7388C17.2067 21.2362 18.3091 20.4997 19.2377 19.5711C20.1663 18.6425 20.9029 17.5401 21.4054 16.3268C21.908 15.1136 22.1666 13.8132 22.1666 12.5C22.1666 11.1868 21.908 9.88642 21.4054 8.67317C20.9029 7.45991 20.1663 6.35752 19.2377 5.42893C18.3091 4.50035 17.2067 3.76375 15.9935 3.2612C14.7802 2.75866 13.4798 2.5 12.1666 2.5C9.51446 2.5 6.97092 3.55357 5.09556 5.42893C3.22019 7.3043 2.16663 9.84784 2.16663 12.5C2.16663 15.1522 3.22019 17.6957 5.09556 19.5711C6.97092 21.4464 9.51446 22.5 12.1666 22.5ZM9.65463 9.56667L16.5586 7.26533C16.676 7.2264 16.8019 7.22088 16.9222 7.24937C17.0425 7.27786 17.1525 7.33926 17.2399 7.42669C17.3274 7.51412 17.3888 7.62414 17.4173 7.74446C17.4458 7.86477 17.4402 7.99064 17.4013 8.108L15.1 15.012C15.0672 15.1101 15.0121 15.1992 14.939 15.2724C14.8659 15.3455 14.7767 15.4006 14.6786 15.4333L7.77463 17.7347C7.65727 17.7736 7.5314 17.7791 7.41108 17.7506C7.29077 17.7221 7.18074 17.6607 7.09331 17.5733C7.00588 17.4859 6.94449 17.3759 6.916 17.2555C6.8875 17.1352 6.89303 17.0094 6.93196 16.892L9.23329 9.988C9.26603 9.8899 9.32114 9.80077 9.39427 9.72764C9.46739 9.65452 9.55653 9.59941 9.65463 9.56667ZM12.1666 13.8333C12.5202 13.8333 12.8594 13.6929 13.1094 13.4428C13.3595 13.1928 13.5 12.8536 13.5 12.5C13.5 12.1464 13.3595 11.8072 13.1094 11.5572C12.8594 11.3071 12.5202 11.1667 12.1666 11.1667C11.813 11.1667 11.4739 11.3071 11.2238 11.5572C10.9738 11.8072 10.8333 12.1464 10.8333 12.5C10.8333 12.8536 10.9738 13.1928 11.2238 13.4428C11.4739 13.6929 11.813 13.8333 12.1666 13.8333Z" fill="black"/>
</svg>
