<svg width="25" height="25" viewBox="0 0 25 25" fill="none" xmlns="http://www.w3.org/2000/svg">
<path d="M12.1667 22.5C6.64402 22.5 2.16675 18.0227 2.16675 12.5C2.16675 6.97727 6.64402 2.5 12.1667 2.5C17.6895 2.5 22.1667 6.97727 22.1667 12.5C22.1667 18.0227 17.6895 22.5 12.1667 22.5ZM9.38129 9.13273C9.24583 9.17793 9.12273 9.25402 9.02175 9.35501C8.92077 9.45599 8.84467 9.57908 8.79947 9.71455L6.30493 17.1977C6.25078 17.3599 6.24289 17.534 6.28215 17.7005C6.3214 17.8669 6.40624 18.0191 6.52716 18.14C6.64808 18.261 6.8003 18.3458 6.96674 18.3851C7.13318 18.4243 7.30727 18.4164 7.46948 18.3623L14.9522 15.8677C15.0877 15.8225 15.2108 15.7464 15.3117 15.6454C15.4127 15.5445 15.4888 15.4214 15.534 15.2859L18.0286 7.80273C18.0827 7.64052 18.0906 7.46643 18.0513 7.29999C18.0121 7.13355 17.9273 6.98134 17.8063 6.86042C17.6854 6.7395 17.5332 6.65465 17.3668 6.6154C17.2003 6.57614 17.0262 6.58403 16.864 6.63818L9.38129 9.13273ZM12.1667 14.3182C11.6845 14.3182 11.2221 14.1266 10.8811 13.7856C10.5401 13.4447 10.3486 12.9822 10.3486 12.5C10.3486 12.0178 10.5401 11.5553 10.8811 11.2144C11.2221 10.8734 11.6845 10.6818 12.1667 10.6818C12.649 10.6818 13.1114 10.8734 13.4524 11.2144C13.7934 11.5553 13.9849 12.0178 13.9849 12.5C13.9849 12.9822 13.7934 13.4447 13.4524 13.7856C13.1114 14.1266 12.649 14.3182 12.1667 14.3182Z" fill="black" fill-opacity="0.8"/>
</svg>
