<svg height="200" viewBox="0 0 1024 1024" width="200" xmlns="http://www.w3.org/2000/svg"><path d="m549.044706 512 166.189176-166.249412a26.383059 26.383059 0 0 0 0-36.98447 26.383059 26.383059 0 0 0 -37.044706 0l-166.189176 166.249411-166.249412-166.249411a26.383059 26.383059 0 0 0 -36.98447 0 26.383059 26.383059 0 0 0 0 37.044706l166.249411 166.189176-166.249411 166.249412a26.383059 26.383059 0 0 0 0 36.98447 26.383059 26.383059 0 0 0 37.044706 0l166.189176-166.249411 166.249412 166.249411a26.383059 26.383059 0 0 0 36.98447 0 26.383059 26.383059 0 0 0 0-37.044706l-166.249411-166.189176zm-37.044706 512a512 512 0 1 1 0-1024 512 512 0 0 1 0 1024z" fill="#e84335"/></svg>