<?xml version="1.0" encoding="UTF-8"?>
<svg width="20px" height="20px" viewBox="0 0 20 20" version="1.1" xmlns="http://www.w3.org/2000/svg" xmlns:xlink="http://www.w3.org/1999/xlink">
    <title>Home</title>
    <g id="app-中文" stroke="none" stroke-width="1" fill="none" fill-rule="evenodd">
        <g id="首页-加载交易记录" transform="translate(-59.000000, -627.000000)" fill="#6B5DFB" fill-rule="nonzero">
            <path d="M71,642.579578 L71,646.02234 C71,646.562286 71.4477153,647 72,647 L78,647 C78.5522847,647 79,646.562286 79,646.02234 L79,635.379821 C79,634.964943 78.8314798,634.567046 78.5314286,634.273668 L70.13,627.457977 C69.830425,627.164758 69.423907,627 69,627 C68.576093,627 68.169575,627.164758 67.87,627.457977 L59.4685714,634.273668 C59.1685202,634.567046 59,634.964943 59,635.379821 L59,646.02234 C59,646.562286 59.4477153,647 60,647 L66,647 C66.2652165,647 66.5195704,646.896997 66.7071068,646.71365 C66.8946432,646.530303 67,646.281631 67,646.02234 L67,642.579578 C67,641.499684 67.8954305,640.624257 69,640.624257 C70.1045695,640.624257 71,641.499684 71,642.579578 Z" id="Home"></path>
        </g>
    </g>
</svg>