<svg width="59" height="58" viewBox="0 0 59 58" fill="none" xmlns="http://www.w3.org/2000/svg">
<g id="&#232;&#186;&#171;&#228;&#187;&#189;&#232;&#175;&#134;&#229;&#136;&#171; 1">
<path id="Vector" d="M47.5059 54.1329H37.0602C36.2811 54.1329 35.6462 53.4981 35.6462 52.7189C35.6462 51.9398 36.2811 51.305 37.0602 51.305H47.5059C49.8721 51.305 51.7766 49.4005 51.7766 47.0344V36.6175C51.7766 35.8384 52.4114 35.2035 53.1905 35.2035C53.9696 35.2035 54.6044 35.8384 54.6044 36.6175V47.0344C54.6333 50.9587 51.4303 54.1329 47.5059 54.1329ZM21.9109 54.1329H11.4651C7.54077 54.1329 4.36664 50.9299 4.36664 47.0055V36.5886C4.36664 35.8095 5.00146 35.1747 5.78057 35.1747C6.55967 35.1747 7.1945 35.8095 7.1945 36.5886V47.0055C7.1945 49.3717 9.09898 51.2762 11.4651 51.2762H21.9109C22.69 51.2762 23.3248 51.911 23.3248 52.6901C23.3248 53.4981 22.69 54.1329 21.9109 54.1329ZM53.1905 22.8533C52.4114 22.8533 51.7766 22.2184 51.7766 21.4393V10.9936C51.7766 8.6274 49.8721 6.72293 47.5059 6.72293H37.0602C36.2811 6.72293 35.6462 6.0881 35.6462 5.309C35.6462 4.52989 36.2811 3.89507 37.0602 3.89507H47.5059C51.4303 3.89507 54.6045 7.0692 54.6333 11.0224V21.4682C54.6333 22.2185 53.9985 22.8533 53.1905 22.8533ZM5.78057 22.8533C5.00146 22.8533 4.36664 22.2184 4.36664 21.4393V10.9936C4.36664 7.0692 7.54077 3.89507 11.4651 3.86621H21.9109C22.69 3.86621 23.3248 4.50104 23.3248 5.28014C23.3248 6.05925 22.69 6.69407 21.9109 6.69407H11.4651C9.09898 6.69407 7.1945 8.59855 7.1945 10.9647V21.4105C7.1945 22.2184 6.55967 22.8533 5.78057 22.8533ZM16.2263 43.716H16.0532C15.2741 43.6294 14.7258 42.9369 14.8124 42.1578V42.1289C15.4472 36.7617 19.0831 32.3757 24.0462 30.5C20.093 27.499 19.3139 21.8433 22.3438 17.8612C25.3736 13.8791 31.0005 13.1289 34.9826 16.1587C38.9646 19.1886 39.7149 24.8155 36.685 28.7976C36.1945 29.4324 35.6174 30.0095 34.9826 30.5C39.9169 32.3757 43.5816 36.7617 44.2164 42.1289C44.303 42.908 43.7258 43.6005 42.9467 43.6871C42.1965 43.7448 41.504 43.2254 41.4174 42.4752C40.7537 36.704 35.6462 32.3468 29.5577 32.3468C23.4691 32.3468 18.304 36.6752 17.6403 42.4463C17.5537 43.1677 16.9477 43.716 16.2263 43.716ZM29.5 17.1398C26.095 17.1398 23.3248 19.91 23.3248 23.315C23.3248 26.7199 26.095 29.4901 29.5 29.4901C32.9049 29.4901 35.6751 26.7199 35.6751 23.315C35.6462 19.91 32.8761 17.1687 29.5 17.1398Z" fill="black" fill-opacity="0.8"/>
</g>
</svg>
