<svg width="36" height="36" viewBox="0 0 36 36" fill="none" xmlns="http://www.w3.org/2000/svg">
<g clip-path="url(#clip0_10142_14839)">
<path d="M22.9876 9.8916H12.0533C11.9297 10.5711 11.9421 12.1897 12.9799 13.2275C14.0178 14.2654 14.2154 16.4399 14.1846 17.3974V28.1465C14.1846 29.4808 15.1112 29.938 15.5745 29.9997H19.5591C20.671 29.9997 20.8255 28.7642 20.7637 28.1465V17.3974C20.7637 15.0808 20.8564 14.7101 22.061 13.2275C23.0247 12.0414 23.0803 10.5094 22.9876 9.8916Z" fill="white"/>
<path d="M22.9875 8.50194H12.1458C12.1458 6.50039 12.7017 6 13.6284 6H21.1342C22.8392 6 23.0801 7.66796 22.9875 8.50194Z" fill="white"/>
<circle cx="18" cy="18" r="17.4" stroke="white" stroke-width="1.2"/>
</g>
<defs>
<clipPath id="clip0_10142_14839">
<rect width="36" height="36" fill="white"/>
</clipPath>
</defs>
</svg>
