<svg width="59" height="58" viewBox="0 0 59 58" fill="none" xmlns="http://www.w3.org/2000/svg">
<path d="M8.38802 19.7201C7.92402 19.7201 7.46002 19.3721 7.46002 18.9081V9.04812C7.46002 8.58412 7.92402 8.12012 8.38802 8.12012H17.9C18.364 8.12012 18.828 8.58412 18.828 9.04812C18.828 9.51212 18.48 9.97612 17.9 9.97612H9.31602V18.9081C9.31602 19.3721 8.85202 19.7201 8.38802 19.7201ZM51.772 19.7201C51.308 19.7201 50.844 19.2561 50.844 18.7921V9.97612H41.332C40.868 9.97612 40.404 9.51212 40.404 9.04812C40.404 8.58412 40.868 8.12012 41.332 8.12012H51.772C52.236 8.12012 52.7 8.58412 52.7 9.04812V18.9081C52.7 19.3721 52.236 19.7201 51.772 19.7201ZM17.9 51.0401H8.38802C8.15602 51.0401 7.92402 50.9241 7.69202 50.8081C7.57602 50.5761 7.46002 50.3441 7.46002 50.1121V40.6001C7.46002 40.1361 7.92402 39.6721 8.38802 39.6721C8.85202 39.6721 9.31602 40.1361 9.31602 40.6001V49.1841H17.9C18.364 49.1841 18.828 49.6481 18.828 50.1121C18.828 50.5761 18.48 51.0401 17.9 51.0401ZM51.772 51.0401H41.332C40.868 51.0401 40.404 50.5761 40.404 50.1121C40.404 49.6481 40.868 49.1841 41.332 49.1841H50.844V40.6001C50.844 40.1361 51.308 39.6721 51.772 39.6721C52.236 39.6721 52.7 40.1361 52.7 40.6001V50.1121C52.7 50.5761 52.236 51.0401 51.772 51.0401ZM21.264 24.5921C21.148 22.2721 21.96 20.3001 23.584 18.5601C27.064 14.8481 32.632 14.9641 36.112 18.6761C39.708 22.6201 38.78 29.4641 33.792 32.0161L34.488 32.3641C37.968 33.8721 40.288 36.3081 41.564 39.9041C41.796 40.7161 41.912 41.5281 42.144 42.4561V42.9201C42.028 43.2681 41.796 43.5001 41.448 43.5001C41.1 43.5001 40.752 43.2681 40.752 42.9201C40.636 42.2241 40.52 41.5281 40.288 40.8321C38.896 36.6561 36.112 33.9881 31.704 33.2921C27.992 32.5961 24.744 33.7561 22.076 36.4241C20.336 38.1641 19.408 40.2521 19.06 42.6881C18.944 43.1521 18.828 43.3841 18.48 43.5001C18.016 43.6161 17.552 43.2681 17.552 42.6881C17.784 40.7161 18.364 38.9761 19.408 37.3521C20.8 35.1481 22.772 33.5241 25.208 32.4801C25.324 32.3641 25.556 32.3641 25.672 32.2481C25.672 32.2481 25.788 32.2481 25.788 32.1321C23.004 30.2761 21.38 27.8401 21.264 24.5921ZM29.848 30.9721C33.56 30.9721 36.46 28.0721 36.46 24.4761C36.576 20.5321 33.444 17.7481 29.964 17.6321C26.368 17.5161 23.236 20.4161 23.12 24.2441C23.12 27.8401 26.02 30.9721 29.848 30.9721Z" fill="black"/>
</svg>
