<?xml version="1.0" encoding="UTF-8"?>
<svg width="14px" height="14px" viewBox="0 0 14 14" version="1.1" xmlns="http://www.w3.org/2000/svg" xmlns:xlink="http://www.w3.org/1999/xlink">
    <title>前往-下一步</title>
    <g id="app-中文" stroke="none" stroke-width="1" fill="none" fill-rule="evenodd">
        <g id="staking1" transform="translate(-211.000000, -507.000000)" fill="#7055FF" fill-rule="nonzero">
            <g id="编组" transform="translate(151.000000, 506.000000)">
                <g id="前往-下一步" transform="translate(60.000000, 1.000000)">
                    <path d="M7.001301,14 C6.03911597,13.999033 5.08727692,13.8014518 4.20419609,13.4193814 C4.02775869,13.3458909 3.90461721,13.1830182 3.8819971,12.9932259 C3.85937699,12.8034336 3.9407892,12.61618 4.09501168,12.503278 C4.24923417,12.3903761 4.45232948,12.3693496 4.62640941,12.4482624 C7.3509945,13.6447302 10.5406373,12.6506715 12.1031356,10.1181255 C13.6656339,7.58557951 13.1232638,4.28885603 10.8317855,2.3903953 C8.54030716,0.491934578 5.20032558,0.572178942 3.00265552,2.57849321 C0.804985461,4.58480749 0.42155062,7.90377379 2.10385978,10.358362 C2.26998583,10.6003115 2.20852453,10.931126 1.96658213,11.0972569 C1.72463973,11.2633878 1.39383489,11.2019247 1.22770883,10.9599753 C-0.593027419,8.30585093 -0.369222215,4.75214515 1.77010936,2.34743245 C3.90944094,-0.0572802458 7.41285007,-0.693144579 10.2607563,0.80639075 C13.1086626,2.30592608 14.56697,5.55433053 13.7950206,8.67902404 C13.0230712,11.8037176 10.2198479,13.9992576 7.001301,14 Z" id="路径"></path>
                    <path d="M9.97600986,7.875 L4.02399014,7.875 C3.73459838,7.875 3.5,7.67912458 3.5,7.4375 C3.5,7.19587542 3.73459838,7 4.02399014,7 L9.97600986,7 C10.2654016,7 10.5,7.19587542 10.5,7.4375 C10.5,7.67912458 10.2654016,7.875 9.97600986,7.875 Z" id="路径"></path>
                    <path d="M7.61832284,10.5 C7.4555157,10.5016698 7.29943388,10.4469588 7.1887203,10.3493735 C7.07095449,10.2558393 7.00450658,10.1273323 7.00450658,9.9931131 C7.00450658,9.85889388 7.07095449,9.73038685 7.1887203,9.6368527 L9.87719213,7.43931603 L7.1887203,5.24177935 C7.02816725,5.11531273 6.9636696,4.92783965 7.02004909,4.75150859 C7.07642859,4.57517753 7.24489769,4.43747215 7.46062155,4.39138798 C7.6763454,4.3453038 7.90570044,4.3980237 8.06042001,4.52925856 L11.1907232,7.08794484 C11.305364,7.18112567 11.3713927,7.30698087 11.3749525,7.43909873 C11.3770428,7.57217606 11.3101092,7.69975617 11.1907232,7.79025261 L8.06042001,10.3489389 C7.94432741,10.446346 7.78468771,10.5008796 7.61832284,10.5 L7.61832284,10.5 Z" id="路径"></path>
                </g>
            </g>
        </g>
    </g>
</svg>