<?xml version="1.0" encoding="UTF-8"?>
<svg width="14px" height="14px" viewBox="0 0 14 14" version="1.1" xmlns="http://www.w3.org/2000/svg" xmlns:xlink="http://www.w3.org/1999/xlink">
    <title>没有</title>
    <g id="chrome-v4" stroke="none" stroke-width="1" fill="none" fill-rule="evenodd">
        <g id="钱包首页-无记录浏览器查看(未应用产品，待UI改进)" transform="translate(-267.000000, -383.000000)" fill="#333333" fill-rule="nonzero">
            <g id="编组-2" transform="translate(95.000000, 383.000000)">
                <g id="没有" transform="translate(172.000000, 0.000000)">
                    <path d="M7,0.9625 C10.325,0.9625 13.0375,3.675 13.0375,7 C13.0375,10.325 10.325,13.0375 7,13.0375 C3.675,13.0375 0.9625,10.325 0.9625,7 C0.9625,3.675 3.675,0.9625 7,0.9625 M7,0 C3.15,0 0,3.15 0,7 C0,10.85 3.15,14 7,14 C10.85,14 14,10.85 14,7 C14,3.15 10.85,0 7,0 Z M4.4625,4.1125 C4.025,4.1125 3.675,4.4625 3.675,4.9 C3.675,5.3375 4.025,5.6875 4.4625,5.6875 C4.9,5.6875 5.25,5.3375 5.25,4.9 C5.25,4.4625 4.9,4.1125 4.4625,4.1125 Z M9.5375,4.1125 C9.1,4.1125 8.75,4.4625 8.75,4.9 C8.75,5.3375 9.1,5.6875 9.5375,5.6875 C9.975,5.6875 10.325,5.3375 10.325,4.9 C10.4125,4.4625 9.975,4.1125 9.5375,4.1125 Z M10.5,9.7125 C9.5375,8.6625 8.3125,8.05 7,8.05 C5.6,8.05 4.375,8.6625 3.5,9.7125 L4.2,10.325 C4.9,9.5375 5.95,9.0125 7,9.0125 C8.05,9.0125 9.0125,9.45 9.8,10.325 L10.5,9.7125 L10.5,9.7125 Z" id="形状"></path>
                </g>
            </g>
        </g>
    </g>
</svg>