<?xml version="1.0" encoding="UTF-8"?>
<svg width="71px" height="71px" viewBox="0 0 71 71" version="1.1" xmlns="http://www.w3.org/2000/svg" xmlns:xlink="http://www.w3.org/1999/xlink">
    <title>等待mina</title>
    <g id="app-中文" stroke="none" stroke-width="1" fill="none" fill-rule="evenodd">
        <g id="发送成功页面" transform="translate(-153.000000, -74.000000)" fill="#FFC633" fill-rule="nonzero">
            <g id="等待mina" transform="translate(153.000000, 74.000000)">
                <path d="M35.5,0 C15.8948115,0 0,15.8939383 0,35.5004057 C0,55.1063863 15.8948115,71 35.5,71 C55.1064056,71 71,55.1063863 71,35.5004057 C71,15.8939383 55.1064056,0 35.5,0 Z M47.9070879,42.6025966 L33.9639833,42.6032457 C33.8785705,42.6157706 33.7923593,42.6220709 33.7060331,42.6220709 C32.7250271,42.6220709 31.9309722,41.826952 31.9309722,40.8473954 L31.9302419,14.2246674 C31.9302419,13.2442183 32.7348453,12.4492617 33.715121,12.4492617 C34.6958835,12.4492617 35.5,13.2433257 35.5,14.2246674 L35.5,39.0702857 L47.9078182,39.0702857 C48.8871201,39.0702857 49.6821488,39.8568034 49.6821488,40.8359543 C49.6821488,41.8164034 48.8871201,42.6025966 47.9070879,42.6025966 L47.9070879,42.6025966 Z" id="形状"></path>
            </g>
        </g>
    </g>
</svg>