<?xml version="1.0" encoding="UTF-8"?>
<svg width="110px" height="97px" viewBox="0 0 110 97" version="1.1" xmlns="http://www.w3.org/2000/svg" xmlns:xlink="http://www.w3.org/1999/xlink">
    <title>叹号,警告,危险</title>
    <g id="app-中文" stroke="none" stroke-width="1" fill="none" fill-rule="evenodd">
        <g id="破解和越狱检测(点击确定后退出)" transform="translate(-138.000000, -108.000000)" fill="#FF0000" fill-rule="nonzero">
            <g id="叹号,警告,危险" transform="translate(138.000000, 108.000000)">
                <path d="M109.068677,86.5112489 L85.0115603,44.9704163 L60.9544435,3.4295837 C59.6322695,1.14676705 57.310403,0 54.9992859,0 C52.6774194,0 50.3663023,1.14676705 49.0441283,3.4295837 L24.9870115,44.9704163 L0.92989469,86.5112489 C-1.71445327,91.0875996 1.59635637,96.8 6.88505229,96.8 L103.11352,96.8 C108.412965,96.8 111.713025,91.0875996 109.068677,86.5112489 Z M49.0441283,78.2159433 L49.0441283,72.2677591 C49.0441283,70.6279894 50.3770517,69.2990257 52.0217071,69.2990257 L57.9876141,69.2990257 C59.6322695,69.2990257 60.9651929,70.6279894 60.9651929,72.2677591 L60.9651929,78.2159433 C60.9651929,79.855713 59.6322695,81.1846767 57.9876141,81.1846767 L52.0217071,81.1846767 C50.387801,81.1846767 49.0441283,79.855713 49.0441283,78.2159433 L49.0441283,78.2159433 Z M60.9006966,36.5465013 L59.5140263,65.4943313 C59.4925276,65.8908769 59.1700461,66.2016829 58.772319,66.2016829 L51.2477516,66.2016829 C50.8500245,66.2016829 50.5167936,65.8908769 50.5060442,65.4943313 L49.119374,36.5465013 C49.0763764,35.6998229 49.7535875,34.9924712 50.6135381,34.9924712 L59.4065325,34.9924712 C60.2557337,34.9924712 60.9436941,35.6998229 60.9006966,36.5465013 Z" id="形状"></path>
            </g>
        </g>
    </g>
</svg>