<?xml version="1.0" encoding="UTF-8"?>
<svg width="20px" height="20px" viewBox="0 0 20 20" version="1.1" xmlns="http://www.w3.org/2000/svg" xmlns:xlink="http://www.w3.org/1999/xlink">
    <title>Settings</title>
    <g id="app-中文" stroke="none" stroke-width="1" fill="none" fill-rule="evenodd">
        <g id="首页-加载交易记录" transform="translate(-297.000000, -627.000000)" fill="#898DA2">
            <path d="M315.068793,635.571436 L316.511033,634.811437 C316.728811,634.699416 316.891242,634.506482 316.961691,634.276149 C317.03214,634.045816 317.004674,633.797481 316.885489,633.587153 L315.313067,630.812872 C315.062114,630.372772 314.49506,630.212172 314.041964,630.452872 L312.595335,631.217157 C312.087051,631.438007 311.499473,631.396749 311.028764,631.107157 C310.831297,630.982871 310.629441,630.868586 310.427586,630.762872 C309.937429,630.509343 309.614064,630.028614 309.570433,629.488588 L309.570433,627.904305 C309.569659,627.663467 309.470856,627.432815 309.295802,627.263187 C309.120748,627.09356 308.883812,626.998881 308.637219,627.00001 L305.357803,627.00001 C304.845157,626.999227 304.428469,627.403632 304.426051,627.904305 L304.426051,629.494302 C304.38181,630.032644 304.059088,630.511621 303.570361,630.7643 C303.409462,630.848586 303.248563,630.938586 303.092052,631.0343 C302.614152,631.314351 302.024459,631.342236 301.521092,631.108586 L300.413814,630.498586 C299.967381,630.249046 299.398501,630.39606 299.136861,630.828586 L297.501541,633.571439 C297.377901,633.778869 297.344979,634.026181 297.4102,634.257591 C297.475422,634.489002 297.633293,634.685022 297.848206,634.801437 L298.954021,635.417151 C299.415846,635.7135 299.688031,636.221929 299.673678,636.761434 C299.673678,636.877148 299.673678,636.987148 299.673678,637.101434 C299.672717,637.640473 299.388929,638.141414 298.921841,638.428575 L297.488377,639.191431 C297.270553,639.303412 297.108171,639.496452 297.037968,639.726879 C296.967766,639.957306 296.995676,640.205646 297.115383,640.415715 L298.67903,643.185711 C298.929982,643.62581 299.497036,643.78641 299.950132,643.54571 L301.402612,642.781426 C301.908513,642.55845 302.495455,642.599818 302.963333,642.891425 C303.1608,643.015711 303.362655,643.131425 303.570361,643.235711 C304.059003,643.490618 304.381389,643.97071 304.426051,644.509994 L304.426051,646.095706 C304.429271,646.596609 304.84638,647.000787 305.359266,646.999995 L308.637219,646.999995 C309.150675,647.001575 309.568674,646.597168 309.571896,646.095706 L309.571896,644.50428 C309.612814,643.965189 309.936575,643.48521 310.427586,643.235711 C310.588485,643.149996 310.747922,643.059997 310.904433,642.965711 C311.382863,642.685659 311.972982,642.65778 312.476855,642.891425 L313.581208,643.499996 C314.027201,643.749404 314.595624,643.602339 314.856698,643.169996 L316.490555,640.428572 C316.61367,640.220876 316.646143,639.973567 316.580673,639.742252 C316.515204,639.510936 316.357287,639.315027 316.142428,639.198574 L315.033687,638.584289 C314.57676,638.283286 314.306989,637.776773 314.316955,637.238577 C314.316955,637.124291 314.316955,637.010005 314.316955,636.894291 C314.319418,636.356777 314.603019,635.857782 315.068793,635.571436 Z M306.996048,640.52 C305.011448,640.492476 303.422817,638.903614 303.441807,636.96524 C303.460797,635.026866 305.080266,633.467982 307.065042,633.477508 C309.049818,633.48712 310.65345,635.061543 310.652845,637.000005 C310.64744,637.94087 310.25875,638.840927 309.572622,639.501387 C308.886494,640.161847 307.959381,640.528368 306.996048,640.52 Z" id="Settings"></path>
        </g>
    </g>
</svg>