<svg width="24" height="24" viewBox="0 0 24 24" fill="none" xmlns="http://www.w3.org/2000/svg">
<g clip-path="url(#clip0_2885_1355)">
<path fill-rule="evenodd" clip-rule="evenodd" d="M17.0859 3.90348C16.9072 3.59408 16.5771 3.40348 16.2198 3.40348L7.20471 3.40348C6.84745 3.40348 6.51732 3.59408 6.33869 3.90348L1.83113 11.7108C1.65249 12.0202 1.65249 12.4014 1.83112 12.7108L6.33869 20.5181C6.51732 20.8275 6.84745 21.0181 7.20471 21.0181L16.2198 21.0181C16.5771 21.0181 16.9072 20.8275 17.0859 20.5181L21.5934 12.7108C21.7721 12.4014 21.7721 12.0202 21.5934 11.7108L17.0859 3.90348ZM9.90796 15.3361C11.634 16.3326 13.841 15.7412 14.8375 14.0152C15.834 12.2892 15.2426 10.0822 13.5166 9.08573C11.7906 8.08923 9.58361 8.6806 8.58711 10.4066C7.59061 12.1326 8.18197 14.3396 9.90796 15.3361Z" fill="#979595"/>
</g>
<defs>
<clipPath id="clip0_2885_1355">
<rect width="24" height="24" fill="white"/>
</clipPath>
</defs>
</svg>
