<svg width="24" height="24" viewBox="0 0 24 24" fill="none" xmlns="http://www.w3.org/2000/svg">
<g id="Tab_icon_setting" clip-path="url(#clip0_1_143)">
<path id="Exclude" fill-rule="evenodd" clip-rule="evenodd" d="M17.0858 3.90355C16.9072 3.59415 16.5771 3.40355 16.2198 3.40355L7.20469 3.40355C6.84743 3.40355 6.5173 3.59415 6.33867 3.90355L1.8311 11.7109C1.65247 12.0203 1.65247 12.4015 1.8311 12.7109L6.33866 20.5182C6.5173 20.8276 6.84742 21.0182 7.20469 21.0182L16.2198 21.0182C16.5771 21.0182 16.9072 20.8276 17.0858 20.5182L21.5934 12.7109C21.772 12.4015 21.772 12.0203 21.5934 11.7109L17.0858 3.90355ZM9.90794 15.3362C11.6339 16.3327 13.8409 15.7413 14.8374 14.0153C15.8339 12.2893 15.2426 10.0823 13.5166 9.0858C11.7906 8.0893 9.58358 8.68067 8.58708 10.4067C7.59058 12.1327 8.18195 14.3397 9.90794 15.3362Z" fill="black"/>
</g>
<defs>
<clipPath id="clip0_1_143">
<rect width="24" height="24" fill="white"/>
</clipPath>
</defs>
</svg>
