<?xml version="1.0" encoding="UTF-8"?>
<svg width="18px" height="20px" viewBox="0 0 18 20" version="1.1" xmlns="http://www.w3.org/2000/svg" xmlns:xlink="http://www.w3.org/1999/xlink">
    <title>Receipt</title>
    <g id="app-中文" stroke="none" stroke-width="1" fill="none" fill-rule="evenodd">
        <g id="首页-加载交易记录" transform="translate(-179.000000, -627.000000)" fill="#898DA2" fill-rule="nonzero">
            <path d="M193.680361,627.000002 L181.316743,627.000002 C180.037242,627.000002 179,628.023355 179,629.285724 L179,644.315762 C178.999569,644.598425 179.111921,644.869898 179.312761,645.071479 L181.912761,646.685768 C182.110933,646.886671 182.383008,647.000002 182.66715,647.000002 C182.951292,647.000002 183.223367,646.886671 183.421539,646.685768 L184.57991,645.517194 C184.778082,645.316292 185.050157,645.202962 185.334299,645.202962 C185.618441,645.202962 185.890516,645.316292 186.088688,645.517194 L187.247059,646.685768 C187.445681,646.886389 187.717919,646.999497 188.002172,646.999497 C188.286424,646.999497 188.558663,646.886389 188.757285,646.685768 L189.915655,645.517194 C190.113827,645.316292 190.385902,645.202962 190.670044,645.202962 C190.954187,645.202962 191.226261,645.316292 191.424433,645.517194 L192.582804,646.685768 C192.780976,646.886671 193.053051,647.000002 193.337193,647.000002 C193.621335,647.000002 193.89341,646.886671 194.091582,646.685768 L196.684342,645.075764 C196.886897,644.871583 197.000227,644.597181 197,644.311477 L197,629.962868 L197,629.945725 L197,629.285724 C197,628.679018 196.755516,628.097202 196.320417,627.668465 C195.885317,627.239727 194.2953,626.999245 193.680361,627.000002 Z M184.08905,632.000016 L190.119818,632.000016 C190.708389,632.000016 191.185519,632.470758 191.185519,633.051448 C191.185519,633.632137 190.708389,634.102879 190.119818,634.102879 L184.08905,634.102879 C183.50048,634.102879 183.023349,633.632137 183.023349,633.051448 C183.023349,632.470758 183.50048,632.000016 184.08905,632.000016 L184.08905,632.000016 Z M184.08905,635.840026 L187.171765,635.840026 C187.552503,635.840026 187.90432,636.040428 188.094689,636.365742 C188.285058,636.691056 188.285058,637.091859 188.094689,637.417173 C187.90432,637.742487 187.552503,637.942889 187.171765,637.942889 L184.08905,637.942889 C183.50048,637.942889 183.023349,637.472147 183.023349,636.891458 C183.023349,636.310768 183.50048,635.840026 184.08905,635.840026 Z" id="Receipt"></path>
        </g>
    </g>
</svg>