<svg height="200" viewBox="0 0 1024 1024" width="200" xmlns="http://www.w3.org/2000/svg"><path d="m512 1024a512 512 0 1 1 0-1024 512 512 0 0 1 0 1024zm-71.318588-361.411765a29.334588 29.334588 0 0 0 20.48-8.252235l313.46447-304.971294a27.708235 27.708235 0 0 0 0-39.936 29.575529 29.575529 0 0 0 -41.08047 0l-292.74353 284.912941-150.347294-146.191059a29.575529 29.575529 0 0 0 -41.08047 0 27.708235 27.708235 0 0 0 0 39.996236l170.706823 166.128941a29.274353 29.274353 0 0 0 20.540235 8.252235z" fill="#33a954"/></svg>