<?xml version="1.0" encoding="UTF-8"?>
<svg width="28px" height="28px" viewBox="0 0 28 28" version="1.1" xmlns="http://www.w3.org/2000/svg" xmlns:xlink="http://www.w3.org/1999/xlink">
    <title>Group 6</title>
    <g id="chrome-v4" stroke="none" stroke-width="1" fill="none" fill-rule="evenodd">
        <g id="设置" transform="translate(-48.000000, -373.000000)">
            <g id="编组" transform="translate(48.000000, 373.000000)">
                <g id="Group-4" fill="#5DC6FB">
                    <rect id="Rectangle" x="0" y="0" width="28" height="28" rx="10"></rect>
                </g>
                <g id="笔记本" transform="translate(7.000000, 7.000000)" fill="#FFFFFF" fill-rule="nonzero">
                    <path d="M1.75,10.9375 L0.437500004,10.9375 C0.195875434,10.9375 0,10.7416246 0,10.5 C0,10.2583754 0.195875434,10.0625 0.437500004,10.0625 L1.75,10.0625 L1.75,7.43749999 L0.437500004,7.43749999 C0.195875429,7.43749999 0,7.24162457 0,7 C0,6.75837543 0.195875429,6.56250001 0.437500004,6.56250001 L1.75,6.56250001 L1.75,3.9375 L0.437500004,3.9375 C0.195875424,3.9375 0,3.74162458 0,3.5 C0,3.25837542 0.195875424,3.0625 0.437500004,3.0625 L1.75,3.0625 L1.75,1.74999999 C1.75,0.783501686 2.53350169,0 3.5,0 L12.25,0 C13.2164983,0 14,0.783501686 14,1.74999999 L14,12.25 C14,13.2164983 13.2164983,14 12.25,14 L3.5,14 C2.53350169,14 1.75,13.2164983 1.75,12.25 L1.75,10.9375 L1.75,10.9375 Z M5.24999999,3.9375 C5.00837542,3.9375 4.8125,4.13337542 4.8125,4.375 C4.8125,4.61662457 5.00837542,4.81249999 5.24999999,4.81249999 L10.5,4.81249999 C10.7416246,4.81249999 10.9375,4.61662457 10.9375,4.375 C10.9375,4.13337542 10.7416246,3.9375 10.5,3.9375 L5.24999999,3.9375 L5.24999999,3.9375 Z M5.24999999,6.56250001 C5.00837542,6.56250001 4.8125,6.75837543 4.8125,7 C4.8125,7.24162457 5.00837542,7.43749999 5.24999999,7.43749999 L10.5,7.43749999 C10.7416246,7.43749999 10.9375,7.24162457 10.9375,7 C10.9375,6.75837543 10.7416246,6.56250001 10.5,6.56250001 L5.24999999,6.56250001 Z M5.24999999,9.18750001 C5.00837542,9.18750001 4.8125,9.38337543 4.8125,9.625 C4.8125,9.86662458 5.00837542,10.0625 5.24999999,10.0625 L7.4375,10.0625 C7.67912457,10.0625 7.87499999,9.86662458 7.87499999,9.625 C7.87499999,9.38337543 7.67912457,9.18750001 7.4375,9.18750001 L5.24999999,9.18750001 Z" id="形状"></path>
                </g>
            </g>
        </g>
    </g>
</svg>