<svg width="25" height="25" viewBox="0 0 25 25" fill="none" xmlns="http://www.w3.org/2000/svg">
<g id="Frame 6" clip-path="url(#clip0_260_2481)">
<path id="Exclude" fill-rule="evenodd" clip-rule="evenodd" d="M17.5857 4.40355C17.407 4.09415 17.0769 3.90355 16.7197 3.90355L7.70453 3.90355C7.34726 3.90355 7.01714 4.09415 6.8385 4.40355L2.33094 12.2109C2.15231 12.5203 2.15231 12.9015 2.33094 13.2109L6.8385 21.0182C7.01714 21.3276 7.34726 21.5182 7.70453 21.5182L16.7197 21.5182C17.0769 21.5182 17.407 21.3276 17.5857 21.0182L22.0932 13.2109C22.2719 12.9015 22.2719 12.5203 22.0932 12.2109L17.5857 4.40355ZM10.4078 15.8362C12.1338 16.8327 14.3408 16.2413 15.3373 14.5153C16.3338 12.7893 15.7424 10.5823 14.0164 9.58581C12.2904 8.58931 10.0834 9.18067 9.08692 10.9067C8.09042 12.6327 8.68179 14.8397 10.4078 15.8362Z" fill="#808080"/>
</g>
<defs>
<clipPath id="clip0_260_2481">
<rect width="24" height="24" fill="white" transform="translate(0.5 0.5)"/>
</clipPath>
</defs>
</svg>
