<svg width="25" height="25" viewBox="0 0 25 25" fill="none" xmlns="http://www.w3.org/2000/svg">
<g id="Tab_icon_browser">
<path id="Vector" d="M12.1665 22.5C13.4797 22.5 14.7801 22.2413 15.9933 21.7388C17.2066 21.2362 18.309 20.4997 19.2376 19.5711C20.1662 18.6425 20.9028 17.5401 21.4053 16.3268C21.9078 15.1136 22.1665 13.8132 22.1665 12.5C22.1665 11.1868 21.9078 9.88642 21.4053 8.67317C20.9028 7.45991 20.1662 6.35752 19.2376 5.42893C18.309 4.50035 17.2066 3.76375 15.9933 3.2612C14.7801 2.75866 13.4797 2.5 12.1665 2.5C9.51434 2.5 6.9708 3.55357 5.09544 5.42893C3.22007 7.3043 2.1665 9.84784 2.1665 12.5C2.1665 15.1522 3.22007 17.6957 5.09544 19.5711C6.9708 21.4464 9.51434 22.5 12.1665 22.5ZM9.6545 9.56667L16.5585 7.26533C16.6759 7.2264 16.8017 7.22088 16.922 7.24937C17.0424 7.27786 17.1524 7.33926 17.2398 7.42669C17.3272 7.51412 17.3886 7.62414 17.4171 7.74446C17.4456 7.86477 17.4401 7.99064 17.4012 8.108L15.0998 15.012C15.0671 15.1101 15.012 15.1992 14.9389 15.2724C14.8657 15.3455 14.7766 15.4006 14.6785 15.4333L7.7745 17.7347C7.65715 17.7736 7.53128 17.7791 7.41096 17.7506C7.29064 17.7221 7.18062 17.6607 7.09319 17.5733C7.00576 17.4859 6.94437 17.3759 6.91587 17.2555C6.88738 17.1352 6.89291 17.0094 6.93184 16.892L9.23317 9.988C9.26591 9.8899 9.32102 9.80077 9.39415 9.72764C9.46727 9.65452 9.55641 9.59941 9.6545 9.56667ZM12.1665 13.8333C12.5201 13.8333 12.8593 13.6929 13.1093 13.4428C13.3594 13.1928 13.4998 12.8536 13.4998 12.5C13.4998 12.1464 13.3594 11.8072 13.1093 11.5572C12.8593 11.3071 12.5201 11.1667 12.1665 11.1667C11.8129 11.1667 11.4737 11.3071 11.2237 11.5572C10.9736 11.8072 10.8332 12.1464 10.8332 12.5C10.8332 12.8536 10.9736 13.1928 11.2237 13.4428C11.4737 13.6929 11.8129 13.8333 12.1665 13.8333Z" fill="black"/>
</g>
</svg>
