<svg width="24" height="24" viewBox="0 0 24 24" fill="none" xmlns="http://www.w3.org/2000/svg">
<g id="Frame 6" clip-path="url(#clip0_260_2840)">
<path id="Exclude" fill-rule="evenodd" clip-rule="evenodd" d="M17.0857 3.90354C16.907 3.59414 16.5769 3.40354 16.2197 3.40354L7.20453 3.40354C6.84726 3.40354 6.51714 3.59414 6.3385 3.90354L1.83094 11.7109C1.65231 12.0203 1.65231 12.4015 1.83094 12.7109L6.3385 20.5182C6.51714 20.8276 6.84726 21.0182 7.20453 21.0182L16.2197 21.0182C16.5769 21.0182 16.907 20.8276 17.0857 20.5182L21.5932 12.7109C21.7719 12.4015 21.7719 12.0203 21.5932 11.7109L17.0857 3.90354ZM9.90778 15.3362C11.6338 16.3327 13.8408 15.7413 14.8373 14.0153C15.8338 12.2893 15.2424 10.0823 13.5164 9.08579C11.7904 8.08929 9.58342 8.68066 8.58692 10.4066C7.59042 12.1326 8.18179 14.3397 9.90778 15.3362Z" fill="black"/>
</g>
<defs>
<clipPath id="clip0_260_2840">
<rect width="24" height="24" fill="white"/>
</clipPath>
</defs>
</svg>
