<svg width="100" height="100" viewBox="0 0 100 100" fill="none" xmlns="http://www.w3.org/2000/svg">
<g clip-path="url(#clip0_806_10136)">
<path d="M6 74.5697C5.99977 76.0705 7.12892 77.5567 9.32297 78.9433C11.517 80.33 14.733 81.5899 18.7873 82.6512C22.8416 83.7125 27.6548 84.5543 32.952 85.1287C38.2493 85.7031 43.9269 85.9987 49.6607 85.9987C55.3944 85.9987 61.072 85.7031 66.3693 85.1287C71.6665 84.5543 76.4797 83.7125 80.534 82.6512C84.5883 81.5899 87.8043 80.33 89.9984 78.9433C92.1924 77.5567 93.3216 76.0705 93.3213 74.5697C93.3216 73.0688 92.1924 71.5826 89.9984 70.196C87.8043 68.8094 84.5883 67.5494 80.534 66.4881C76.4797 65.4268 71.6665 64.585 66.3693 64.0106C61.072 63.4362 55.3944 63.1406 49.6607 63.1406C43.9269 63.1406 38.2493 63.4362 32.952 64.0106C27.6548 64.585 22.8416 65.4268 18.7873 66.4881C14.733 67.5494 11.517 68.8094 9.32297 70.196C7.12892 71.5826 5.99977 73.0688 6 74.5697H6Z" fill="black" fill-opacity="0.1"/>
<path d="M30.6108 32.2852H68.7105C69.0938 32.2852 69.4709 32.3806 69.8076 32.5626C70.1444 32.7446 70.43 33.0076 70.6385 33.3274L81.4617 49.9332C81.7027 50.3028 81.8312 50.7338 81.8317 51.1743V74.5709C81.8317 74.871 81.7722 75.1683 81.6568 75.4456C81.5413 75.7229 81.372 75.9749 81.1586 76.1871C80.9452 76.3994 80.6919 76.5677 80.4131 76.6826C80.1343 76.7975 79.8355 76.8566 79.5338 76.8566H19.7876C19.1781 76.8566 18.5936 76.6158 18.1627 76.1871C17.7318 75.7585 17.4897 75.1771 17.4897 74.5709V51.1766C17.4895 50.7349 17.618 50.3026 17.8596 49.932L28.6829 33.3274C28.8914 33.0076 29.177 32.7446 29.5137 32.5626C29.8504 32.3806 30.2276 32.2852 30.6108 32.2852Z" fill="black" fill-opacity="0.1"/>
<path d="M30.6108 32.8577C30.3235 32.8578 30.0407 32.9294 29.7883 33.0659C29.5358 33.2025 29.3217 33.3996 29.1654 33.6394L18.3422 50.2451C18.1611 50.5224 18.0646 50.8459 18.0641 51.1766V74.572C18.0641 74.7971 18.1087 75.02 18.1953 75.228C18.2819 75.436 18.4089 75.625 18.5689 75.7842C18.7289 75.9433 18.9189 76.0696 19.128 76.1558C19.3371 76.2419 19.5612 76.2863 19.7876 76.2863H79.5337C79.7601 76.2863 79.9842 76.2419 80.1933 76.1558C80.4024 76.0696 80.5924 75.9433 80.7524 75.7842C80.9124 75.625 81.0394 75.436 81.126 75.228C81.2126 75.02 81.2572 74.7971 81.2572 74.572V51.1777C81.2575 50.8464 81.1613 50.5221 80.9803 50.244L70.157 33.6394C70.0005 33.3993 69.786 33.2019 69.5332 33.0654C69.2803 32.9288 68.9971 32.8574 68.7093 32.8577H30.6108ZM30.6108 31.7148H68.7105C69.1894 31.715 69.6608 31.8342 70.0816 32.0618C70.5024 32.2893 70.8593 32.6179 71.1199 33.0177L81.9431 49.6234C82.2451 50.0862 82.4059 50.626 82.4061 51.1777V74.572C82.4061 74.9472 82.3318 75.3187 82.1875 75.6654C82.0431 76.012 81.8316 76.327 81.5648 76.5923C81.2981 76.8576 80.9815 77.068 80.633 77.2116C80.2845 77.3552 79.9109 77.4291 79.5337 77.4291H19.7876C19.0258 77.4291 18.2952 77.1281 17.7565 76.5923C17.2178 76.0565 16.9152 75.3297 16.9152 74.572V51.1777C16.9152 50.6246 17.076 50.0851 17.377 49.6234L28.2003 33.0177C28.461 32.6178 28.8181 32.2891 29.2391 32.0615C29.6601 31.834 30.1317 31.7148 30.6108 31.7148Z" fill="black" fill-opacity="0.1"/>
<path d="M26.6814 56.2874V17.716C26.6814 16.2954 27.7097 15.1445 28.9793 15.1445H70.342C71.6116 15.1445 72.6399 16.2954 72.6399 17.716V56.2874H26.6814Z" fill="white" fill-opacity="0.726"/>
<path d="M27.8303 51.1429H26.6814V48.8571H27.8303V51.1429ZM27.8303 46.5714H26.6814V44.2857H27.8303V46.5714ZM27.8303 42H26.6814V39.7143H27.8303V42ZM27.8303 37.4286H26.6814V35.1429H27.8303V37.4286ZM27.8303 32.8571H26.6814V30.5714H27.8303V32.8571ZM27.8303 28.2857H26.6814V26H27.8303V28.2857ZM27.8303 23.7143H26.6814V21.4286H27.8303V23.7143ZM27.8303 19.1429H26.6814V16.8571H27.8303V19.1429ZM28.6921 15.3714L28.1176 14.3829C28.554 14.1316 29.0495 13.9995 29.5538 14H30.6327V15.1429H29.5538C29.2459 15.1429 28.9517 15.2229 28.6921 15.3714ZM32.9317 15.1429V14H35.2297V15.1429H32.9317ZM37.5276 15.1429V14H39.8255V15.1429H37.5276ZM42.1235 15.1429V14H44.4214V15.1429H42.1235ZM46.7193 15.1429V14H49.0172V15.1429H46.7193ZM51.3152 15.1429V14H53.6131V15.1429H51.3152ZM55.911 15.1429V14H58.209V15.1429H55.911ZM60.5069 15.1429V14H62.8048V15.1429H60.5069ZM65.1027 15.1429V14H67.4007V15.1429H65.1027ZM69.6986 15.1429V14H70.9165C71.3784 14 71.8242 14.1086 72.2263 14.3143L71.7024 15.3314C71.4593 15.2071 71.1898 15.1425 70.9165 15.1429H69.6975H69.6986ZM72.6377 16.7429L73.7843 16.6686C73.7878 16.7257 73.7901 16.7851 73.7901 16.8457V19.0023H72.6411V16.8491L72.6377 16.7429ZM72.64 21.288H73.7889V23.5737H72.64V21.288ZM72.64 25.8594H73.7889V28.1451H72.64V25.8594ZM72.64 30.4309H73.7889V32.7166H72.64V30.4309ZM72.64 35.0023H73.7889V37.288H72.64V35.0023ZM72.64 39.5737H73.7889V41.8594H72.64V39.5737ZM72.64 44.1451H73.7889V46.4309H72.64V44.1451ZM72.64 48.7166H73.7889V51.0023H72.64V48.7166Z" fill="black" fill-opacity="0.1"/>
<path d="M18.6386 50.5703H37.0221C37.6315 50.5703 38.216 50.8111 38.6469 51.2398C39.0779 51.6684 39.32 52.2498 39.32 52.856V53.9989C39.32 54.6051 39.5621 55.1865 39.993 55.6151C40.424 56.0438 41.0085 56.2846 41.6179 56.2846H57.7034C58.3129 56.2846 58.8974 56.0438 59.3283 55.6151C59.7592 55.1865 60.0014 54.6051 60.0014 53.9989V52.856C60.0014 52.2498 60.2435 51.6684 60.6744 51.2398C61.1053 50.8111 61.6898 50.5703 62.2993 50.5703H80.6827C80.9874 50.5703 81.2797 50.6907 81.4951 50.905C81.7106 51.1194 81.8317 51.4101 81.8317 51.7132V75.7132C81.8317 76.0163 81.7106 76.307 81.4951 76.5213C81.2797 76.7356 80.9874 76.856 80.6827 76.856H18.6386C18.3339 76.856 18.0417 76.7356 17.8262 76.5213C17.6107 76.307 17.4897 76.0163 17.4897 75.7132V51.7132C17.4897 51.4101 17.6107 51.1194 17.8262 50.905C18.0417 50.6907 18.3339 50.5703 18.6386 50.5703Z" fill="white"/>
<path d="M18.6386 51.1429C18.4862 51.1429 18.3401 51.2031 18.2324 51.3102C18.1247 51.4174 18.0641 51.5627 18.0641 51.7143V75.7143C18.0641 75.8658 18.1247 76.0112 18.2324 76.1183C18.3401 76.2255 18.4862 76.2857 18.6386 76.2857H80.6827C80.8351 76.2857 80.9812 76.2255 81.0889 76.1183C81.1967 76.0112 81.2572 75.8658 81.2572 75.7143V51.7143C81.2572 51.5627 81.1967 51.4174 81.0889 51.3102C80.9812 51.2031 80.8351 51.1429 80.6827 51.1429H62.2993C62.0729 51.1429 61.8488 51.1872 61.6397 51.2733C61.4306 51.3595 61.2406 51.4858 61.0806 51.645C60.9206 51.8041 60.7936 51.9931 60.707 52.2011C60.6204 52.4091 60.5758 52.632 60.5758 52.8571V54C60.5758 54.7578 60.2732 55.4845 59.7345 56.0203C59.1958 56.5561 58.4652 56.8571 57.7034 56.8571H41.6179C40.8561 56.8571 40.1255 56.5561 39.5868 56.0203C39.0481 55.4845 38.7455 54.7578 38.7455 54V52.8571C38.7455 52.632 38.7009 52.4091 38.6143 52.2011C38.5277 51.9931 38.4007 51.8041 38.2407 51.645C38.0807 51.4858 37.8907 51.3595 37.6816 51.2733C37.4725 51.1872 37.2484 51.1429 37.022 51.1429H18.6386ZM18.6386 50H37.022C37.7839 50 38.5145 50.301 39.0531 50.8368C39.5918 51.3727 39.8945 52.0994 39.8945 52.8571V54C39.8945 54.2251 39.939 54.448 40.0256 54.656C40.1123 54.864 40.2392 55.053 40.3992 55.2122C40.5593 55.3714 40.7493 55.4976 40.9584 55.5838C41.1675 55.6699 41.3916 55.7143 41.6179 55.7143H57.7034C57.9297 55.7143 58.1538 55.6699 58.3629 55.5838C58.572 55.4976 58.762 55.3714 58.9221 55.2122C59.0821 55.053 59.209 54.864 59.2957 54.656C59.3823 54.448 59.4268 54.2251 59.4268 54V52.8571C59.4268 52.0994 59.7295 51.3727 60.2682 50.8368C60.8068 50.301 61.5374 50 62.2993 50H80.6827C81.1398 50 81.5781 50.1806 81.9014 50.5021C82.2246 50.8236 82.4061 51.2596 82.4061 51.7143V75.7143C82.4061 76.1689 82.2246 76.605 81.9014 76.9265C81.5781 77.248 81.1398 77.4286 80.6827 77.4286H18.6386C18.4123 77.4286 18.1882 77.3842 17.9791 77.2981C17.77 77.2119 17.58 77.0857 17.4199 76.9265C17.2599 76.7673 17.133 76.5783 17.0464 76.3703C16.9597 76.1623 16.9152 75.9394 16.9152 75.7143V51.7143C16.9152 51.4892 16.9597 51.2662 17.0464 51.0583C17.133 50.8503 17.2599 50.6613 17.4199 50.5021C17.58 50.3429 17.77 50.2166 17.9791 50.1305C18.1882 50.0443 18.4123 50 18.6386 50Z" fill="black" fill-opacity="0.1"/>
</g>
<defs>
<clipPath id="clip0_806_10136">
<rect width="87.3" height="72" fill="white" transform="translate(6 14)"/>
</clipPath>
</defs>
</svg>
