<svg width="30" height="30" viewBox="0 0 30 30" fill="none" xmlns="http://www.w3.org/2000/svg">
<g id="walletconnect">
<path id="Vector" d="M22.0248 11.9984C21.9332 12.0004 21.8429 11.9761 21.7646 11.9284C19.9283 10.6634 17.751 9.98611 15.5212 9.98611C13.2913 9.98611 11.114 10.6634 9.27767 11.9284C9.16356 11.9974 9.02672 12.0182 8.89725 11.9863C8.76778 11.9544 8.65628 11.8724 8.58728 11.7583C8.51829 11.6442 8.49745 11.5073 8.52935 11.3778C8.56125 11.2484 8.64327 11.1369 8.75738 11.0679C10.7546 9.71765 13.1103 8.99609 15.5212 8.99609C17.932 8.99609 20.2877 9.71765 22.2849 11.0679C22.3975 11.1382 22.4782 11.2497 22.51 11.3786C22.5418 11.5075 22.522 11.6437 22.455 11.7583C22.4101 11.832 22.3469 11.8929 22.2715 11.935C22.1961 11.9771 22.1111 11.9989 22.0248 11.9984ZM19.0231 21.0034C18.9427 20.9963 18.8652 20.9698 18.7973 20.9263C18.7293 20.8827 18.6729 20.8234 18.6329 20.7533L15.5111 15.5804L12.1693 20.7733C12.1254 20.8404 12.0662 20.8962 11.9967 20.9362C11.9271 20.9762 11.8492 20.9992 11.7691 21.0034C11.6886 21.0105 11.6076 20.9967 11.534 20.9634C11.4604 20.9301 11.3966 20.8784 11.3488 20.8133L6.62619 14.81C6.57864 14.7596 6.54207 14.6999 6.51879 14.6346C6.49552 14.5694 6.48605 14.5 6.49099 14.4309C6.49592 14.3618 6.51516 14.2945 6.54747 14.2332C6.57978 14.1719 6.62447 14.118 6.6787 14.0749C6.73293 14.0318 6.79552 14.0005 6.86251 13.9828C6.9295 13.9652 6.99942 13.9616 7.06786 13.9724C7.13629 13.9832 7.20173 14.008 7.26005 14.0454C7.31836 14.0828 7.36828 14.1319 7.40663 14.1896L11.699 19.6427L15.1109 14.3497C15.1589 14.2803 15.2233 14.2239 15.2983 14.1855C15.3734 14.1471 15.4568 14.1279 15.5412 14.1296C15.626 14.1298 15.7093 14.1521 15.783 14.1942C15.8566 14.2363 15.9181 14.2968 15.9614 14.3697L19.0731 19.6427L23.6457 14.1796C23.735 14.0952 23.8522 14.0466 23.975 14.043C24.0979 14.0395 24.2177 14.0813 24.3117 14.1604C24.4057 14.2396 24.4673 14.3506 24.4847 14.4722C24.5021 14.5938 24.4741 14.7176 24.4061 14.82L19.4033 20.8233C19.3573 20.8797 19.2993 20.9251 19.2335 20.9562C19.1677 20.9874 19.0959 21.0035 19.0231 21.0034Z" fill="black" stroke="black" stroke-width="0.6"/>
</g>
</svg>
