<?xml version="1.0" encoding="UTF-8"?>
<svg width="28px" height="28px" viewBox="0 0 28 28" version="1.1" xmlns="http://www.w3.org/2000/svg" xmlns:xlink="http://www.w3.org/1999/xlink">
    <!-- Generator: Sketch 64 (93537) - https://sketch.com -->
    <title>切换语言</title>
    <desc>Created with Sketch.</desc>
    <g id="app-中文" stroke="none" stroke-width="1" fill="none" fill-rule="evenodd">
        <g id="设置" transform="translate(-50.000000, -235.000000)">
            <g id="Group-4" transform="translate(50.000000, 235.000000)">
                <g fill="#FFC633" id="Rectangle">
                    <rect x="0" y="0" width="28" height="28" rx="10"></rect>
                </g>
                <g id="语言" transform="translate(7.000000, 8.000000)" fill="#FFFFFF">
                    <path d="M12.556701,13 L12.0515464,11.5310734 L9.67010309,11.5310734 L9.16494845,13 L7.64948454,13 L9.95876289,6.83050847 L11.6907216,6.83050847 L14,13 L12.556701,13 Z M10.8969072,8.15254237 L10.0309278,10.4293785 L11.7628866,10.4293785 L10.8969072,8.15254237 Z M7.07216495,10.4293785 L7.72164948,8.88700565 C7.50515464,8.74011299 7.28865979,8.59322034 7.1443299,8.44632768 C8.22680412,7.19774011 9.09278351,5.65536723 9.74226804,3.81920904 L11.6907216,3.81920904 L11.6907216,2.35028249 L6.20618557,2.35028249 L7.28865979,1.98305085 C7.1443299,1.46892655 6.78350515,0.661016949 6.42268041,0 L4.83505155,0.514124294 C5.12371134,1.10169492 5.41237113,1.83615819 5.55670103,2.35028249 L0.216494845,2.35028249 L0.216494845,3.81920904 L2.2371134,3.81920904 C2.88659794,5.65536723 3.82474227,7.19774011 4.90721649,8.44632768 C3.60824742,9.47457627 1.94845361,10.2090395 0,10.7231638 C0.288659794,11.0903955 0.721649485,11.8248588 0.93814433,12.1920904 C2.95876289,11.6045198 4.69072165,10.7231638 6.06185567,9.5480226 C6.35051546,9.84180791 6.71134021,10.1355932 7.07216495,10.4293785 L7.07216495,10.4293785 Z M3.75257732,3.81920904 L8.08247423,3.81920904 C7.57731959,5.21468927 6.8556701,6.38983051 5.98969072,7.4180791 C5.05154639,6.38983051 4.25773196,5.21468927 3.75257732,3.81920904 L3.75257732,3.81920904 Z" id="形状" fill-rule="nonzero"></path>
                </g>
            </g>
        </g>
    </g>
</svg>