<?xml version="1.0" encoding="UTF-8"?>
<svg width="28px" height="28px" viewBox="0 0 28 28" version="1.1" xmlns="http://www.w3.org/2000/svg" xmlns:xlink="http://www.w3.org/1999/xlink">
    <!-- Generator: Sketch 64 (93537) - https://sketch.com -->
    <title>Group 4@2x</title>
    <desc>Created with Sketch.</desc>
    <g id="app-中文" stroke="none" stroke-width="1" fill="none" fill-rule="evenodd">
        <g id="设置" transform="translate(-50.000000, -173.000000)">
            <g id="Group-4" transform="translate(50.000000, 173.000000)">
                <g fill="#02A8FF" id="Rectangle">
                    <rect x="0" y="0" width="28" height="28" rx="10"></rect>
                </g>
                <g id="网络" transform="translate(7.000000, 7.000000)" fill="#FFFFFF">
                    <path d="M0.454709977,4.58100672 C0.454709977,4.58100672 1.68416523,0.785611429 5.91229185,0.0607613997 C5.91229185,0.0607613997 5.26257972,0.98695866 4.64285431,2.47692817 C4.64285431,2.47692817 3.35342562,2.3359851 3.04356292,3.66487683 C3.04356292,3.67494419 1.65417852,3.92662823 0.454709977,4.58100672 Z M3.06355406,4.44006366 C3.06355406,4.44006366 1.28434239,4.81255604 0.124856128,5.67834913 C0.124856128,5.67834913 -0.474878144,8.19518951 0.954488537,10.5710868 C0.954488537,10.5710868 2.43383307,10.8932424 3.91317761,10.7321646 C3.91317761,10.7321646 3.91317761,9.80596736 4.51291188,9.33280136 C4.51291188,9.33280136 3.77323961,7.42000267 3.96315547,5.39646301 C3.99314218,5.39646301 3.25346991,5.20518314 3.06355406,4.44006366 Z M1.58420952,11.4268126 C1.58420952,11.4268126 3.48336805,14.3564148 7.85143266,13.9637877 C7.85143266,13.9637877 6.30211913,12.4738182 5.98226085,11.9805174 C5.98226085,11.9805174 4.75280559,12.2825383 4.34298717,11.4268126 C4.3329916,11.4268126 2.76368692,11.6583619 1.58420952,11.4268126 L1.58420952,11.4268126 Z M6.60198626,11.5375535 C6.60198626,11.5375535 6.9018534,11.3966105 7.02180025,10.6717604 C7.02180025,10.6717604 9.45072405,9.80596736 10.9500597,7.51060893 C10.9500597,7.51060893 11.4398427,7.53074365 11.759701,7.27905961 C11.759701,7.27905961 12.8892005,8.34619993 13.4189658,9.74556319 C13.4189658,9.74556319 12.3594353,12.7959737 8.93095435,13.7725078 C8.93095435,13.7523731 7.38164082,12.7255022 6.60198626,11.5375535 Z M12.8192315,3.16150875 C12.8192315,3.16150875 14.5984432,5.20518314 13.788802,8.67842287 C13.788802,8.67842287 12.7992404,7.06764502 12.3094574,6.72535473 C12.3094574,6.72535473 12.7492625,5.85956164 12.2394884,5.23538522 C12.2594796,5.23538522 12.7292714,4.2991206 12.8192315,3.16150875 Z M5.35253986,2.71854484 C5.35253986,2.71854484 5.86231399,3.14137403 5.88230514,3.53400113 C5.88230514,3.53400113 8.0813308,3.67494419 9.97049376,4.88302757 C9.97049376,4.88302757 10.8301129,4.18837963 11.6297586,4.70181506 C11.6297586,4.70181506 12.0895549,3.86622406 12.179515,2.32591774 C12.179515,2.32591774 10.4902635,0.0708287612 6.93184011,0.000357230505 C6.9718224,-0.0298448541 5.582438,1.86281911 5.35253986,2.71854484 Z M4.75280559,5.44679982 C4.75280559,5.44679982 5.77235385,5.51727135 5.95227414,4.27898588 C5.95227414,4.27898588 7.96138395,4.46019839 9.58066648,5.44679982 C9.58066648,5.44679982 9.1908392,6.68508528 10.1804008,7.28912697 C10.1804008,7.28912697 9.16085249,8.82943329 6.87186669,9.91670833 C6.87186669,9.91670833 6.41207041,8.86970273 5.23259301,9.05091524 C5.26257972,9.03078052 4.77279673,8.0945159 4.75280559,5.44679982 Z" id="形状" fill-rule="nonzero"></path>
                </g>
            </g>
        </g>
    </g>
</svg>