<svg width="31" height="29" viewBox="0 0 31 29" fill="none" xmlns="http://www.w3.org/2000/svg">
<path d="M30.8503 3.04828L26.287 26.5905L26.2663 26.6438C26.2631 26.6521 26.0519 27.1806 25.5508 27.5875C25.2206 27.855 24.7121 28.015 24.1906 28.015C23.8238 28.0148 23.4631 27.938 23.1191 27.7862L23.0596 27.7604L18.0972 23.926C17.7462 23.6548 17.3089 23.5054 16.8663 23.5054C16.3614 23.5054 15.8777 23.6939 15.5046 24.036L12.8193 26.4987L12.797 26.5161C12.7966 26.5161 12.4692 26.7524 12.045 26.7524C11.9334 26.7524 11.822 26.7358 11.7143 26.7028L11.6674 26.6884C11.6674 26.6884 11.6642 26.688 11.6609 26.6875L12.0999 20.9798C12.1924 19.7785 12.7241 18.6534 13.5935 17.8195L19.657 12.0035C20.231 11.4529 19.5314 10.5412 18.8511 10.9531L8.082 17.4712L1.90792 15.3769C1.80344 15.3334 1.56536 15.2248 1.32264 15.0505C0.835124 14.7022 0.569203 14.2952 0.508723 13.8049C0.464083 13.4547 0.596564 13.1115 0.735604 12.906C0.914164 12.6422 1.12104 12.4889 1.26136 12.3968C1.58152 12.1753 1.88376 12.0552 1.96904 12.0233L1.99768 12.012C2.41848 11.8334 8.57432 9.21948 14.8327 6.56508L23.8705 2.73132L25.2602 2.14412C26.8631 1.46668 27.9583 1.00396 28.3198 0.856283L28.3857 0.831483C28.6156 0.741563 28.9617 0.619963 29.3105 0.603483C29.3374 0.602203 29.3644 0.601562 29.3919 0.601562C29.6902 0.601562 29.9644 0.679163 30.2303 0.838683C30.522 1.0126 30.7812 1.36636 30.8772 1.72012C30.9775 2.09052 30.969 2.51276 30.8503 3.04828Z" fill="#594AF1"/>
</svg>
