<svg width="24" height="24" viewBox="0 0 24 24" fill="none" xmlns="http://www.w3.org/2000/svg">
<path d="M23.9242 3.12398L20.3271 21.6816L20.3108 21.7236C20.3083 21.7301 20.1418 22.1467 19.7468 22.4674C19.4865 22.6783 19.0857 22.8044 18.6746 22.8044C18.3854 22.8043 18.1011 22.7438 17.83 22.6241L17.7831 22.6038L13.8714 19.5812C13.5947 19.3675 13.25 19.2497 12.9011 19.2497C12.5031 19.2497 12.1218 19.3982 11.8277 19.6679L9.71096 21.6092L9.69343 21.6229C9.69305 21.6229 9.435 21.8092 9.10065 21.8092C9.01262 21.8092 8.92484 21.7961 8.83996 21.7701L8.803 21.7587C8.803 21.7587 8.80048 21.7584 8.79783 21.758L9.14391 17.2588C9.21681 16.3119 9.63592 15.425 10.3213 14.7676L15.1009 10.1831C15.5533 9.74908 15.0019 9.03044 14.4657 9.35508L5.97672 14.4931L1.10989 12.8422C1.02753 12.8079 0.839863 12.7223 0.648535 12.585C0.264239 12.3104 0.0546228 11.9895 0.00694843 11.6031C-0.0282398 11.327 0.07619 11.0565 0.185791 10.8945C0.326544 10.6866 0.48962 10.5657 0.60023 10.4931C0.852602 10.3185 1.09085 10.2238 1.15807 10.1987L1.18065 10.1898C1.51235 10.049 6.3648 7.98854 11.2981 5.89616L18.4223 2.87413L19.5178 2.41126C20.7813 1.87726 21.6446 1.51251 21.9295 1.3961L21.9814 1.37655C22.1627 1.30567 22.4355 1.20982 22.7104 1.19683C22.7316 1.19582 22.7529 1.19531 22.7746 1.19531C23.0097 1.19531 23.2259 1.25648 23.4355 1.38223C23.6654 1.51932 23.8698 1.79818 23.9454 2.07704C24.0245 2.36901 24.0178 2.70185 23.9242 3.12398Z" fill="#594AF1"/>
</svg>
