<svg width="27" height="27" viewBox="0 0 27 27" fill="none" xmlns="http://www.w3.org/2000/svg">
<path d="M23.8008 6.8182C23.0201 7.15497 22.1705 7.39734 21.2955 7.49174C22.1986 6.95342 22.8849 6.10385 23.2089 5.09354C22.3746 5.59104 21.4307 5.95587 20.4484 6.14467C19.6524 5.29509 18.5222 4.76953 17.2696 4.76953C14.8586 4.76953 12.9196 6.7238 12.9196 9.122C12.9196 9.45877 12.9605 9.79553 13.0268 10.1195C9.41674 9.93075 6.19704 8.20609 4.05652 5.56553C3.67894 6.21355 3.46463 6.95342 3.46463 7.76217C3.46463 9.27252 4.23256 10.6043 5.40359 11.3875C4.68924 11.3595 4.0157 11.1579 3.43657 10.8339V10.8875C3.43657 13.0025 4.93161 14.7552 6.92415 15.1583C6.55932 15.2527 6.16898 15.3063 5.77863 15.3063C5.49544 15.3063 5.22756 15.2782 4.95712 15.2399C5.5082 16.9646 7.11295 18.2173 9.02385 18.2581C7.5288 19.4291 5.65617 20.118 3.62281 20.118C3.25798 20.118 2.92121 20.1052 2.57169 20.0644C4.50045 21.3018 6.78893 22.0161 9.25346 22.0161C17.2542 22.0161 21.6322 15.3879 21.6322 9.6348C21.6322 9.44601 21.6322 9.25722 21.6195 9.06842C22.4665 8.44846 23.2089 7.68053 23.8008 6.8182Z" fill="#479AE9"/>
</svg>
