<svg width="24" height="24" viewBox="0 0 24 24" fill="none" xmlns="http://www.w3.org/2000/svg">
<path d="M11.2619 14.4025L3.63424 23.242C3.43214 23.4737 3.14851 23.5924 2.86323 23.5924C2.62459 23.5924 2.385 23.5093 2.19123 23.3402C1.76563 22.9688 1.72172 22.3228 2.09318 21.8972L9.9636 12.7796L11.2619 14.4025ZM14.0367 11.223L21.9071 2.1054C22.2785 1.67981 22.2346 1.03385 21.809 0.662395C21.3836 0.290938 20.7372 0.334847 20.366 0.76044L12.7383 9.6L14.0367 11.223Z" fill="#594AF1"/>
<path d="M22.9773 23.5921H17.6591C17.3484 23.5921 17.0546 23.4509 16.8606 23.2083L0.224105 2.07176C-0.0214879 1.7648 -0.0693517 1.34412 0.100968 0.989842C0.271287 0.635567 0.629517 0.410156 1.02266 0.410156H6.34087C6.65165 0.410156 6.94538 0.55143 7.13942 0.794023L23.7759 21.9305C24.0215 22.2375 24.0694 22.6582 23.899 23.0124C23.7287 23.3667 23.3705 23.5921 22.9773 23.5921ZM18.1507 21.5467H20.8494L5.84928 2.45562H3.15062L18.1507 21.5467Z" fill="#594AF1"/>
</svg>
