<svg width="29" height="28" viewBox="0 0 29 28" fill="none" xmlns="http://www.w3.org/2000/svg">
<path d="M13.3138 17.0191L4.36407 27.3908C4.12695 27.6626 3.79415 27.8018 3.45943 27.8018C3.17943 27.8018 2.89831 27.7044 2.67095 27.506C2.17159 27.0702 2.12007 26.3122 2.55591 25.8129L11.7905 15.115L13.3138 17.0191ZM16.5695 13.2886L25.8041 2.59064C26.2399 2.09128 26.1884 1.33336 25.689 0.89752C25.1898 0.46168 24.4314 0.5132 23.9959 1.01256L15.0461 11.3842L16.5695 13.2886Z" fill="#594AF1"/>
<path d="M27.0599 27.8016H20.8199C20.4553 27.8016 20.1106 27.6358 19.883 27.3512L0.362954 2.55116C0.0747938 2.191 0.018634 1.6974 0.218474 1.28172C0.418314 0.866043 0.838634 0.601562 1.29991 0.601562H7.53991C7.90455 0.601562 8.2492 0.767323 8.47687 1.05196L27.9969 25.852C28.285 26.2121 28.3412 26.7057 28.1414 27.1214C27.9415 27.5371 27.5212 27.8016 27.0599 27.8016ZM21.3967 25.4016H24.5631L6.96311 3.00156H3.79671L21.3967 25.4016Z" fill="#594AF1"/>
</svg>
