<svg width="24" height="24" viewBox="0 0 24 24" fill="none" xmlns="http://www.w3.org/2000/svg">
<path d="M22.701 6.5595C21.3749 3.96493 19.1539 1.93846 16.449 0.855C15.1572 0.344229 13.7885 0.0551681 12.4005 0L11.6025 0C10.0485 0.0592413 8.52019 0.414602 7.0995 1.047C4.95278 2.01305 3.13525 3.58553 1.8705 5.571C0.689742 7.43216 0.0427197 9.58181 0 11.7855V12.2145C0.0462475 15.0483 1.099 17.7732 2.97 19.902C4.50615 21.6581 6.52079 22.9284 8.7675 23.5575C9.69 23.82 10.6455 23.949 11.6025 24H12.4005C13.1295 23.955 13.86 23.8815 14.5725 23.721C16.3181 23.3392 17.9562 22.5718 19.3668 21.475C20.7774 20.3782 21.9248 18.9797 22.725 17.382C23.5292 15.7769 23.9648 14.0125 24 12.2175V11.7855C23.9706 9.96731 23.5263 8.17986 22.701 6.5595ZM22.2555 11.145H18.918C18.8165 9.52105 18.5106 7.91639 18.0075 6.369C18.6585 6.096 19.29 5.7765 19.8975 5.4135C21.2565 7.03464 22.0803 9.03683 22.2555 11.145ZM16.6335 16.9905C16.4475 16.9305 16.26 16.875 16.074 16.821C15.0243 16.5319 13.9476 16.3515 12.861 16.2825V12.8595H17.2365C17.1978 14.2553 16.9954 15.6418 16.6335 16.9905ZM14.211 22.047C13.7659 22.1434 13.3149 22.2106 12.861 22.248V18.003C13.9642 18.0777 15.0544 18.2842 16.1085 18.618C15.66 19.8075 15.087 20.943 14.397 22.002C14.3357 22.0196 14.2736 22.0347 14.211 22.047ZM9.8265 1.95C10.2621 1.85654 10.7029 1.78942 11.1465 1.749V5.805C10.2485 5.739 9.35924 5.58475 8.4915 5.3445C8.412 5.322 8.331 5.2995 8.2515 5.274C8.6595 4.1115 9.1875 2.997 9.8265 1.95ZM15.7845 5.3355C15.528 5.40787 15.2694 5.4724 15.009 5.529C14.3013 5.68045 13.5833 5.77872 12.861 5.823V1.752C13.1715 1.779 13.4805 1.821 13.788 1.875C14.58 2.946 15.249 4.107 15.783 5.3355H15.7845ZM8.0295 6.996C9.0435 7.2855 10.092 7.449 11.1465 7.527V11.145H7.251C7.251 9.72 7.422 8.301 7.761 6.9195L8.028 6.996H8.0295ZM11.145 12.8595V16.2855C10.3305 16.3455 9.519 16.4385 8.724 16.617C8.53328 16.6578 8.34371 16.7039 8.1555 16.755C7.7355 15.495 7.458 14.1885 7.3305 12.8625H11.145V12.8595ZM9.09 18.2895C9.765 18.1365 10.455 18.0525 11.145 18.003V22.224C10.1963 21.0423 9.40242 19.7443 8.7825 18.3615L9.09 18.2895ZM8.676 21.7365C7.42176 21.3082 6.2624 20.6409 5.262 19.7715C5.8635 19.4235 6.4905 19.125 7.1355 18.876C7.5705 19.872 8.085 20.829 8.676 21.7365ZM12.861 11.1465V7.539C13.707 7.479 14.55 7.386 15.375 7.2015C15.7155 7.1265 16.053 7.041 16.3875 6.9435C16.8255 8.304 17.097 9.714 17.1975 11.1435H12.861V11.1465ZM18.6465 4.155C18.2423 4.37896 17.8268 4.58173 17.4015 4.7625C17.0976 4.0497 16.75 3.35638 16.3605 2.6865C17.1825 3.069 17.9505 3.5625 18.6465 4.155ZM7.419 2.793C7.1265 3.408 6.8655 4.038 6.639 4.68C6.23296 4.49839 5.836 4.29715 5.4495 4.077C6.05453 3.57481 6.71538 3.14397 7.419 2.793ZM3.3195 6.4905C3.5805 6.078 3.8715 5.6865 4.1865 5.3175C4.8135 5.7015 5.466 6.0405 6.1395 6.33C5.73842 7.90353 5.53635 9.52116 5.538 11.145H1.752C1.89068 9.48962 2.42854 7.89253 3.3195 6.4905ZM2.2155 15.168C1.97434 14.4181 1.81984 13.6431 1.755 12.858H5.613C5.7435 14.3625 6.051 15.8445 6.5265 17.274C5.6625 17.604 4.8315 18.0165 4.0395 18.504C3.22838 17.5157 2.6097 16.3842 2.2155 15.168ZM16.9245 21.0345C17.2155 20.454 17.475 19.8585 17.7045 19.2495C18.0435 19.41 18.3765 19.584 18.7005 19.77H18.741C18.1836 20.2561 17.5751 20.6801 16.926 21.0345H16.9245ZM19.9545 18.522C19.4025 18.1815 18.8295 17.877 18.24 17.6085C18.6711 16.0603 18.909 14.4646 18.948 12.858H22.254C22.0803 14.9357 21.2783 16.9113 19.9545 18.522Z" fill="#594AF1"/>
</svg>
