<svg width="25" height="24" viewBox="0 0 25 24" fill="none" xmlns="http://www.w3.org/2000/svg">
<path d="M13 0C9.8174 0 6.76516 1.26428 4.51472 3.51472C2.26428 5.76516 1 8.8174 1 12C1 15.1826 2.26428 18.2348 4.51472 20.4853C6.76516 22.7357 9.8174 24 13 24C16.1826 24 19.2348 22.7357 21.4853 20.4853C23.7357 18.2348 25 15.1826 25 12C25 8.8174 23.7357 5.76516 21.4853 3.51472C19.2348 1.26428 16.1826 0 13 0V0ZM2.48 12.9067H5.82667C5.88 14.12 6.04933 15.3253 6.33333 16.5067H3.45333C2.91627 15.3745 2.58661 14.1552 2.48 12.9067ZM13.9067 5.70667V1.58667C15.1916 2.07497 16.2474 3.02616 16.8667 4.25333C17.14 4.716 17.3813 5.19733 17.5867 5.69333L13.9067 5.70667ZM18.2 7.50667C18.5093 8.684 18.6933 9.89067 18.7467 11.1067H13.9067V7.50667H18.2ZM12.0933 1.58667V5.70667H8.41333C8.61902 5.21026 8.85962 4.72906 9.13333 4.26667C9.74996 3.03447 10.8061 2.07821 12.0933 1.58667ZM12.0933 7.50667V11.1067H7.26667C7.32 9.89067 7.504 8.684 7.81333 7.50667H12.0933ZM5.82667 11.0933H2.48C2.58661 9.84479 2.91627 8.62549 3.45333 7.49333H6.33333C6.04879 8.67419 5.87911 9.87981 5.82667 11.0933ZM7.26667 12.9067H12.0933V16.5067H7.81333C7.50405 15.3294 7.3208 14.1226 7.26667 12.9067ZM12.1067 18.24V22.36C10.8218 21.8717 9.76593 20.9205 9.14667 19.6933C8.87295 19.2309 8.63235 18.7497 8.42667 18.2533L12.1067 18.24ZM13.9067 22.36V18.3067H17.5867C17.381 18.8031 17.1404 19.2843 16.8667 19.7467C16.2474 20.9738 15.1916 21.925 13.9067 22.4133V22.36ZM13.9067 16.44V12.84H18.7333C18.6792 14.056 18.496 15.2628 18.1867 16.44H13.9067ZM20.1867 12.84H23.5333C23.4267 14.0885 23.0971 15.3078 22.56 16.44H19.6667C19.9467 15.28 20.116 14.0973 20.1733 12.9067L20.1867 12.84ZM20.1867 11.04C20.1256 9.84841 19.9515 8.66532 19.6667 7.50667H22.5467C23.084 8.64 23.4133 9.85867 23.52 11.1067L20.1867 11.04ZM21.52 5.70667H19.1333C18.7015 4.49373 18.0756 3.35897 17.28 2.34667C18.9392 3.09144 20.3804 4.24807 21.4667 5.70667H21.52ZM8.72 2.34667C7.92443 3.35897 7.2985 4.49373 6.86667 5.70667H4.53333C5.61963 4.24807 7.06082 3.09144 8.72 2.34667ZM4.52 18.3467H6.86667C7.2985 19.5596 7.92443 20.6944 8.72 21.7067C7.05623 20.9507 5.6146 19.7799 4.53333 18.3067L4.52 18.3467ZM17.2667 21.7067C18.0622 20.6944 18.6882 19.5596 19.12 18.3467H21.4667C20.3737 19.7857 18.9331 20.9235 17.28 21.6533L17.2667 21.7067Z" fill="#479AE9"/>
</svg>
