<svg width="29" height="30" viewBox="0 0 29 30" fill="none" xmlns="http://www.w3.org/2000/svg">
<path d="M27.3412 8.47296C25.7499 5.35947 23.0847 2.92771 19.8388 1.62756C18.2887 1.01464 16.6462 0.667764 14.9806 0.601563L14.023 0.601562C12.1583 0.672652 10.3242 1.09909 8.61941 1.85796C6.04334 3.01722 3.8623 4.9042 2.34461 7.28676C0.927697 9.52015 0.15127 12.0997 0.100006 14.7442V15.259C0.155503 18.6595 1.41881 21.9294 3.66401 24.484C5.50739 26.5912 7.92496 28.1156 10.621 28.8706C11.728 29.1856 12.8746 29.3404 14.023 29.4016H14.9806C15.8554 29.3476 16.732 29.2594 17.587 29.0668C19.6817 28.6086 21.6474 27.6878 23.3402 26.3716C25.0329 25.0554 26.4098 23.3772 27.37 21.46C28.335 19.5338 28.8578 17.4165 28.9 15.2626V14.7442C28.8647 12.5623 28.3316 10.4174 27.3412 8.47296ZM26.8066 13.9756H22.8016C22.6798 12.0268 22.3127 10.1012 21.709 8.24436C22.4902 7.91676 23.248 7.53336 23.977 7.09776C25.6079 9.04313 26.5963 11.4458 26.8066 13.9756ZM20.0602 20.9902C19.837 20.9182 19.612 20.8516 19.3888 20.7868C18.1291 20.4398 16.8372 20.2233 15.5332 20.1406V16.033H20.7838C20.7373 17.708 20.4945 19.3718 20.0602 20.9902ZM17.1532 27.058C16.6191 27.1737 16.0779 27.2543 15.5332 27.2992V22.2052C16.857 22.2948 18.1653 22.5426 19.4302 22.9432C18.892 24.3706 18.2044 25.7332 17.3764 27.004C17.3028 27.0251 17.2283 27.0432 17.1532 27.058ZM11.8918 2.94156C12.4145 2.82941 12.9434 2.74886 13.4758 2.70036V7.56756C12.3982 7.48836 11.3311 7.30327 10.2898 7.01496C10.1944 6.98796 10.0972 6.96096 10.0018 6.93036C10.4914 5.53536 11.125 4.19796 11.8918 2.94156ZM19.0414 7.00416C18.7336 7.09101 18.4233 7.16844 18.1108 7.23636C17.2616 7.4181 16.4 7.53603 15.5332 7.58916V2.70396C15.9058 2.73636 16.2766 2.78676 16.6456 2.85156C17.596 4.13676 18.3988 5.52996 19.0396 7.00416H19.0414ZM9.73541 8.99676C10.9522 9.34416 12.2104 9.54036 13.4758 9.63396V13.9756H8.80121C8.80121 12.2656 9.00641 10.5628 9.41321 8.90496L9.73361 8.99676H9.73541ZM13.474 16.033V20.1442C12.4966 20.2162 11.5228 20.3278 10.5688 20.542C10.3399 20.591 10.1125 20.6462 9.88661 20.7076C9.38261 19.1956 9.04961 17.6278 8.89661 16.0366H13.474V16.033ZM11.008 22.549C11.818 22.3654 12.646 22.2646 13.474 22.2052V27.2704C12.3356 25.8523 11.3829 24.2947 10.639 22.6354L11.008 22.549ZM10.5112 26.6854C9.00612 26.1713 7.61489 25.3706 6.41441 24.3274C7.13621 23.9098 7.88861 23.5516 8.66261 23.2528C9.18461 24.448 9.80201 25.5964 10.5112 26.6854ZM15.5332 13.9774V9.64836C16.5484 9.57636 17.56 9.46476 18.55 9.24336C18.9586 9.15336 19.3636 9.05076 19.765 8.93376C20.2906 10.5664 20.6164 12.2584 20.737 13.9738H15.5332V13.9774ZM22.4758 5.58756C21.9908 5.85631 21.4921 6.09964 20.9818 6.31656C20.6172 5.46121 20.2 4.62922 19.7326 3.82536C20.719 4.28436 21.6406 4.87656 22.4758 5.58756ZM9.00281 3.95316C8.65181 4.69116 8.33861 5.44716 8.06681 6.21756C7.57956 5.99963 7.1032 5.75815 6.63941 5.49396C7.36544 4.89133 8.15847 4.37433 9.00281 3.95316ZM4.08341 8.39016C4.39661 7.89516 4.74581 7.42536 5.12381 6.98256C5.87621 7.44336 6.65921 7.85016 7.46741 8.19756C6.98612 10.0858 6.74362 12.027 6.74561 13.9756H2.20241C2.36882 11.9891 3.01425 10.0726 4.08341 8.39016ZM2.75861 18.8032C2.46922 17.9033 2.28381 16.9732 2.20601 16.0312H6.83561C6.99221 17.8366 7.36121 19.615 7.93181 21.3304C6.89501 21.7264 5.89781 22.2214 4.94741 22.8064C3.97407 21.6205 3.23165 20.2626 2.75861 18.8032ZM20.4094 25.843C20.7586 25.1464 21.07 24.4318 21.3454 23.701C21.7522 23.8936 22.1518 24.1024 22.5406 24.3256H22.5892C21.9204 24.9088 21.1901 25.4176 20.4112 25.843H20.4094ZM24.0454 22.828C23.383 22.4194 22.6954 22.054 21.988 21.7318C22.5054 19.8739 22.7907 17.9591 22.8376 16.0312H26.8048C26.5964 18.5244 25.634 20.8951 24.0454 22.828Z" fill="#594AF1"/>
</svg>
